BalooBhaijaan.ufo
<glyph name="periodcentered" format="1">
  <advance width="234"/>
  <unicode hex="00B7"/>
  <outline>
    <contour>
      <point x="20" y="301" type="curve" smooth="yes"/>
      <point x="20" y="246"/>
      <point x="58" y="203"/>
      <point x="117" y="203" type="curve" smooth="yes"/>
      <point x="176" y="203"/>
      <point x="214" y="246"/>
      <point x="214" y="301" type="curve" smooth="yes"/>
      <point x="214" y="356"/>
      <point x="176" y="399"/>
      <point x="117" y="399" type="curve" smooth="yes"/>
      <point x="58" y="399"/>
      <point x="20" y="356"/>
    </contour>
  </outline>
</glyph>
<glyph name="Comma.ur" format="1">
  <advance width="261"/>
  <unicode hex="060C"/>
  <outline>
    <contour>
      <point x="89" y="199" type="curve"/>
      <point x="69" y="163"/>
      <point x="50" y="89"/>
      <point x="50" y="44" type="curve" smooth="yes"/>
      <point x="50" y="4"/>
      <point x="81" y="-10"/>
      <point x="116" y="-10" type="curve" smooth="yes"/>
      <point x="142" y="-10"/>
      <point x="170" y="-1"/>
      <point x="189" y="9" type="curve"/>
      <point x="196" y="67"/>
      <point x="206" y="144"/>
      <point x="220" y="212" type="curve"/>
      <point x="204" y="227"/>
      <point x="182" y="234"/>
      <point x="158" y="234" type="curve" smooth="yes"/>
      <point x="128" y="234"/>
      <point x="108" y="223"/>
    </contour>
  </outline>
</glyph>
<glyph name="Semicolon.ur" format="1">
  <advance width="266"/>
  <unicode hex="061B"/>
  <outline>
    <contour>
      <point x="215" y="66" type="curve"/>
      <point x="215" y="111"/>
      <point x="185" y="142"/>
      <point x="130" y="142" type="curve" smooth="yes"/>
      <point x="83" y="142"/>
      <point x="50" y="111"/>
      <point x="50" y="66" type="curve" smooth="yes"/>
      <point x="50" y="23"/>
      <point x="83" y="-10"/>
      <point x="130" y="-10" type="curve" smooth="yes"/>
      <point x="185" y="-10"/>
      <point x="215" y="23"/>
    </contour>
    <contour>
      <point x="94" y="492" type="curve"/>
      <point x="74" y="456"/>
      <point x="55" y="382"/>
      <point x="55" y="337" type="curve" smooth="yes"/>
      <point x="55" y="297"/>
      <point x="86" y="283"/>
      <point x="121" y="283" type="curve" smooth="yes"/>
      <point x="147" y="283"/>
      <point x="175" y="292"/>
      <point x="194" y="302" type="curve"/>
      <point x="201" y="360"/>
      <point x="211" y="437"/>
      <point x="225" y="505" type="curve"/>
      <point x="209" y="520"/>
      <point x="187" y="527"/>
      <point x="163" y="527" type="curve" smooth="yes"/>
      <point x="133" y="527"/>
      <point x="113" y="516"/>
    </contour>
  </outline>
</glyph>
<glyph name="Questionmark.ur" format="1">
  <advance width="509"/>
  <unicode hex="061F"/>
  <outline>
    <contour>
      <point x="400" y="77" type="curve"/>
      <point x="400" y="131"/>
      <point x="363" y="171"/>
      <point x="304" y="171" type="curve" smooth="yes"/>
      <point x="245" y="171"/>
      <point x="208" y="131"/>
      <point x="208" y="77" type="curve" smooth="yes"/>
      <point x="208" y="23"/>
      <point x="245" y="-17"/>
      <point x="304" y="-17" type="curve" smooth="yes"/>
      <point x="363" y="-17"/>
      <point x="400" y="23"/>
    </contour>
    <contour>
      <point x="367" y="208" type="line"/>
      <point x="390" y="220"/>
      <point x="414" y="250"/>
      <point x="414" y="292" type="curve" smooth="yes"/>
      <point x="414" y="333"/>
      <point x="392" y="355"/>
      <point x="349" y="366" type="curve" smooth="yes"/>
      <point x="271" y="385" type="line" smooth="yes"/>
      <point x="236" y="394"/>
      <point x="221" y="408"/>
      <point x="221" y="433" type="curve" smooth="yes"/>
      <point x="221" y="458"/>
      <point x="243" y="480"/>
      <point x="303" y="480" type="curve" smooth="yes"/>
      <point x="357" y="480"/>
      <point x="409" y="464"/>
      <point x="438" y="445" type="curve"/>
      <point x="460" y="462"/>
      <point x="479" y="487"/>
      <point x="479" y="521" type="curve" smooth="yes"/>
      <point x="479" y="591"/>
      <point x="396" y="623"/>
      <point x="289" y="623" type="curve" smooth="yes"/>
      <point x="132" y="623"/>
      <point x="40" y="546"/>
      <point x="40" y="433" type="curve" smooth="yes"/>
      <point x="40" y="318"/>
      <point x="116" y="258"/>
      <point x="266" y="228" type="curve"/>
    </contour>
  </outline>
</glyph>
<glyph name="Hamza.ur" format="1">
  <advance width="492"/>
  <unicode hex="0621"/>
  <outline>
    <contour>
      <point x="339" y="123" type="line"/>
      <point x="331" y="123" type="line"/>
      <point x="283" y="126"/>
      <point x="260" y="156"/>
      <point x="260" y="190" type="curve" smooth="yes"/>
      <point x="260" y="240"/>
      <point x="298" y="261"/>
      <point x="344" y="261" type="curve" smooth="yes"/>
      <point x="372" y="261"/>
      <point x="396" y="254"/>
      <point x="408" y="250" type="curve"/>
      <point x="421" y="262"/>
      <point x="428" y="286"/>
      <point x="428" y="302" type="curve" smooth="yes"/>
      <point x="428" y="347"/>
      <point x="391" y="387"/>
      <point x="300" y="387" type="curve" smooth="yes"/>
      <point x="167" y="387"/>
      <point x="93" y="320"/>
      <point x="93" y="229" type="curve" smooth="yes"/>
      <point x="93" y="172"/>
      <point x="130" y="132"/>
      <point x="152" y="123" type="curve"/>
      <point x="86" y="123" type="line" smooth="yes"/>
      <point x="47" y="123"/>
      <point x="30" y="93"/>
      <point x="30" y="54" type="curve" smooth="yes"/>
      <point x="30" y="31"/>
      <point x="38" y="9"/>
      <point x="46" y="0" type="curve"/>
      <point x="379" y="0" type="line" smooth="yes"/>
      <point x="440" y="0"/>
      <point x="462" y="23"/>
      <point x="462" y="67" type="curve" smooth="yes"/>
      <point x="462" y="88"/>
      <point x="455" y="111"/>
      <point x="444" y="123" type="curve"/>
    </contour>
  </outline>
</glyph>
<glyph name="WawHamza.ur" format="1">
  <advance width="576"/>
  <unicode hex="0624"/>
  <outline>
    <contour>
      <point x="348" y="2" type="curve"/>
      <point x="325" y="-64"/>
      <point x="252" y="-100"/>
      <point x="138" y="-100" type="curve" smooth="yes"/>
      <point x="106" y="-100" type="line"/>
      <point x="97" y="-119"/>
      <point x="93" y="-138"/>
      <point x="93" y="-159" type="curve" smooth="yes"/>
      <point x="93" y="-203"/>
      <point x="111" y="-238"/>
      <point x="177" y="-238" type="curve" smooth="yes"/>
      <point x="360" y="-238"/>
      <point x="536" y="-141"/>
      <point x="536" y="162" type="curve" smooth="yes"/>
      <point x="536" y="356"/>
      <point x="444" y="463"/>
      <point x="289" y="463" type="curve" smooth="yes"/>
      <point x="147" y="463"/>
      <point x="39" y="371"/>
      <point x="39" y="214" type="curve" smooth="yes"/>
      <point x="39" y="64"/>
      <point x="150" y="0"/>
      <point x="299" y="0" type="curve" smooth="yes"/>
      <point x="310" y="0"/>
      <point x="330" y="1"/>
    </contour>
    <contour>
      <point x="344" y="590" type="line" smooth="yes"/>
      <point x="316" y="590"/>
      <point x="304" y="602"/>
      <point x="304" y="621" type="curve" smooth="yes"/>
      <point x="304" y="643"/>
      <point x="324" y="653"/>
      <point x="343" y="653" type="curve" smooth="yes"/>
      <point x="354" y="653"/>
      <point x="364" y="651"/>
      <point x="372" y="648" type="curve"/>
      <point x="380" y="656"/>
      <point x="383" y="669"/>
      <point x="383" y="679" type="curve" smooth="yes"/>
      <point x="383" y="707"/>
      <point x="361" y="729"/>
      <point x="310" y="729" type="curve" smooth="yes"/>
      <point x="245" y="729"/>
      <point x="200" y="696"/>
      <point x="200" y="646" type="curve" smooth="yes"/>
      <point x="200" y="615"/>
      <point x="218" y="598"/>
      <point x="230" y="590" type="curve"/>
      <point x="196" y="590" type="line" smooth="yes"/>
      <point x="172" y="590"/>
      <point x="161" y="571"/>
      <point x="161" y="547" type="curve" smooth="yes"/>
      <point x="161" y="533"/>
      <point x="166" y="519"/>
      <point x="171" y="513" type="curve"/>
      <point x="346" y="513" type="line" smooth="yes"/>
      <point x="384" y="513"/>
      <point x="398" y="527"/>
      <point x="398" y="555" type="curve" smooth="yes"/>
      <point x="398" y="568"/>
      <point x="393" y="582"/>
      <point x="387" y="590" type="curve"/>
    </contour>
    <contour>
      <point x="356" y="138" type="curve"/>
      <point x="340" y="135"/>
      <point x="333" y="134"/>
      <point x="319" y="134" type="curve" smooth="yes"/>
      <point x="250" y="134"/>
      <point x="215" y="159"/>
      <point x="215" y="221" type="curve" smooth="yes"/>
      <point x="215" y="287"/>
      <point x="248" y="317"/>
      <point x="292" y="317" type="curve" smooth="yes"/>
      <point x="328" y="317"/>
      <point x="360" y="294"/>
      <point x="360" y="185" type="curve" smooth="yes"/>
      <point x="360" y="168"/>
      <point x="358" y="151"/>
    </contour>
  </outline>
</glyph>
<glyph name="AlefHamzaBelow.ur" format="1">
  <advance width="276"/>
  <unicode hex="0625"/>
  <outline>
    <contour>
      <point x="226" y="531" type="line"/>
      <point x="226" y="596"/>
      <point x="185" y="608"/>
      <point x="130" y="608" type="curve" smooth="yes"/>
      <point x="100" y="608"/>
      <point x="65" y="602"/>
      <point x="50" y="600" type="curve"/>
      <point x="50" y="68" type="line" smooth="yes"/>
      <point x="50" y="5"/>
      <point x="89" y="-10"/>
      <point x="146" y="-10" type="curve" smooth="yes"/>
      <point x="176" y="-10"/>
      <point x="212" y="-4"/>
      <point x="226" y="0" type="curve"/>
    </contour>
    <contour>
      <point x="200" y="-183" type="line"/>
      <point x="170" y="-183"/>
      <point x="160" y="-169"/>
      <point x="160" y="-152" type="curve" smooth="yes"/>
      <point x="160" y="-130"/>
      <point x="180" y="-120"/>
      <point x="199" y="-120" type="curve" smooth="yes"/>
      <point x="210" y="-120"/>
      <point x="220" y="-122"/>
      <point x="228" y="-125" type="curve"/>
      <point x="236" y="-117"/>
      <point x="239" y="-104"/>
      <point x="239" y="-94" type="curve" smooth="yes"/>
      <point x="239" y="-66"/>
      <point x="217" y="-44"/>
      <point x="166" y="-44" type="curve" smooth="yes"/>
      <point x="101" y="-44"/>
      <point x="56" y="-77"/>
      <point x="56" y="-127" type="curve" smooth="yes"/>
      <point x="56" y="-158"/>
      <point x="74" y="-175"/>
      <point x="86" y="-183" type="curve"/>
      <point x="52" y="-183" type="line" smooth="yes"/>
      <point x="28" y="-183"/>
      <point x="17" y="-202"/>
      <point x="17" y="-226" type="curve" smooth="yes"/>
      <point x="17" y="-240"/>
      <point x="22" y="-254"/>
      <point x="27" y="-260" type="curve"/>
      <point x="202" y="-260" type="line" smooth="yes"/>
      <point x="240" y="-260"/>
      <point x="254" y="-246"/>
      <point x="254" y="-218" type="curve" smooth="yes"/>
      <point x="254" y="-205"/>
      <point x="249" y="-191"/>
      <point x="243" y="-183" type="curve"/>
    </contour>
  </outline>
</glyph>
<glyph name="Alef.ur" format="1">
  <advance width="276"/>
  <unicode hex="0627"/>
  <outline>
    <contour>
      <point x="226" y="531" type="line" smooth="yes"/>
      <point x="226" y="596"/>
      <point x="185" y="608"/>
      <point x="130" y="608" type="curve" smooth="yes"/>
      <point x="100" y="608"/>
      <point x="65" y="602"/>
      <point x="50" y="600" type="curve"/>
      <point x="50" y="68" type="line" smooth="yes"/>
      <point x="50" y="5"/>
      <point x="89" y="-10"/>
      <point x="146" y="-10" type="curve" smooth="yes"/>
      <point x="176" y="-10"/>
      <point x="212" y="-4"/>
      <point x="226" y="0" type="curve"/>
    </contour>
  </outline>
</glyph>
<glyph name="Teh.ur" format="1">
  <advance width="946"/>
  <unicode hex="062A"/>
  <outline>
    <contour>
      <point x="424" y="140" type="line"/>
      <point x="259" y="140"/>
      <point x="218" y="185"/>
      <point x="218" y="326" type="curve" smooth="yes"/>
      <point x="218" y="377" type="line"/>
      <point x="201" y="382"/>
      <point x="173" y="387"/>
      <point x="147" y="387" type="curve" smooth="yes"/>
      <point x="69" y="387"/>
      <point x="40" y="356"/>
      <point x="40" y="279" type="curve" smooth="yes"/>
      <point x="40" y="70"/>
      <point x="183" y="0"/>
      <point x="384" y="0" type="curve" smooth="yes"/>
      <point x="553" y="0" type="line" smooth="yes"/>
      <point x="809" y="0"/>
      <point x="906" y="102"/>
      <point x="906" y="289" type="curve" smooth="yes"/>
      <point x="906" y="409"/>
      <point x="871" y="429"/>
      <point x="798" y="429" type="curve" smooth="yes"/>
      <point x="772" y="429"/>
      <point x="747" y="425"/>
      <point x="722" y="419" type="curve"/>
      <point x="726" y="379"/>
      <point x="728" y="357"/>
      <point x="728" y="306" type="curve" smooth="yes"/>
      <point x="728" y="179"/>
      <point x="665" y="140"/>
      <point x="510" y="140" type="curve" smooth="yes"/>
    </contour>
    <contour>
      <point x="368" y="391" type="curve"/>
      <point x="418" y="391"/>
      <point x="448" y="424"/>
      <point x="448" y="467" type="curve" smooth="yes"/>
      <point x="448" y="512"/>
      <point x="414" y="544"/>
      <point x="368" y="544" type="curve" smooth="yes"/>
      <point x="323" y="544"/>
      <point x="288" y="512"/>
      <point x="288" y="467" type="curve" smooth="yes"/>
      <point x="288" y="424"/>
      <point x="320" y="391"/>
    </contour>
    <contour>
      <point x="557" y="391" type="curve"/>
      <point x="607" y="391"/>
      <point x="637" y="424"/>
      <point x="637" y="467" type="curve" smooth="yes"/>
      <point x="637" y="512"/>
      <point x="603" y="544"/>
      <point x="557" y="544" type="curve" smooth="yes"/>
      <point x="512" y="544"/>
      <point x="477" y="512"/>
      <point x="477" y="467" type="curve" smooth="yes"/>
      <point x="477" y="424"/>
      <point x="509" y="391"/>
    </contour>
  </outline>
</glyph>
<glyph name="Khah.ur" format="1">
  <advance width="606"/>
  <unicode hex="062E"/>
  <outline>
    <contour>
      <point x="20" y="-90" type="curve"/>
      <point x="20" y="-232"/>
      <point x="124" y="-310"/>
      <point x="267" y="-310" type="curve" smooth="yes"/>
      <point x="360" y="-310"/>
      <point x="387" y="-277"/>
      <point x="387" y="-228" type="curve" smooth="yes"/>
      <point x="387" y="-205"/>
      <point x="376" y="-178"/>
      <point x="366" y="-163" type="curve"/>
      <point x="346" y="-166"/>
      <point x="330" y="-168"/>
      <point x="304" y="-168" type="curve" smooth="yes"/>
      <point x="238" y="-168"/>
      <point x="202" y="-139"/>
      <point x="202" y="-88" type="curve" smooth="yes"/>
      <point x="202" y="-35"/>
      <point x="239" y="0"/>
      <point x="310" y="0" type="curve" smooth="yes"/>
      <point x="535" y="0" type="line"/>
      <point x="553" y="30"/>
      <point x="566" y="73"/>
      <point x="566" y="123" type="curve" smooth="yes"/>
      <point x="566" y="308"/>
      <point x="407" y="469"/>
      <point x="234" y="469" type="curve" smooth="yes"/>
      <point x="161" y="469"/>
      <point x="121" y="438"/>
      <point x="121" y="386" type="curve" smooth="yes"/>
      <point x="121" y="355"/>
      <point x="130" y="334"/>
      <point x="139" y="319" type="curve"/>
      <point x="161" y="319" type="line" smooth="yes"/>
      <point x="277" y="319"/>
      <point x="379" y="247"/>
      <point x="381" y="140" type="curve"/>
      <point x="296" y="140" type="line" smooth="yes"/>
      <point x="115" y="140"/>
      <point x="20" y="45"/>
    </contour>
    <contour>
      <point x="305" y="519" type="curve"/>
      <point x="356" y="519"/>
      <point x="387" y="552"/>
      <point x="387" y="595" type="curve" smooth="yes"/>
      <point x="387" y="640"/>
      <point x="352" y="672"/>
      <point x="305" y="672" type="curve" smooth="yes"/>
      <point x="259" y="672"/>
      <point x="223" y="640"/>
      <point x="223" y="595" type="curve" smooth="yes"/>
      <point x="223" y="552"/>
      <point x="256" y="519"/>
    </contour>
  </outline>
</glyph>
<glyph name="Dal.ur" format="1">
  <advance width="487"/>
  <unicode hex="062F"/>
  <outline>
    <contour>
      <point x="58" y="140" type="line"/>
      <point x="49" y="126"/>
      <point x="40" y="99"/>
      <point x="40" y="71" type="curve" smooth="yes"/>
      <point x="40" y="21"/>
      <point x="65" y="0"/>
      <point x="101" y="0" type="curve" smooth="yes"/>
      <point x="257" y="0" type="line" smooth="yes"/>
      <point x="397" y="0"/>
      <point x="447" y="61"/>
      <point x="447" y="168" type="curve" smooth="yes"/>
      <point x="447" y="226"/>
      <point x="416" y="333"/>
      <point x="341" y="415" type="curve" smooth="yes"/>
      <point x="320" y="438"/>
      <point x="293" y="450"/>
      <point x="266" y="450" type="curve" smooth="yes"/>
      <point x="228" y="450"/>
      <point x="190" y="427"/>
      <point x="165" y="386" type="curve"/>
      <point x="191" y="350"/>
      <point x="269" y="238"/>
      <point x="269" y="178" type="curve" smooth="yes"/>
      <point x="269" y="152"/>
      <point x="252" y="140"/>
      <point x="214" y="140" type="curve" smooth="yes"/>
    </contour>
  </outline>
</glyph>
<glyph name="Zeh.ur" format="1">
  <advance width="306"/>
  <unicode hex="0632"/>
  <outline>
    <contour>
      <point x="132" y="473" type="curve"/>
      <point x="183" y="473"/>
      <point x="214" y="506"/>
      <point x="214" y="549" type="curve" smooth="yes"/>
      <point x="214" y="594"/>
      <point x="179" y="626"/>
      <point x="132" y="626" type="curve" smooth="yes"/>
      <point x="86" y="626"/>
      <point x="50" y="594"/>
      <point x="50" y="549" type="curve" smooth="yes"/>
      <point x="50" y="506"/>
      <point x="83" y="473"/>
    </contour>
    <contour>
      <point x="-95" y="-101" type="curve"/>
      <point x="-104" y="-123"/>
      <point x="-108" y="-146"/>
      <point x="-108" y="-165" type="curve" smooth="yes"/>
      <point x="-108" y="-223"/>
      <point x="-73" y="-250"/>
      <point x="-14" y="-250" type="curve" smooth="yes"/>
      <point x="130" y="-250"/>
      <point x="256" y="-168"/>
      <point x="256" y="91" type="curve" smooth="yes"/>
      <point x="256" y="161"/>
      <point x="255" y="216"/>
      <point x="249" y="279" type="curve" smooth="yes"/>
      <point x="238" y="402"/>
      <point x="208" y="428"/>
      <point x="138" y="428" type="curve" smooth="yes"/>
      <point x="105" y="428"/>
      <point x="74" y="417"/>
      <point x="55" y="407" type="curve"/>
      <point x="65" y="347"/>
      <point x="77" y="212"/>
      <point x="77" y="89" type="curve" smooth="yes"/>
      <point x="77" y="-43"/>
      <point x="23" y="-102"/>
      <point x="-70" y="-102" type="curve" smooth="yes"/>
      <point x="-78" y="-102"/>
      <point x="-85" y="-102"/>
    </contour>
  </outline>
</glyph>
<glyph name="Sheen.ur" format="1">
  <advance width="1373"/>
  <unicode hex="0634"/>
  <outline>
    <contour>
      <point x="1001" y="449" type="curve"/>
      <point x="1050" y="449"/>
      <point x="1079" y="481"/>
      <point x="1079" y="523" type="curve" smooth="yes"/>
      <point x="1079" y="567"/>
      <point x="1046" y="598"/>
      <point x="1001" y="598" type="curve" smooth="yes"/>
      <point x="957" y="598"/>
      <point x="923" y="567"/>
      <point x="923" y="523" type="curve" smooth="yes"/>
      <point x="923" y="481"/>
      <point x="954" y="449"/>
    </contour>
    <contour>
      <point x="817" y="449" type="curve"/>
      <point x="866" y="449"/>
      <point x="895" y="481"/>
      <point x="895" y="523" type="curve" smooth="yes"/>
      <point x="895" y="567"/>
      <point x="862" y="598"/>
      <point x="817" y="598" type="curve" smooth="yes"/>
      <point x="773" y="598"/>
      <point x="739" y="567"/>
      <point x="739" y="523" type="curve" smooth="yes"/>
      <point x="739" y="481"/>
      <point x="770" y="449"/>
    </contour>
    <contour>
      <point x="908" y="600" type="curve"/>
      <point x="955" y="600"/>
      <point x="985" y="631"/>
      <point x="985" y="669" type="curve" smooth="yes"/>
      <point x="985" y="711"/>
      <point x="951" y="739"/>
      <point x="908" y="739" type="curve" smooth="yes"/>
      <point x="866" y="739"/>
      <point x="831" y="711"/>
      <point x="831" y="669" type="curve" smooth="yes"/>
      <point x="831" y="631"/>
      <point x="863" y="600"/>
    </contour>
    <contour>
      <point x="223" y="135" type="curve"/>
      <point x="223" y="164"/>
      <point x="224" y="237"/>
      <point x="225" y="263" type="curve"/>
      <point x="206" y="270"/>
      <point x="178" y="274"/>
      <point x="154" y="274" type="curve" smooth="yes"/>
      <point x="85" y="274"/>
      <point x="40" y="252"/>
      <point x="40" y="100" type="curve" smooth="yes"/>
      <point x="40" y="-134"/>
      <point x="158" y="-254"/>
      <point x="369" y="-254" type="curve" smooth="yes"/>
      <point x="557" y="-254"/>
      <point x="667" y="-180"/>
      <point x="693" y="8" type="curve"/>
      <point x="713" y="2"/>
      <point x="736" y="0"/>
      <point x="760" y="0" type="curve" smooth="yes"/>
      <point x="829" y="0"/>
      <point x="882" y="18"/>
      <point x="916" y="57" type="curve"/>
      <point x="944" y="27"/>
      <point x="1003" y="0"/>
      <point x="1076" y="0" type="curve" smooth="yes"/>
      <point x="1242" y="0"/>
      <point x="1323" y="103"/>
      <point x="1323" y="285" type="curve" smooth="yes"/>
      <point x="1323" y="430"/>
      <point x="1280" y="449"/>
      <point x="1216" y="449" type="curve" smooth="yes"/>
      <point x="1193" y="449"/>
      <point x="1163" y="446"/>
      <point x="1137" y="439" type="curve"/>
      <point x="1140" y="407"/>
      <point x="1143" y="354"/>
      <point x="1143" y="286" type="curve" smooth="yes"/>
      <point x="1143" y="194"/>
      <point x="1115" y="141"/>
      <point x="1055" y="141" type="curve" smooth="yes"/>
      <point x="1031" y="141"/>
      <point x="1005" y="149"/>
      <point x="994" y="164" type="curve"/>
      <point x="1003" y="199"/>
      <point x="1009" y="232"/>
      <point x="1009" y="279" type="curve" smooth="yes"/>
      <point x="1009" y="367"/>
      <point x="977" y="390"/>
      <point x="905" y="390" type="curve" smooth="yes"/>
      <point x="879" y="390"/>
      <point x="856" y="386"/>
      <point x="829" y="379" type="curve"/>
      <point x="831" y="352"/>
      <point x="832" y="307"/>
      <point x="832" y="276" type="curve" smooth="yes"/>
      <point x="832" y="175"/>
      <point x="797" y="140"/>
      <point x="740" y="140" type="curve" smooth="yes"/>
      <point x="726" y="140"/>
      <point x="710" y="142"/>
      <point x="699" y="149" type="curve"/>
      <point x="699" y="191"/>
      <point x="697" y="243"/>
      <point x="694" y="288" type="curve" smooth="yes"/>
      <point x="688" y="378"/>
      <point x="685" y="429"/>
      <point x="585" y="429" type="curve" smooth="yes"/>
      <point x="562" y="429"/>
      <point x="526" y="422"/>
      <point x="508" y="415" type="curve"/>
      <point x="515" y="355"/>
      <point x="520" y="201"/>
      <point x="520" y="85" type="curve" smooth="yes"/>
      <point x="520" y="-62"/>
      <point x="457" y="-102"/>
      <point x="378" y="-102" type="curve" smooth="yes"/>
      <point x="284" y="-102"/>
      <point x="223" y="-52"/>
    </contour>
  </outline>
</glyph>
<glyph name="Zoe.ur" format="1">
  <advance width="919"/>
  <unicode hex="0638"/>
  <outline>
    <contour>
      <point x="641" y="471" type="curve"/>
      <point x="532" y="471"/>
      <point x="439" y="435"/>
      <point x="343" y="356" type="curve"/>
      <point x="345" y="393"/>
      <point x="347" y="427"/>
      <point x="347" y="451" type="curve" smooth="yes"/>
      <point x="347" y="531" type="line" smooth="yes"/>
      <point x="347" y="596"/>
      <point x="306" y="608"/>
      <point x="251" y="608" type="curve" smooth="yes"/>
      <point x="221" y="608"/>
      <point x="186" y="602"/>
      <point x="171" y="600" type="curve"/>
      <point x="171" y="175" type="line"/>
      <point x="139" y="181"/>
      <point x="96" y="192"/>
      <point x="60" y="203" type="curve"/>
      <point x="47" y="188"/>
      <point x="30" y="153"/>
      <point x="30" y="123" type="curve" smooth="yes"/>
      <point x="30" y="76"/>
      <point x="49" y="54"/>
      <point x="116" y="37" type="curve" smooth="yes"/>
      <point x="180" y="21"/>
      <point x="313" y="0"/>
      <point x="426" y="0" type="curve" smooth="yes"/>
      <point x="723" y="0"/>
      <point x="879" y="98"/>
      <point x="879" y="262" type="curve" smooth="yes"/>
      <point x="879" y="393"/>
      <point x="780" y="471"/>
    </contour>
    <contour>
      <point x="696" y="258" type="curve"/>
      <point x="696" y="183"/>
      <point x="583" y="146"/>
      <point x="462" y="146" type="curve" smooth="yes"/>
      <point x="410" y="146"/>
      <point x="381" y="146"/>
      <point x="337" y="155" type="curve"/>
      <point x="409" y="251"/>
      <point x="520" y="324"/>
      <point x="608" y="324" type="curve" smooth="yes"/>
      <point x="656" y="324"/>
      <point x="696" y="306"/>
    </contour>
    <contour>
      <point x="577" y="520" type="curve"/>
      <point x="628" y="520"/>
      <point x="659" y="553"/>
      <point x="659" y="596" type="curve" smooth="yes"/>
      <point x="659" y="641"/>
      <point x="624" y="673"/>
      <point x="577" y="673" type="curve" smooth="yes"/>
      <point x="531" y="673"/>
      <point x="495" y="641"/>
      <point x="495" y="596" type="curve" smooth="yes"/>
      <point x="495" y="553"/>
      <point x="528" y="520"/>
    </contour>
  </outline>
</glyph>
<glyph name="Ain.ur" format="1">
  <advance width="573"/>
  <unicode hex="0639"/>
  <outline>
    <contour>
      <point x="554" y="-126" type="curve"/>
      <point x="532" y="-139"/>
      <point x="477" y="-167"/>
      <point x="407" y="-167" type="curve" smooth="yes"/>
      <point x="302" y="-167"/>
      <point x="249" y="-125"/>
      <point x="249" y="-57" type="curve" smooth="yes"/>
      <point x="249" y="14"/>
      <point x="304" y="41"/>
      <point x="377" y="55" type="curve" smooth="yes"/>
      <point x="463" y="72" type="line" smooth="yes"/>
      <point x="499" y="79"/>
      <point x="512" y="98"/>
      <point x="512" y="132" type="curve" smooth="yes"/>
      <point x="512" y="159"/>
      <point x="496" y="195"/>
      <point x="476" y="215" type="curve"/>
      <point x="423" y="204"/>
      <point x="366" y="193"/>
      <point x="341" y="193" type="curve" smooth="yes"/>
      <point x="285" y="193"/>
      <point x="250" y="223"/>
      <point x="250" y="272" type="curve" smooth="yes"/>
      <point x="250" y="326"/>
      <point x="296" y="352"/>
      <point x="338" y="352" type="curve" smooth="yes"/>
      <point x="366" y="352"/>
      <point x="395" y="346"/>
      <point x="417" y="335" type="curve"/>
      <point x="435" y="347"/>
      <point x="453" y="373"/>
      <point x="453" y="406" type="curve" smooth="yes"/>
      <point x="453" y="463"/>
      <point x="398" y="500"/>
      <point x="311" y="500" type="curve" smooth="yes"/>
      <point x="153" y="500"/>
      <point x="62" y="402"/>
      <point x="62" y="287" type="curve" smooth="yes"/>
      <point x="62" y="227"/>
      <point x="94" y="151"/>
      <point x="164" y="123" type="curve"/>
      <point x="104" y="93"/>
      <point x="50" y="24"/>
      <point x="50" y="-68" type="curve" smooth="yes"/>
      <point x="50" y="-225"/>
      <point x="191" y="-316"/>
      <point x="388" y="-316" type="curve" smooth="yes"/>
      <point x="467" y="-316"/>
      <point x="522" y="-299"/>
      <point x="553" y="-282" type="curve" smooth="yes"/>
      <point x="584" y="-265"/>
      <point x="593" y="-239"/>
      <point x="593" y="-211" type="curve" smooth="yes"/>
      <point x="593" y="-180"/>
      <point x="570" y="-141"/>
    </contour>
  </outline>
</glyph>
<glyph name="Lam.ur" format="1">
  <advance width="736"/>
  <unicode hex="0644"/>
  <outline>
    <contour>
      <point x="223" y="135" type="curve" smooth="yes"/>
      <point x="223" y="164"/>
      <point x="224" y="237"/>
      <point x="225" y="263" type="curve"/>
      <point x="206" y="270"/>
      <point x="178" y="274"/>
      <point x="154" y="274" type="curve" smooth="yes"/>
      <point x="85" y="274"/>
      <point x="40" y="252"/>
      <point x="40" y="100" type="curve" smooth="yes"/>
      <point x="40" y="-134"/>
      <point x="158" y="-254"/>
      <point x="369" y="-254" type="curve" smooth="yes"/>
      <point x="586" y="-254"/>
      <point x="696" y="-156"/>
      <point x="696" y="71" type="curve" smooth="yes"/>
      <point x="696" y="531" type="line" smooth="yes"/>
      <point x="696" y="596"/>
      <point x="655" y="608"/>
      <point x="600" y="608" type="curve" smooth="yes"/>
      <point x="570" y="608"/>
      <point x="535" y="602"/>
      <point x="520" y="600" type="curve"/>
      <point x="520" y="55" type="line" smooth="yes"/>
      <point x="520" y="-56"/>
      <point x="457" y="-102"/>
      <point x="378" y="-102" type="curve" smooth="yes"/>
      <point x="284" y="-102"/>
      <point x="223" y="-52"/>
    </contour>
  </outline>
</glyph>
<glyph name="Meem.ur" format="1">
  <advance width="622"/>
  <unicode hex="0645"/>
  <outline>
    <contour>
      <point x="40" y="-234" type="line"/>
      <point x="40" y="-297"/>
      <point x="79" y="-312"/>
      <point x="136" y="-312" type="curve" smooth="yes"/>
      <point x="166" y="-312"/>
      <point x="202" y="-306"/>
      <point x="216" y="-302" type="curve"/>
      <point x="216" y="-46" type="line" smooth="yes"/>
      <point x="216" y="15"/>
      <point x="242" y="44"/>
      <point x="310" y="44" type="curve" smooth="yes"/>
      <point x="556" y="44" type="line"/>
      <point x="574" y="61"/>
      <point x="582" y="101"/>
      <point x="582" y="122" type="curve" smooth="yes"/>
      <point x="582" y="162"/>
      <point x="571" y="188"/>
      <point x="543" y="237" type="curve" smooth="yes"/>
      <point x="445" y="407"/>
      <point x="355" y="466"/>
      <point x="239" y="466" type="curve" smooth="yes"/>
      <point x="195" y="466"/>
      <point x="147" y="452"/>
      <point x="122" y="435" type="curve" smooth="yes"/>
      <point x="94" y="416"/>
      <point x="84" y="394"/>
      <point x="84" y="367" type="curve" smooth="yes"/>
      <point x="84" y="333"/>
      <point x="105" y="308"/>
      <point x="133" y="289" type="curve"/>
      <point x="156" y="303"/>
      <point x="188" y="322"/>
      <point x="225" y="322" type="curve" smooth="yes"/>
      <point x="277" y="322"/>
      <point x="321" y="300"/>
      <point x="390" y="185" type="curve"/>
      <point x="264" y="185" type="line" smooth="yes"/>
      <point x="118" y="185"/>
      <point x="40" y="124"/>
      <point x="40" y="-38" type="curve" smooth="yes"/>
    </contour>
  </outline>
</glyph>
<glyph name="Waw.ur" format="1">
  <advance width="587"/>
  <unicode hex="0648"/>
  <outline>
    <contour>
      <point x="193" y="-249" type="curve" smooth="yes"/>
      <point x="375" y="-249"/>
      <point x="542" y="-129"/>
      <point x="542" y="162" type="curve" smooth="yes"/>
      <point x="542" y="356"/>
      <point x="450" y="463"/>
      <point x="295" y="463" type="curve" smooth="yes"/>
      <point x="153" y="463"/>
      <point x="45" y="371"/>
      <point x="45" y="214" type="curve" smooth="yes"/>
      <point x="45" y="64"/>
      <point x="156" y="0"/>
      <point x="305" y="0" type="curve" smooth="yes"/>
      <point x="316" y="0"/>
      <point x="336" y="1"/>
      <point x="354" y="2" type="curve"/>
      <point x="318" y="-64"/>
      <point x="227" y="-101"/>
      <point x="136" y="-101" type="curve" smooth="yes"/>
      <point x="128" y="-101"/>
      <point x="120" y="-101"/>
      <point x="112" y="-100" type="curve"/>
      <point x="103" y="-122"/>
      <point x="99" y="-143"/>
      <point x="99" y="-169" type="curve" smooth="yes"/>
      <point x="99" y="-210"/>
      <point x="124" y="-249"/>
    </contour>
    <contour>
      <point x="362" y="138" type="curve"/>
      <point x="346" y="135"/>
      <point x="339" y="134"/>
      <point x="325" y="134" type="curve" smooth="yes"/>
      <point x="256" y="134"/>
      <point x="221" y="159"/>
      <point x="221" y="221" type="curve" smooth="yes"/>
      <point x="221" y="287"/>
      <point x="254" y="317"/>
      <point x="298" y="317" type="curve" smooth="yes"/>
      <point x="334" y="317"/>
      <point x="366" y="294"/>
      <point x="366" y="185" type="curve" smooth="yes"/>
      <point x="366" y="168"/>
      <point x="364" y="151"/>
    </contour>
  </outline>
</glyph>
<glyph name="Yeh.ar" format="1">
  <advance width="871"/>
  <unicode hex="064A"/>
  <outline>
    <contour>
      <point x="223" y="135" type="curve" smooth="yes"/>
      <point x="223" y="164"/>
      <point x="224" y="237"/>
      <point x="225" y="263" type="curve"/>
      <point x="206" y="270"/>
      <point x="178" y="274"/>
      <point x="154" y="274" type="curve" smooth="yes"/>
      <point x="85" y="274"/>
      <point x="40" y="252"/>
      <point x="40" y="100" type="curve" smooth="yes"/>
      <point x="40" y="-185"/>
      <point x="208" y="-253"/>
      <point x="423" y="-253" type="curve" smooth="yes"/>
      <point x="671" y="-253"/>
      <point x="820" y="-160"/>
      <point x="820" y="-22" type="curve" smooth="yes"/>
      <point x="820" y="86"/>
      <point x="754" y="138"/>
      <point x="633" y="169" type="curve" smooth="yes"/>
      <point x="564" y="187" type="line"/>
      <point x="584" y="240"/>
      <point x="644" y="304"/>
      <point x="750" y="304" type="curve" smooth="yes"/>
      <point x="765" y="304"/>
      <point x="791" y="302"/>
      <point x="809" y="297" type="curve"/>
      <point x="821" y="313"/>
      <point x="831" y="340"/>
      <point x="831" y="369" type="curve" smooth="yes"/>
      <point x="831" y="422"/>
      <point x="790" y="452"/>
      <point x="714" y="452" type="curve" smooth="yes"/>
      <point x="518" y="452"/>
      <point x="382" y="290"/>
      <point x="382" y="141" type="curve" smooth="yes"/>
      <point x="382" y="94"/>
      <point x="399" y="69"/>
      <point x="456" y="53" type="curve" smooth="yes"/>
      <point x="572" y="21" type="line" smooth="yes"/>
      <point x="616" y="9"/>
      <point x="629" y="-3"/>
      <point x="629" y="-19" type="curve" smooth="yes"/>
      <point x="629" y="-59"/>
      <point x="559" y="-99"/>
      <point x="429" y="-99" type="curve" smooth="yes"/>
      <point x="279" y="-99"/>
      <point x="223" y="-62"/>
    </contour>
    <contour>
      <point x="368" y="-455" type="curve"/>
      <point x="418" y="-455"/>
      <point x="448" y="-422"/>
      <point x="448" y="-379" type="curve" smooth="yes"/>
      <point x="448" y="-334"/>
      <point x="414" y="-302"/>
      <point x="368" y="-302" type="curve" smooth="yes"/>
      <point x="323" y="-302"/>
      <point x="288" y="-334"/>
      <point x="288" y="-379" type="curve" smooth="yes"/>
      <point x="288" y="-422"/>
      <point x="320" y="-455"/>
    </contour>
    <contour>
      <point x="557" y="-455" type="curve"/>
      <point x="607" y="-455"/>
      <point x="637" y="-422"/>
      <point x="637" y="-379" type="curve" smooth="yes"/>
      <point x="637" y="-334"/>
      <point x="603" y="-302"/>
      <point x="557" y="-302" type="curve" smooth="yes"/>
      <point x="512" y="-302"/>
      <point x="477" y="-334"/>
      <point x="477" y="-379" type="curve" smooth="yes"/>
      <point x="477" y="-422"/>
      <point x="509" y="-455"/>
    </contour>
  </outline>
</glyph>
<glyph name="Dammatan.ur" format="1">
  <advance width="0"/>
  <unicode hex="064C"/>
  <outline>
    <contour>
      <point x="45" y="519" type="curve"/>
      <point x="37" y="528"/>
      <point x="34" y="541"/>
      <point x="34" y="551" type="curve" smooth="yes"/>
      <point x="34" y="572"/>
      <point x="46" y="581"/>
      <point x="60" y="581" type="curve" smooth="yes"/>
      <point x="74" y="581"/>
      <point x="82" y="570"/>
      <point x="82" y="555" type="curve"/>
      <point x="81" y="530"/>
      <point x="62" y="522"/>
    </contour>
    <contour>
      <point x="-122" y="539" type="curve"/>
      <point x="-117" y="539"/>
      <point x="-112" y="536"/>
      <point x="-112" y="522" type="curve" smooth="yes"/>
      <point x="-112" y="515"/>
      <point x="-113" y="501"/>
      <point x="-115" y="487" type="curve"/>
      <point x="-105" y="470"/>
      <point x="-89" y="452"/>
      <point x="-64" y="452" type="curve" smooth="yes"/>
      <point x="-40" y="452"/>
      <point x="5" y="456"/>
      <point x="35" y="462" type="curve" smooth="yes"/>
      <point x="100" y="475"/>
      <point x="140" y="502"/>
      <point x="140" y="556" type="curve" smooth="yes"/>
      <point x="140" y="597"/>
      <point x="116" y="635"/>
      <point x="58" y="635" type="curve" smooth="yes"/>
      <point x="9" y="635"/>
      <point x="-23" y="599"/>
      <point x="-23" y="549" type="curve" smooth="yes"/>
      <point x="-23" y="529"/>
      <point x="-18" y="518"/>
      <point x="-11" y="507" type="curve"/>
      <point x="-28" y="504"/>
      <point x="-49" y="502"/>
      <point x="-61" y="502" type="curve"/>
      <point x="-60" y="508"/>
      <point x="-60" y="514"/>
      <point x="-60" y="519" type="curve" smooth="yes"/>
      <point x="-60" y="556"/>
      <point x="-74" y="592"/>
      <point x="-119" y="592" type="curve" smooth="yes"/>
      <point x="-139" y="592"/>
      <point x="-165" y="580"/>
      <point x="-181" y="569" type="curve" smooth="yes"/>
      <point x="-191" y="562"/>
      <point x="-197" y="555"/>
      <point x="-197" y="545" type="curve" smooth="yes"/>
      <point x="-197" y="531"/>
      <point x="-188" y="520"/>
      <point x="-176" y="511" type="curve"/>
      <point x="-143" y="532"/>
      <point x="-128" y="539"/>
    </contour>
  </outline>
</glyph>
<glyph name="Zabar.ur" format="1">
  <advance width="0"/>
  <unicode hex="064E"/>
  <outline>
    <contour>
      <point x="87" y="480" type="line" smooth="yes"/>
      <point x="103" y="482"/>
      <point x="108" y="498"/>
      <point x="108" y="510" type="curve" smooth="yes"/>
      <point x="108" y="523"/>
      <point x="96" y="540"/>
      <point x="91" y="544" type="curve"/>
      <point x="-77" y="519" type="line"/>
      <point x="-88" y="518"/>
      <point x="-100" y="506"/>
      <point x="-100" y="491" type="curve" smooth="yes"/>
      <point x="-100" y="474"/>
      <point x="-89" y="461"/>
      <point x="-82" y="455" type="curve"/>
    </contour>
  </outline>
</glyph>
<glyph name="Sukun.ur" format="1">
  <advance width="0"/>
  <unicode hex="0652"/>
  <outline>
    <contour>
      <point x="-103" y="533" type="curve"/>
      <point x="-103" y="485"/>
      <point x="-62" y="449"/>
      <point x="-1" y="449" type="curve" smooth="yes"/>
      <point x="64" y="449"/>
      <point x="105" y="485"/>
      <point x="105" y="533" type="curve" smooth="yes"/>
      <point x="105" y="580"/>
      <point x="64" y="617"/>
      <point x="-1" y="617" type="curve" smooth="yes"/>
      <point x="-62" y="617"/>
      <point x="-103" y="580"/>
    </contour>
    <contour>
      <point x="-32" y="533" type="curve"/>
      <point x="-32" y="551"/>
      <point x="-17" y="562"/>
      <point x="0" y="562" type="curve" smooth="yes"/>
      <point x="18" y="562"/>
      <point x="32" y="551"/>
      <point x="32" y="533" type="curve" smooth="yes"/>
      <point x="32" y="514"/>
      <point x="18" y="503"/>
      <point x="0" y="503" type="curve" smooth="yes"/>
      <point x="-17" y="503"/>
      <point x="-32" y="514"/>
    </contour>
  </outline>
</glyph>
<glyph name="HamzaAbove.ur" format="1">
  <advance width="0"/>
  <unicode hex="0654"/>
  <outline>
    <contour>
      <point x="23" y="560" type="curve" smooth="yes"/>
      <point x="23" y="582"/>
      <point x="43" y="592"/>
      <point x="62" y="592" type="curve" smooth="yes"/>
      <point x="73" y="592"/>
      <point x="83" y="590"/>
      <point x="91" y="587" type="curve"/>
      <point x="99" y="595"/>
      <point x="102" y="608"/>
      <point x="102" y="618" type="curve" smooth="yes"/>
      <point x="102" y="646"/>
      <point x="80" y="668"/>
      <point x="29" y="668" type="curve" smooth="yes"/>
      <point x="-36" y="668"/>
      <point x="-81" y="635"/>
      <point x="-81" y="585" type="curve" smooth="yes"/>
      <point x="-81" y="554"/>
      <point x="-63" y="537"/>
      <point x="-51" y="529" type="curve"/>
      <point x="-85" y="529" type="line" smooth="yes"/>
      <point x="-109" y="529"/>
      <point x="-120" y="510"/>
      <point x="-120" y="486" type="curve" smooth="yes"/>
      <point x="-120" y="472"/>
      <point x="-115" y="458"/>
      <point x="-110" y="452" type="curve"/>
      <point x="65" y="452" type="line" smooth="yes"/>
      <point x="103" y="452"/>
      <point x="117" y="466"/>
      <point x="117" y="494" type="curve" smooth="yes"/>
      <point x="117" y="507"/>
      <point x="112" y="521"/>
      <point x="106" y="529" type="curve"/>
      <point x="59" y="529" type="line" smooth="yes"/>
      <point x="35" y="529"/>
      <point x="23" y="542"/>
    </contour>
  </outline>
</glyph>
<glyph name="HamzaBelow.ur" format="1">
  <advance width="0"/>
  <unicode hex="0655"/>
  <outline>
    <contour>
      <point x="33" y="-152" type="curve" smooth="yes"/>
      <point x="33" y="-130"/>
      <point x="53" y="-120"/>
      <point x="72" y="-120" type="curve" smooth="yes"/>
      <point x="83" y="-120"/>
      <point x="93" y="-122"/>
      <point x="101" y="-125" type="curve"/>
      <point x="109" y="-117"/>
      <point x="112" y="-104"/>
      <point x="112" y="-94" type="curve" smooth="yes"/>
      <point x="112" y="-66"/>
      <point x="90" y="-44"/>
      <point x="39" y="-44" type="curve" smooth="yes"/>
      <point x="-26" y="-44"/>
      <point x="-71" y="-77"/>
      <point x="-71" y="-127" type="curve" smooth="yes"/>
      <point x="-71" y="-158"/>
      <point x="-53" y="-175"/>
      <point x="-41" y="-183" type="curve"/>
      <point x="-75" y="-183" type="line" smooth="yes"/>
      <point x="-99" y="-183"/>
      <point x="-110" y="-202"/>
      <point x="-110" y="-226" type="curve" smooth="yes"/>
      <point x="-110" y="-240"/>
      <point x="-105" y="-254"/>
      <point x="-100" y="-260" type="curve"/>
      <point x="75" y="-260" type="line" smooth="yes"/>
      <point x="113" y="-260"/>
      <point x="127" y="-246"/>
      <point x="127" y="-218" type="curve" smooth="yes"/>
      <point x="127" y="-205"/>
      <point x="122" y="-191"/>
      <point x="116" y="-183" type="curve"/>
      <point x="67" y="-183" type="line"/>
      <point x="43" y="-181"/>
      <point x="33" y="-169"/>
    </contour>
  </outline>
</glyph>
<glyph name="AlefSubscript.ur" format="1">
  <advance width="0"/>
  <unicode hex="0656"/>
  <outline>
    <contour>
      <point x="47" y="-67" type="line" smooth="yes"/>
      <point x="47" y="-47"/>
      <point x="33" y="-43"/>
      <point x="17" y="-43" type="curve" smooth="yes"/>
      <point x="6" y="-43"/>
      <point x="-4" y="-45"/>
      <point x="-10" y="-45" type="curve"/>
      <point x="-10" y="-154" type="line" smooth="yes"/>
      <point x="-10" y="-173"/>
      <point x="3" y="-178"/>
      <point x="20" y="-178" type="curve" smooth="yes"/>
      <point x="31" y="-178"/>
      <point x="42" y="-176"/>
      <point x="47" y="-176" type="curve"/>
    </contour>
  </outline>
</glyph>
<glyph name="Five.ar" format="1">
  <advance width="800"/>
  <unicode hex="0665"/>
  <outline>
    <contour>
      <point x="401" y="626" type="curve" smooth="yes"/>
      <point x="390" y="626"/>
      <point x="365" y="620"/>
      <point x="339" y="610" type="curve" smooth="yes"/>
      <point x="180" y="547"/>
      <point x="35" y="387"/>
      <point x="35" y="203" type="curve" smooth="yes"/>
      <point x="35" y="83"/>
      <point x="102" y="-9"/>
      <point x="248" y="-9" type="curve" smooth="yes"/>
      <point x="320" y="-9"/>
      <point x="369" y="14"/>
      <point x="400" y="48" type="curve"/>
      <point x="428" y="17"/>
      <point x="479" y="-9"/>
      <point x="552" y="-9" type="curve" smooth="yes"/>
      <point x="705" y="-9"/>
      <point x="765" y="83"/>
      <point x="765" y="203" type="curve" smooth="yes"/>
      <point x="765" y="387"/>
      <point x="620" y="547"/>
      <point x="461" y="610" type="curve" smooth="yes"/>
      <point x="435" y="620"/>
      <point x="412" y="626"/>
    </contour>
    <contour>
      <point x="400" y="259" type="curve" smooth="yes"/>
      <point x="366" y="259"/>
      <point x="329" y="250"/>
      <point x="312" y="241" type="curve"/>
      <point x="312" y="171" type="line" smooth="yes"/>
      <point x="312" y="152"/>
      <point x="300" y="132"/>
      <point x="271" y="132" type="curve" smooth="yes"/>
      <point x="232" y="132"/>
      <point x="218" y="165"/>
      <point x="218" y="213" type="curve" smooth="yes"/>
      <point x="218" y="339"/>
      <point x="316" y="427"/>
      <point x="378" y="455" type="curve" smooth="yes"/>
      <point x="386" y="459"/>
      <point x="396" y="463"/>
      <point x="400" y="463" type="curve" smooth="yes"/>
      <point x="404" y="463"/>
      <point x="414" y="459"/>
      <point x="422" y="455" type="curve" smooth="yes"/>
      <point x="484" y="427"/>
      <point x="581" y="339"/>
      <point x="581" y="213" type="curve" smooth="yes"/>
      <point x="581" y="163"/>
      <point x="565" y="132"/>
      <point x="527" y="132" type="curve" smooth="yes"/>
      <point x="504" y="132"/>
      <point x="488" y="148"/>
      <point x="488" y="171" type="curve" smooth="yes"/>
      <point x="488" y="241" type="line"/>
      <point x="471" y="250"/>
      <point x="434" y="259"/>
    </contour>
  </outline>
</glyph>
<glyph name="Six.ar" format="1">
  <advance width="545"/>
  <unicode hex="0666"/>
  <outline>
    <contour>
      <point x="350" y="621" type="curve"/>
      <point x="314" y="593"/>
      <point x="271" y="577"/>
      <point x="203" y="577" type="curve" smooth="yes"/>
      <point x="129" y="577"/>
      <point x="84" y="606"/>
      <point x="62" y="616" type="curve"/>
      <point x="43" y="599"/>
      <point x="20" y="558"/>
      <point x="20" y="520" type="curve" smooth="yes"/>
      <point x="20" y="446"/>
      <point x="93" y="414"/>
      <point x="193" y="414" type="curve" smooth="yes"/>
      <point x="232" y="414"/>
      <point x="278" y="421"/>
      <point x="297" y="429" type="curve"/>
      <point x="297" y="71" type="line" smooth="yes"/>
      <point x="297" y="5"/>
      <point x="339" y="-10"/>
      <point x="398" y="-10" type="curve" smooth="yes"/>
      <point x="428" y="-10"/>
      <point x="467" y="-4"/>
      <point x="480" y="0" type="curve"/>
      <point x="480" y="546" type="line"/>
      <point x="468" y="591"/>
      <point x="409" y="621"/>
    </contour>
  </outline>
</glyph>
<glyph name="FivePointedStar.ar" format="1">
  <advance width="351"/>
  <unicode hex="066D"/>
  <outline>
    <contour>
      <point x="261" y="223" type="line"/>
      <point x="279" y="231" type="line" smooth="yes"/>
      <point x="308" y="243"/>
      <point x="326" y="250"/>
      <point x="326" y="282" type="curve" smooth="yes"/>
      <point x="326" y="310"/>
      <point x="307" y="331"/>
      <point x="285" y="341" type="curve"/>
      <point x="226" y="316" type="line"/>
      <point x="227" y="333"/>
      <point x="228" y="351"/>
      <point x="228" y="361" type="curve" smooth="yes"/>
      <point x="228" y="393"/>
      <point x="207" y="409"/>
      <point x="177" y="409" type="curve" smooth="yes"/>
      <point x="153" y="409"/>
      <point x="134" y="397"/>
      <point x="123" y="390" type="curve"/>
      <point x="123" y="318" type="line"/>
      <point x="108" y="323" type="line" smooth="yes"/>
      <point x="96" y="327"/>
      <point x="84" y="330"/>
      <point x="75" y="330" type="curve" smooth="yes"/>
      <point x="40" y="330"/>
      <point x="20" y="310"/>
      <point x="20" y="277" type="curve" smooth="yes"/>
      <point x="20" y="266"/>
      <point x="22" y="252"/>
      <point x="26" y="240" type="curve"/>
      <point x="87" y="223" type="line"/>
      <point x="72" y="204" type="line"/>
      <point x="58" y="186"/>
      <point x="50" y="172"/>
      <point x="50" y="156" type="curve" smooth="yes"/>
      <point x="50" y="126"/>
      <point x="73" y="107"/>
      <point x="117" y="107" type="curve"/>
      <point x="124" y="107"/>
      <point x="132" y="108"/>
      <point x="140" y="110" type="curve"/>
      <point x="178" y="167" type="line"/>
      <point x="186" y="153" type="line"/>
      <point x="200" y="128"/>
      <point x="213" y="107"/>
      <point x="245" y="107" type="curve" smooth="yes"/>
      <point x="276" y="107"/>
      <point x="298" y="128"/>
      <point x="307" y="157" type="curve"/>
    </contour>
  </outline>
</glyph>
<glyph name="Peh.ur" format="1">
  <advance width="946"/>
  <unicode hex="067E"/>
  <outline>
    <contour>
      <point x="424" y="140" type="line"/>
      <point x="259" y="140"/>
      <point x="218" y="185"/>
      <point x="218" y="326" type="curve" smooth="yes"/>
      <point x="218" y="377" type="line"/>
      <point x="201" y="382"/>
      <point x="173" y="387"/>
      <point x="147" y="387" type="curve" smooth="yes"/>
      <point x="69" y="387"/>
      <point x="40" y="356"/>
      <point x="40" y="279" type="curve" smooth="yes"/>
      <point x="40" y="70"/>
      <point x="183" y="0"/>
      <point x="384" y="0" type="curve" smooth="yes"/>
      <point x="553" y="0" type="line" smooth="yes"/>
      <point x="809" y="0"/>
      <point x="906" y="102"/>
      <point x="906" y="289" type="curve" smooth="yes"/>
      <point x="906" y="409"/>
      <point x="871" y="429"/>
      <point x="798" y="429" type="curve" smooth="yes"/>
      <point x="772" y="429"/>
      <point x="747" y="425"/>
      <point x="722" y="419" type="curve"/>
      <point x="726" y="379"/>
      <point x="728" y="357"/>
      <point x="728" y="306" type="curve" smooth="yes"/>
      <point x="728" y="179"/>
      <point x="665" y="140"/>
      <point x="510" y="140" type="curve" smooth="yes"/>
    </contour>
    <contour>
      <point x="552" y="-54" type="curve"/>
      <point x="503" y="-54"/>
      <point x="474" y="-86"/>
      <point x="474" y="-128" type="curve" smooth="yes"/>
      <point x="474" y="-172"/>
      <point x="507" y="-203"/>
      <point x="552" y="-203" type="curve" smooth="yes"/>
      <point x="596" y="-203"/>
      <point x="630" y="-172"/>
      <point x="630" y="-128" type="curve" smooth="yes"/>
      <point x="630" y="-86"/>
      <point x="599" y="-54"/>
    </contour>
    <contour>
      <point x="368" y="-54" type="curve"/>
      <point x="319" y="-54"/>
      <point x="290" y="-86"/>
      <point x="290" y="-128" type="curve" smooth="yes"/>
      <point x="290" y="-172"/>
      <point x="323" y="-203"/>
      <point x="368" y="-203" type="curve" smooth="yes"/>
      <point x="412" y="-203"/>
      <point x="446" y="-172"/>
      <point x="446" y="-128" type="curve" smooth="yes"/>
      <point x="446" y="-86"/>
      <point x="415" y="-54"/>
    </contour>
    <contour>
      <point x="461" y="-205" type="curve"/>
      <point x="414" y="-205"/>
      <point x="384" y="-236"/>
      <point x="384" y="-274" type="curve" smooth="yes"/>
      <point x="384" y="-316"/>
      <point x="418" y="-344"/>
      <point x="461" y="-344" type="curve" smooth="yes"/>
      <point x="503" y="-344"/>
      <point x="538" y="-316"/>
      <point x="538" y="-274" type="curve" smooth="yes"/>
      <point x="538" y="-236"/>
      <point x="506" y="-205"/>
    </contour>
  </outline>
</glyph>
<glyph name="Ddal.ur" format="1">
  <advance width="487"/>
  <unicode hex="0688"/>
  <outline>
    <contour>
      <point x="58" y="140" type="line"/>
      <point x="49" y="126"/>
      <point x="40" y="99"/>
      <point x="40" y="71" type="curve" smooth="yes"/>
      <point x="40" y="21"/>
      <point x="65" y="0"/>
      <point x="101" y="0" type="curve" smooth="yes"/>
      <point x="257" y="0" type="line" smooth="yes"/>
      <point x="397" y="0"/>
      <point x="447" y="61"/>
      <point x="447" y="168" type="curve" smooth="yes"/>
      <point x="447" y="226"/>
      <point x="416" y="333"/>
      <point x="341" y="415" type="curve" smooth="yes"/>
      <point x="320" y="438"/>
      <point x="293" y="450"/>
      <point x="266" y="450" type="curve" smooth="yes"/>
      <point x="228" y="450"/>
      <point x="190" y="427"/>
      <point x="165" y="386" type="curve"/>
      <point x="191" y="350"/>
      <point x="269" y="238"/>
      <point x="269" y="178" type="curve" smooth="yes"/>
      <point x="269" y="152"/>
      <point x="252" y="140"/>
      <point x="214" y="140" type="curve" smooth="yes"/>
    </contour>
    <contour>
      <point x="138" y="595" type="curve"/>
      <point x="121" y="597"/>
      <point x="105" y="600"/>
      <point x="96" y="602" type="curve"/>
      <point x="89" y="592"/>
      <point x="83" y="574"/>
      <point x="83" y="560" type="curve" smooth="yes"/>
      <point x="83" y="528"/>
      <point x="98" y="522"/>
      <point x="117" y="515" type="curve" smooth="yes"/>
      <point x="147" y="504"/>
      <point x="212" y="496"/>
      <point x="244" y="496" type="curve" smooth="yes"/>
      <point x="355" y="496"/>
      <point x="414" y="535"/>
      <point x="414" y="603" type="curve" smooth="yes"/>
      <point x="414" y="655"/>
      <point x="374" y="694"/>
      <point x="317" y="694" type="curve" smooth="yes"/>
      <point x="286" y="694"/>
      <point x="262" y="689"/>
      <point x="236" y="674" type="curve"/>
      <point x="236" y="716" type="line" smooth="yes"/>
      <point x="236" y="753"/>
      <point x="204" y="759"/>
      <point x="178" y="759" type="curve" smooth="yes"/>
      <point x="164" y="759"/>
      <point x="154" y="758"/>
      <point x="139" y="755" type="curve"/>
      <point x="139" y="748"/>
    </contour>
    <contour>
      <point x="315" y="601" type="curve"/>
      <point x="315" y="583"/>
      <point x="288" y="575"/>
      <point x="248" y="575" type="curve" smooth="yes"/>
      <point x="240" y="575"/>
      <point x="227" y="576"/>
      <point x="221" y="576" type="curve"/>
      <point x="236" y="599"/>
      <point x="266" y="618"/>
      <point x="292" y="618" type="curve" smooth="yes"/>
      <point x="306" y="618"/>
      <point x="315" y="613"/>
    </contour>
  </outline>
</glyph>
<glyph name="Rreh.ur" format="1">
  <advance width="318"/>
  <unicode hex="0691"/>
  <outline>
    <contour>
      <point x="37" y="577" type="curve"/>
      <point x="20" y="579"/>
      <point x="4" y="582"/>
      <point x="-5" y="584" type="curve"/>
      <point x="-12" y="574"/>
      <point x="-18" y="556"/>
      <point x="-18" y="542" type="curve" smooth="yes"/>
      <point x="-18" y="510"/>
      <point x="-3" y="504"/>
      <point x="16" y="497" type="curve" smooth="yes"/>
      <point x="46" y="486"/>
      <point x="111" y="478"/>
      <point x="143" y="478" type="curve" smooth="yes"/>
      <point x="254" y="478"/>
      <point x="313" y="517"/>
      <point x="313" y="585" type="curve" smooth="yes"/>
      <point x="313" y="637"/>
      <point x="273" y="676"/>
      <point x="216" y="676" type="curve" smooth="yes"/>
      <point x="185" y="676"/>
      <point x="161" y="671"/>
      <point x="135" y="656" type="curve"/>
      <point x="135" y="698" type="line" smooth="yes"/>
      <point x="135" y="735"/>
      <point x="103" y="741"/>
      <point x="77" y="741" type="curve" smooth="yes"/>
      <point x="63" y="741"/>
      <point x="53" y="740"/>
      <point x="38" y="737" type="curve"/>
      <point x="38" y="730"/>
    </contour>
    <contour>
      <point x="214" y="583" type="curve" smooth="yes"/>
      <point x="214" y="565"/>
      <point x="187" y="557"/>
      <point x="147" y="557" type="curve" smooth="yes"/>
      <point x="139" y="557"/>
      <point x="126" y="558"/>
      <point x="120" y="558" type="curve"/>
      <point x="135" y="581"/>
      <point x="165" y="600"/>
      <point x="191" y="600" type="curve" smooth="yes"/>
      <point x="205" y="600"/>
      <point x="214" y="595"/>
    </contour>
    <contour>
      <point x="-86" y="-101" type="curve"/>
      <point x="-95" y="-123"/>
      <point x="-99" y="-146"/>
      <point x="-99" y="-165" type="curve" smooth="yes"/>
      <point x="-99" y="-223"/>
      <point x="-64" y="-250"/>
      <point x="-5" y="-250" type="curve" smooth="yes"/>
      <point x="139" y="-250"/>
      <point x="265" y="-168"/>
      <point x="265" y="91" type="curve" smooth="yes"/>
      <point x="265" y="161"/>
      <point x="264" y="216"/>
      <point x="258" y="279" type="curve" smooth="yes"/>
      <point x="247" y="402"/>
      <point x="217" y="428"/>
      <point x="147" y="428" type="curve" smooth="yes"/>
      <point x="114" y="428"/>
      <point x="83" y="417"/>
      <point x="64" y="407" type="curve"/>
      <point x="74" y="347"/>
      <point x="86" y="212"/>
      <point x="86" y="89" type="curve" smooth="yes"/>
      <point x="86" y="-43"/>
      <point x="32" y="-102"/>
      <point x="-61" y="-102" type="curve" smooth="yes"/>
      <point x="-69" y="-102"/>
      <point x="-76" y="-102"/>
    </contour>
  </outline>
</glyph>
<glyph name="Jeh.ur" format="1">
  <advance width="316"/>
  <unicode hex="0698"/>
  <outline>
    <contour>
      <point x="55" y="473" type="curve"/>
      <point x="104" y="473"/>
      <point x="133" y="505"/>
      <point x="133" y="547" type="curve" smooth="yes"/>
      <point x="133" y="591"/>
      <point x="100" y="622"/>
      <point x="55" y="622" type="curve" smooth="yes"/>
      <point x="11" y="622"/>
      <point x="-23" y="591"/>
      <point x="-23" y="547" type="curve" smooth="yes"/>
      <point x="-23" y="505"/>
      <point x="8" y="473"/>
    </contour>
    <contour>
      <point x="239" y="473" type="curve"/>
      <point x="288" y="473"/>
      <point x="317" y="505"/>
      <point x="317" y="547" type="curve" smooth="yes"/>
      <point x="317" y="591"/>
      <point x="284" y="622"/>
      <point x="239" y="622" type="curve" smooth="yes"/>
      <point x="195" y="622"/>
      <point x="161" y="591"/>
      <point x="161" y="547" type="curve" smooth="yes"/>
      <point x="161" y="505"/>
      <point x="192" y="473"/>
    </contour>
    <contour>
      <point x="146" y="624" type="curve"/>
      <point x="193" y="624"/>
      <point x="223" y="655"/>
      <point x="223" y="693" type="curve" smooth="yes"/>
      <point x="223" y="735"/>
      <point x="189" y="763"/>
      <point x="146" y="763" type="curve" smooth="yes"/>
      <point x="104" y="763"/>
      <point x="69" y="735"/>
      <point x="69" y="693" type="curve" smooth="yes"/>
      <point x="69" y="655"/>
      <point x="101" y="624"/>
    </contour>
    <contour>
      <point x="-86" y="-101" type="curve"/>
      <point x="-95" y="-123"/>
      <point x="-99" y="-146"/>
      <point x="-99" y="-165" type="curve" smooth="yes"/>
      <point x="-99" y="-223"/>
      <point x="-64" y="-250"/>
      <point x="-5" y="-250" type="curve" smooth="yes"/>
      <point x="139" y="-250"/>
      <point x="265" y="-168"/>
      <point x="265" y="91" type="curve" smooth="yes"/>
      <point x="265" y="161"/>
      <point x="264" y="216"/>
      <point x="258" y="279" type="curve" smooth="yes"/>
      <point x="247" y="402"/>
      <point x="217" y="428"/>
      <point x="147" y="428" type="curve" smooth="yes"/>
      <point x="114" y="428"/>
      <point x="83" y="417"/>
      <point x="64" y="407" type="curve"/>
      <point x="74" y="347"/>
      <point x="86" y="212"/>
      <point x="86" y="89" type="curve" smooth="yes"/>
      <point x="86" y="-43"/>
      <point x="32" y="-102"/>
      <point x="-61" y="-102" type="curve" smooth="yes"/>
      <point x="-69" y="-102"/>
      <point x="-76" y="-102"/>
    </contour>
  </outline>
</glyph>
<glyph name="Veh.ar" format="1">
  <advance width="995"/>
  <unicode hex="06A4"/>
  <outline>
    <contour>
      <point x="465" y="216" type="curve"/>
      <point x="465" y="192"/>
      <point x="466" y="167"/>
      <point x="471" y="140" type="curve"/>
      <point x="424" y="140" type="line" smooth="yes"/>
      <point x="259" y="140"/>
      <point x="218" y="185"/>
      <point x="218" y="326" type="curve" smooth="yes"/>
      <point x="218" y="373" type="line"/>
      <point x="203" y="380"/>
      <point x="172" y="387"/>
      <point x="140" y="387" type="curve" smooth="yes"/>
      <point x="57" y="387"/>
      <point x="40" y="356"/>
      <point x="40" y="279" type="curve" smooth="yes"/>
      <point x="40" y="70"/>
      <point x="183" y="0"/>
      <point x="384" y="0" type="curve" smooth="yes"/>
      <point x="678" y="0" type="line" smooth="yes"/>
      <point x="851" y="0"/>
      <point x="955" y="76"/>
      <point x="955" y="234" type="curve" smooth="yes"/>
      <point x="955" y="377"/>
      <point x="855" y="463"/>
      <point x="715" y="463" type="curve" smooth="yes"/>
      <point x="583" y="463"/>
      <point x="465" y="394"/>
    </contour>
    <contour>
      <point x="776" y="236" type="curve"/>
      <point x="776" y="174"/>
      <point x="740" y="139"/>
      <point x="682" y="139" type="curve" smooth="yes"/>
      <point x="645" y="139" type="line"/>
      <point x="642" y="161"/>
      <point x="640" y="182"/>
      <point x="640" y="207" type="curve" smooth="yes"/>
      <point x="640" y="290"/>
      <point x="672" y="317"/>
      <point x="714" y="317" type="curve" smooth="yes"/>
      <point x="746" y="317"/>
      <point x="776" y="298"/>
    </contour>
    <contour>
      <point x="800" y="513" type="curve"/>
      <point x="849" y="513"/>
      <point x="878" y="545"/>
      <point x="878" y="587" type="curve" smooth="yes"/>
      <point x="878" y="631"/>
      <point x="845" y="662"/>
      <point x="800" y="662" type="curve" smooth="yes"/>
      <point x="756" y="662"/>
      <point x="722" y="631"/>
      <point x="722" y="587" type="curve" smooth="yes"/>
      <point x="722" y="545"/>
      <point x="753" y="513"/>
    </contour>
    <contour>
      <point x="616" y="513" type="curve"/>
      <point x="665" y="513"/>
      <point x="694" y="545"/>
      <point x="694" y="587" type="curve" smooth="yes"/>
      <point x="694" y="631"/>
      <point x="661" y="662"/>
      <point x="616" y="662" type="curve" smooth="yes"/>
      <point x="572" y="662"/>
      <point x="538" y="631"/>
      <point x="538" y="587" type="curve" smooth="yes"/>
      <point x="538" y="545"/>
      <point x="569" y="513"/>
    </contour>
    <contour>
      <point x="707" y="664" type="curve"/>
      <point x="754" y="664"/>
      <point x="784" y="695"/>
      <point x="784" y="733" type="curve" smooth="yes"/>
      <point x="784" y="775"/>
      <point x="750" y="803"/>
      <point x="707" y="803" type="curve" smooth="yes"/>
      <point x="665" y="803"/>
      <point x="630" y="775"/>
      <point x="630" y="733" type="curve" smooth="yes"/>
      <point x="630" y="695"/>
      <point x="662" y="664"/>
    </contour>
  </outline>
</glyph>
<glyph name="Kaf.ur" format="1">
  <advance width="935"/>
  <unicode hex="06A9"/>
  <outline>
    <contour>
      <point x="436" y="140" type="line"/>
      <point x="281" y="140"/>
      <point x="218" y="179"/>
      <point x="218" y="306" type="curve" smooth="yes"/>
      <point x="218" y="357"/>
      <point x="220" y="379"/>
      <point x="224" y="419" type="curve"/>
      <point x="199" y="425"/>
      <point x="174" y="429"/>
      <point x="148" y="429" type="curve" smooth="yes"/>
      <point x="75" y="429"/>
      <point x="40" y="409"/>
      <point x="40" y="289" type="curve" smooth="yes"/>
      <point x="40" y="102"/>
      <point x="137" y="0"/>
      <point x="393" y="0" type="curve" smooth="yes"/>
      <point x="648" y="0" type="line" smooth="yes"/>
      <point x="817" y="0"/>
      <point x="895" y="79"/>
      <point x="895" y="192" type="curve" smooth="yes"/>
      <point x="895" y="310"/>
      <point x="802" y="358"/>
      <point x="699" y="401" type="curve" smooth="yes"/>
      <point x="625" y="432" type="line"/>
      <point x="823" y="533" type="line" smooth="yes"/>
      <point x="856" y="550"/>
      <point x="865" y="566"/>
      <point x="865" y="593" type="curve" smooth="yes"/>
      <point x="865" y="639"/>
      <point x="827" y="683"/>
      <point x="788" y="700" type="curve"/>
      <point x="435" y="483" type="line"/>
      <point x="431" y="467"/>
      <point x="429" y="446"/>
      <point x="429" y="428" type="curve" smooth="yes"/>
      <point x="429" y="402"/>
      <point x="435" y="363"/>
      <point x="444" y="349" type="curve"/>
      <point x="640" y="262" type="line" smooth="yes"/>
      <point x="693" y="238"/>
      <point x="709" y="225"/>
      <point x="709" y="194" type="curve" smooth="yes"/>
      <point x="709" y="163"/>
      <point x="683" y="140"/>
      <point x="637" y="140" type="curve" smooth="yes"/>
    </contour>
  </outline>
</glyph>
<glyph name="Gaf.ur" format="1">
  <advance width="935"/>
  <unicode hex="06AF"/>
  <outline>
    <contour>
      <point x="648" y="0" type="line"/>
      <point x="817" y="0"/>
      <point x="895" y="79"/>
      <point x="895" y="192" type="curve" smooth="yes"/>
      <point x="895" y="310"/>
      <point x="802" y="358"/>
      <point x="699" y="401" type="curve" smooth="yes"/>
      <point x="625" y="432" type="line"/>
      <point x="823" y="533" type="line" smooth="yes"/>
      <point x="856" y="550"/>
      <point x="865" y="566"/>
      <point x="865" y="593" type="curve" smooth="yes"/>
      <point x="865" y="639"/>
      <point x="827" y="683"/>
      <point x="788" y="700" type="curve"/>
      <point x="435" y="483" type="line"/>
      <point x="431" y="467"/>
      <point x="429" y="446"/>
      <point x="429" y="428" type="curve" smooth="yes"/>
      <point x="429" y="402"/>
      <point x="435" y="363"/>
      <point x="444" y="349" type="curve"/>
      <point x="640" y="262" type="line" smooth="yes"/>
      <point x="693" y="238"/>
      <point x="709" y="225"/>
      <point x="709" y="194" type="curve" smooth="yes"/>
      <point x="709" y="163"/>
      <point x="683" y="140"/>
      <point x="637" y="140" type="curve" smooth="yes"/>
      <point x="436" y="140" type="line" smooth="yes"/>
      <point x="281" y="140"/>
      <point x="218" y="179"/>
      <point x="218" y="306" type="curve" smooth="yes"/>
      <point x="218" y="357"/>
      <point x="220" y="379"/>
      <point x="224" y="419" type="curve"/>
      <point x="199" y="425"/>
      <point x="174" y="429"/>
      <point x="148" y="429" type="curve" smooth="yes"/>
      <point x="75" y="429"/>
      <point x="40" y="409"/>
      <point x="40" y="289" type="curve" smooth="yes"/>
      <point x="40" y="102"/>
      <point x="137" y="0"/>
      <point x="393" y="0" type="curve" smooth="yes"/>
    </contour>
    <contour>
      <point x="399" y="658" type="line"/>
      <point x="375" y="643"/>
      <point x="362" y="627"/>
      <point x="362" y="605" type="curve" smooth="yes"/>
      <point x="362" y="580"/>
      <point x="377" y="555"/>
      <point x="407" y="537" type="curve"/>
      <point x="675" y="696" type="line" smooth="yes"/>
      <point x="704" y="713"/>
      <point x="718" y="726"/>
      <point x="718" y="748" type="curve" smooth="yes"/>
      <point x="718" y="778"/>
      <point x="690" y="805"/>
      <point x="663" y="819" type="curve"/>
    </contour>
  </outline>
</glyph>
<glyph name="NoonGhunnah.ur" format="1">
  <advance width="749"/>
  <unicode hex="06BA"/>
  <outline>
    <contour>
      <point x="223" y="135" type="curve" smooth="yes"/>
      <point x="223" y="164"/>
      <point x="224" y="237"/>
      <point x="225" y="263" type="curve"/>
      <point x="206" y="270"/>
      <point x="178" y="274"/>
      <point x="154" y="274" type="curve" smooth="yes"/>
      <point x="85" y="274"/>
      <point x="40" y="252"/>
      <point x="40" y="100" type="curve" smooth="yes"/>
      <point x="40" y="-134"/>
      <point x="158" y="-254"/>
      <point x="369" y="-254" type="curve" smooth="yes"/>
      <point x="586" y="-254"/>
      <point x="699" y="-156"/>
      <point x="699" y="101" type="curve" smooth="yes"/>
      <point x="699" y="144"/>
      <point x="698" y="224"/>
      <point x="694" y="288" type="curve" smooth="yes"/>
      <point x="688" y="378"/>
      <point x="685" y="429"/>
      <point x="585" y="429" type="curve" smooth="yes"/>
      <point x="562" y="429"/>
      <point x="526" y="422"/>
      <point x="508" y="415" type="curve"/>
      <point x="515" y="355"/>
      <point x="520" y="201"/>
      <point x="520" y="85" type="curve" smooth="yes"/>
      <point x="520" y="-62"/>
      <point x="457" y="-102"/>
      <point x="378" y="-102" type="curve" smooth="yes"/>
      <point x="284" y="-102"/>
      <point x="223" y="-52"/>
    </contour>
  </outline>
</glyph>
<glyph name="HehGoal.ur" format="1">
  <advance width="583"/>
  <unicode hex="06C1"/>
  <outline>
    <contour>
      <point x="326" y="316" type="curve"/>
      <point x="348" y="294"/>
      <point x="368" y="247"/>
      <point x="368" y="213" type="curve" smooth="yes"/>
      <point x="368" y="164"/>
      <point x="337" y="139"/>
      <point x="292" y="139" type="curve" smooth="yes"/>
      <point x="249" y="139"/>
      <point x="216" y="165"/>
      <point x="216" y="213" type="curve" smooth="yes"/>
      <point x="216" y="275"/>
      <point x="270" y="316"/>
    </contour>
    <contour>
      <point x="383" y="461" type="curve"/>
      <point x="368" y="462"/>
      <point x="347" y="462"/>
      <point x="339" y="462" type="curve" smooth="yes"/>
      <point x="189" y="462"/>
      <point x="40" y="376"/>
      <point x="40" y="209" type="curve" smooth="yes"/>
      <point x="40" y="63"/>
      <point x="156" y="-7"/>
      <point x="286" y="-7" type="curve" smooth="yes"/>
      <point x="441" y="-7"/>
      <point x="543" y="73"/>
      <point x="543" y="211" type="curve" smooth="yes"/>
      <point x="543" y="333"/>
      <point x="463" y="421"/>
    </contour>
  </outline>
</glyph>
<glyph name="HehGoalHamzaAbove.ur" format="1">
  <advance width="583"/>
  <unicode hex="06C2"/>
  <outline>
    <contour>
      <point x="383" y="461" type="curve"/>
      <point x="368" y="462"/>
      <point x="347" y="462"/>
      <point x="339" y="462" type="curve" smooth="yes"/>
      <point x="189" y="462"/>
      <point x="40" y="376"/>
      <point x="40" y="209" type="curve" smooth="yes"/>
      <point x="40" y="63"/>
      <point x="156" y="-7"/>
      <point x="286" y="-7" type="curve" smooth="yes"/>
      <point x="441" y="-7"/>
      <point x="543" y="73"/>
      <point x="543" y="211" type="curve" smooth="yes"/>
      <point x="543" y="333"/>
      <point x="463" y="421"/>
    </contour>
    <contour>
      <point x="375" y="585" type="line" smooth="yes"/>
      <point x="347" y="585"/>
      <point x="335" y="597"/>
      <point x="335" y="616" type="curve" smooth="yes"/>
      <point x="335" y="638"/>
      <point x="355" y="648"/>
      <point x="374" y="648" type="curve" smooth="yes"/>
      <point x="385" y="648"/>
      <point x="395" y="646"/>
      <point x="403" y="643" type="curve"/>
      <point x="411" y="651"/>
      <point x="414" y="664"/>
      <point x="414" y="674" type="curve" smooth="yes"/>
      <point x="414" y="702"/>
      <point x="392" y="724"/>
      <point x="341" y="724" type="curve" smooth="yes"/>
      <point x="276" y="724"/>
      <point x="231" y="691"/>
      <point x="231" y="641" type="curve" smooth="yes"/>
      <point x="231" y="610"/>
      <point x="249" y="593"/>
      <point x="261" y="585" type="curve"/>
      <point x="227" y="585" type="line" smooth="yes"/>
      <point x="203" y="585"/>
      <point x="192" y="566"/>
      <point x="192" y="542" type="curve" smooth="yes"/>
      <point x="192" y="528"/>
      <point x="197" y="514"/>
      <point x="202" y="508" type="curve"/>
      <point x="377" y="508" type="line" smooth="yes"/>
      <point x="415" y="508"/>
      <point x="429" y="522"/>
      <point x="429" y="550" type="curve" smooth="yes"/>
      <point x="429" y="563"/>
      <point x="424" y="577"/>
      <point x="418" y="585" type="curve"/>
    </contour>
    <contour>
      <point x="326" y="316" type="curve"/>
      <point x="348" y="294"/>
      <point x="368" y="247"/>
      <point x="368" y="213" type="curve" smooth="yes"/>
      <point x="368" y="164"/>
      <point x="337" y="139"/>
      <point x="292" y="139" type="curve" smooth="yes"/>
      <point x="249" y="139"/>
      <point x="216" y="165"/>
      <point x="216" y="213" type="curve" smooth="yes"/>
      <point x="216" y="275"/>
      <point x="270" y="316"/>
    </contour>
  </outline>
</glyph>
<glyph name="Fullstop.ur" format="1">
  <advance width="368"/>
  <unicode hex="06D4"/>
  <outline>
    <contour>
      <point x="89" y="25" type="curve" smooth="yes"/>
      <point x="124" y="11"/>
      <point x="176" y="0"/>
      <point x="240" y="0" type="curve" smooth="yes"/>
      <point x="302" y="0"/>
      <point x="338" y="28"/>
      <point x="338" y="70" type="curve" smooth="yes"/>
      <point x="338" y="103"/>
      <point x="325" y="132"/>
      <point x="313" y="149" type="curve"/>
      <point x="259" y="146"/>
      <point x="208" y="146"/>
      <point x="158" y="146" type="curve" smooth="yes"/>
      <point x="134" y="146"/>
      <point x="73" y="146"/>
      <point x="49" y="148" type="curve"/>
      <point x="43" y="136"/>
      <point x="40" y="122"/>
      <point x="40" y="108" type="curve" smooth="yes"/>
      <point x="40" y="70"/>
      <point x="53" y="39"/>
    </contour>
  </outline>
</glyph>
<glyph name="Eight.ur" format="1">
  <advance width="713"/>
  <unicode hex="06F8"/>
  <outline>
    <contour>
      <point x="466" y="594" type="curve"/>
      <point x="433" y="613"/>
      <point x="400" y="620"/>
      <point x="361" y="620" type="curve" smooth="yes"/>
      <point x="300" y="620"/>
      <point x="253" y="602"/>
      <point x="239" y="574" type="curve" smooth="yes"/>
      <point x="176" y="453"/>
      <point x="79" y="206"/>
      <point x="20" y="26" type="curve"/>
      <point x="40" y="3"/>
      <point x="79" y="-10"/>
      <point x="118" y="-10" type="curve" smooth="yes"/>
      <point x="166" y="-10"/>
      <point x="206" y="8"/>
      <point x="224" y="62" type="curve" smooth="yes"/>
      <point x="267" y="192"/>
      <point x="306" y="329"/>
      <point x="358" y="457" type="curve"/>
      <point x="400" y="333"/>
      <point x="462" y="155"/>
      <point x="509" y="11" type="curve"/>
      <point x="534" y="-4"/>
      <point x="565" y="-10"/>
      <point x="592" y="-10" type="curve" smooth="yes"/>
      <point x="655" y="-10"/>
      <point x="693" y="20"/>
      <point x="693" y="51" type="curve" smooth="yes"/>
      <point x="693" y="84"/>
      <point x="504" y="544"/>
    </contour>
  </outline>
</glyph>
<glyph name="uni25CC" format="1">
  <advance width="596"/>
  <unicode hex="25CC"/>
  <outline>
    <contour>
      <point x="236" y="515" type="curve" smooth="yes"/>
      <point x="236" y="478"/>
      <point x="265" y="453"/>
      <point x="300" y="453" type="curve" smooth="yes"/>
      <point x="336" y="453"/>
      <point x="364" y="478"/>
      <point x="364" y="515" type="curve" smooth="yes"/>
      <point x="364" y="552"/>
      <point x="336" y="578"/>
      <point x="300" y="578" type="curve" smooth="yes"/>
      <point x="265" y="578"/>
      <point x="236" y="552"/>
    </contour>
    <contour>
      <point x="216" y="445" type="curve" smooth="yes"/>
      <point x="216" y="481"/>
      <point x="186" y="508"/>
      <point x="152" y="508" type="curve" smooth="yes"/>
      <point x="116" y="508"/>
      <point x="88" y="481"/>
      <point x="88" y="445" type="curve" smooth="yes"/>
      <point x="88" y="409"/>
      <point x="116" y="383"/>
      <point x="152" y="383" type="curve" smooth="yes"/>
      <point x="186" y="383"/>
      <point x="216" y="409"/>
    </contour>
    <contour>
      <point x="384" y="445" type="curve" smooth="yes"/>
      <point x="384" y="409"/>
      <point x="414" y="383"/>
      <point x="448" y="383" type="curve" smooth="yes"/>
      <point x="484" y="383"/>
      <point x="512" y="409"/>
      <point x="512" y="445" type="curve" smooth="yes"/>
      <point x="512" y="481"/>
      <point x="484" y="508"/>
      <point x="448" y="508" type="curve" smooth="yes"/>
      <point x="414" y="508"/>
      <point x="384" y="481"/>
    </contour>
    <contour>
      <point x="443" y="294" type="curve" smooth="yes"/>
      <point x="443" y="257"/>
      <point x="471" y="232"/>
      <point x="507" y="232" type="curve" smooth="yes"/>
      <point x="543" y="232"/>
      <point x="570" y="257"/>
      <point x="570" y="294" type="curve" smooth="yes"/>
      <point x="570" y="331"/>
      <point x="543" y="357"/>
      <point x="507" y="357" type="curve" smooth="yes"/>
      <point x="471" y="357"/>
      <point x="443" y="331"/>
    </contour>
    <contour>
      <point x="236" y="73" type="curve" smooth="yes"/>
      <point x="236" y="37"/>
      <point x="265" y="11"/>
      <point x="300" y="11" type="curve" smooth="yes"/>
      <point x="336" y="11"/>
      <point x="364" y="37"/>
      <point x="364" y="73" type="curve" smooth="yes"/>
      <point x="364" y="111"/>
      <point x="336" y="136"/>
      <point x="300" y="136" type="curve" smooth="yes"/>
      <point x="265" y="136"/>
      <point x="236" y="111"/>
    </contour>
    <contour>
      <point x="216" y="144" type="curve" smooth="yes"/>
      <point x="216" y="180"/>
      <point x="186" y="206"/>
      <point x="152" y="206" type="curve" smooth="yes"/>
      <point x="116" y="206"/>
      <point x="88" y="180"/>
      <point x="88" y="144" type="curve" smooth="yes"/>
      <point x="88" y="107"/>
      <point x="116" y="81"/>
      <point x="152" y="81" type="curve" smooth="yes"/>
      <point x="186" y="81"/>
      <point x="216" y="107"/>
    </contour>
    <contour>
      <point x="384" y="144" type="curve" smooth="yes"/>
      <point x="384" y="107"/>
      <point x="414" y="81"/>
      <point x="448" y="81" type="curve" smooth="yes"/>
      <point x="484" y="81"/>
      <point x="512" y="107"/>
      <point x="512" y="144" type="curve" smooth="yes"/>
      <point x="512" y="180"/>
      <point x="484" y="206"/>
      <point x="448" y="206" type="curve" smooth="yes"/>
      <point x="414" y="206"/>
      <point x="384" y="180"/>
    </contour>
    <contour>
      <point x="30" y="294" type="curve" smooth="yes"/>
      <point x="30" y="257"/>
      <point x="58" y="232"/>
      <point x="94" y="232" type="curve" smooth="yes"/>
      <point x="130" y="232"/>
      <point x="157" y="257"/>
      <point x="157" y="294" type="curve" smooth="yes"/>
      <point x="157" y="331"/>
      <point x="130" y="357"/>
      <point x="94" y="357" type="curve" smooth="yes"/>
      <point x="58" y="357"/>
      <point x="30" y="331"/>
    </contour>
  </outline>
</glyph>
<glyph name="TashdidWithDammatan.ur" format="1">
  <advance width="0"/>
  <unicode hex="FC5E"/>
  <outline>
    <contour>
      <point x="-1" y="473" type="curve"/>
      <point x="9" y="463"/>
      <point x="26" y="454"/>
      <point x="50" y="454" type="curve" smooth="yes"/>
      <point x="96" y="454"/>
      <point x="122" y="474"/>
      <point x="122" y="524" type="curve" smooth="yes"/>
      <point x="122" y="547" type="line" smooth="yes"/>
      <point x="122" y="563"/>
      <point x="115" y="579"/>
      <point x="89" y="579" type="curve" smooth="yes"/>
      <point x="77" y="579"/>
      <point x="68" y="577"/>
      <point x="61" y="575" type="curve"/>
      <point x="61" y="522" type="line" smooth="yes"/>
      <point x="61" y="508"/>
      <point x="54" y="503"/>
      <point x="43" y="503" type="curve" smooth="yes"/>
      <point x="34" y="503"/>
      <point x="28" y="508"/>
      <point x="28" y="519" type="curve" smooth="yes"/>
      <point x="28" y="565" type="line"/>
      <point x="24" y="570"/>
      <point x="6" y="571"/>
      <point x="-1" y="571" type="curve" smooth="yes"/>
      <point x="-7" y="571"/>
      <point x="-25" y="570"/>
      <point x="-29" y="565" type="curve"/>
      <point x="-29" y="519" type="line" smooth="yes"/>
      <point x="-29" y="508"/>
      <point x="-34" y="503"/>
      <point x="-44" y="503" type="curve" smooth="yes"/>
      <point x="-55" y="503"/>
      <point x="-61" y="508"/>
      <point x="-61" y="522" type="curve" smooth="yes"/>
      <point x="-61" y="575" type="line"/>
      <point x="-69" y="577"/>
      <point x="-77" y="579"/>
      <point x="-90" y="579" type="curve" smooth="yes"/>
      <point x="-116" y="579"/>
      <point x="-122" y="563"/>
      <point x="-122" y="547" type="curve" smooth="yes"/>
      <point x="-122" y="524" type="line" smooth="yes"/>
      <point x="-122" y="474"/>
      <point x="-97" y="454"/>
      <point x="-51" y="454" type="curve" smooth="yes"/>
      <point x="-27" y="454"/>
      <point x="-10" y="463"/>
    </contour>
    <contour>
      <point x="31" y="676" type="curve"/>
      <point x="24" y="684"/>
      <point x="21" y="696"/>
      <point x="21" y="705" type="curve" smooth="yes"/>
      <point x="21" y="724"/>
      <point x="32" y="733"/>
      <point x="45" y="733" type="curve" smooth="yes"/>
      <point x="58" y="733"/>
      <point x="65" y="723"/>
      <point x="65" y="709" type="curve"/>
      <point x="64" y="686"/>
      <point x="47" y="679"/>
    </contour>
    <contour>
      <point x="-121" y="694" type="curve"/>
      <point x="-117" y="694"/>
      <point x="-112" y="692"/>
      <point x="-112" y="679" type="curve" smooth="yes"/>
      <point x="-112" y="672"/>
      <point x="-113" y="660"/>
      <point x="-115" y="647" type="curve"/>
      <point x="-106" y="631"/>
      <point x="-91" y="615"/>
      <point x="-68" y="615" type="curve" smooth="yes"/>
      <point x="-47" y="615"/>
      <point x="-5" y="618"/>
      <point x="22" y="624" type="curve" smooth="yes"/>
      <point x="81" y="636"/>
      <point x="118" y="660"/>
      <point x="118" y="710" type="curve" smooth="yes"/>
      <point x="118" y="747"/>
      <point x="96" y="782"/>
      <point x="43" y="782" type="curve" smooth="yes"/>
      <point x="-2" y="782"/>
      <point x="-31" y="749"/>
      <point x="-31" y="703" type="curve" smooth="yes"/>
      <point x="-31" y="685"/>
      <point x="-26" y="675"/>
      <point x="-20" y="665" type="curve"/>
      <point x="-36" y="662"/>
      <point x="-55" y="660"/>
      <point x="-66" y="660" type="curve"/>
      <point x="-65" y="666"/>
      <point x="-65" y="671"/>
      <point x="-65" y="676" type="curve" smooth="yes"/>
      <point x="-65" y="710"/>
      <point x="-78" y="743"/>
      <point x="-119" y="743" type="curve" smooth="yes"/>
      <point x="-137" y="743"/>
      <point x="-161" y="732"/>
      <point x="-175" y="722" type="curve" smooth="yes"/>
      <point x="-185" y="715"/>
      <point x="-190" y="709"/>
      <point x="-190" y="700" type="curve" smooth="yes"/>
      <point x="-190" y="687"/>
      <point x="-182" y="677"/>
      <point x="-171" y="669" type="curve"/>
      <point x="-141" y="688"/>
      <point x="-127" y="694"/>
    </contour>
  </outline>
</glyph>
<glyph name="TashdidWithZabar.ur" format="1">
  <advance width="0"/>
  <unicode hex="FC60"/>
  <outline>
    <contour>
      <point x="92" y="635" type="line"/>
      <point x="105" y="637"/>
      <point x="109" y="650"/>
      <point x="109" y="660" type="curve" smooth="yes"/>
      <point x="109" y="671"/>
      <point x="99" y="685"/>
      <point x="95" y="688" type="curve"/>
      <point x="-97" y="661" type="line"/>
      <point x="-106" y="660"/>
      <point x="-116" y="650"/>
      <point x="-116" y="638" type="curve" smooth="yes"/>
      <point x="-116" y="624"/>
      <point x="-107" y="613"/>
      <point x="-101" y="608" type="curve"/>
    </contour>
    <contour>
      <point x="-1" y="472" type="curve"/>
      <point x="9" y="462"/>
      <point x="26" y="453"/>
      <point x="50" y="453" type="curve" smooth="yes"/>
      <point x="96" y="453"/>
      <point x="122" y="473"/>
      <point x="122" y="523" type="curve" smooth="yes"/>
      <point x="122" y="551" type="line" smooth="yes"/>
      <point x="122" y="567"/>
      <point x="115" y="583"/>
      <point x="89" y="583" type="curve" smooth="yes"/>
      <point x="77" y="583"/>
      <point x="68" y="581"/>
      <point x="61" y="579" type="curve"/>
      <point x="61" y="521" type="line" smooth="yes"/>
      <point x="61" y="507"/>
      <point x="54" y="502"/>
      <point x="43" y="502" type="curve" smooth="yes"/>
      <point x="34" y="502"/>
      <point x="28" y="507"/>
      <point x="28" y="518" type="curve" smooth="yes"/>
      <point x="28" y="569" type="line"/>
      <point x="24" y="574"/>
      <point x="6" y="575"/>
      <point x="-1" y="575" type="curve" smooth="yes"/>
      <point x="-7" y="575"/>
      <point x="-25" y="574"/>
      <point x="-29" y="569" type="curve"/>
      <point x="-29" y="518" type="line" smooth="yes"/>
      <point x="-29" y="507"/>
      <point x="-34" y="502"/>
      <point x="-44" y="502" type="curve" smooth="yes"/>
      <point x="-55" y="502"/>
      <point x="-61" y="507"/>
      <point x="-61" y="521" type="curve" smooth="yes"/>
      <point x="-61" y="579" type="line"/>
      <point x="-69" y="581"/>
      <point x="-77" y="583"/>
      <point x="-90" y="583" type="curve" smooth="yes"/>
      <point x="-116" y="583"/>
      <point x="-122" y="567"/>
      <point x="-122" y="551" type="curve" smooth="yes"/>
      <point x="-122" y="523" type="line" smooth="yes"/>
      <point x="-122" y="473"/>
      <point x="-97" y="453"/>
      <point x="-51" y="453" type="curve" smooth="yes"/>
      <point x="-27" y="453"/>
      <point x="-10" y="462"/>
    </contour>
  </outline>
</glyph>
<glyph name="TashdidWithPesh.ur" format="1">
  <advance width="0"/>
  <unicode hex="FC61"/>
  <outline>
    <contour>
      <point x="-1" y="472" type="curve"/>
      <point x="9" y="462"/>
      <point x="26" y="453"/>
      <point x="50" y="453" type="curve" smooth="yes"/>
      <point x="96" y="453"/>
      <point x="122" y="473"/>
      <point x="122" y="523" type="curve" smooth="yes"/>
      <point x="122" y="551" type="line" smooth="yes"/>
      <point x="122" y="567"/>
      <point x="115" y="583"/>
      <point x="89" y="583" type="curve" smooth="yes"/>
      <point x="77" y="583"/>
      <point x="68" y="581"/>
      <point x="61" y="579" type="curve"/>
      <point x="61" y="521" type="line" smooth="yes"/>
      <point x="61" y="507"/>
      <point x="54" y="502"/>
      <point x="43" y="502" type="curve" smooth="yes"/>
      <point x="34" y="502"/>
      <point x="28" y="507"/>
      <point x="28" y="518" type="curve" smooth="yes"/>
      <point x="28" y="569" type="line"/>
      <point x="24" y="574"/>
      <point x="6" y="575"/>
      <point x="-1" y="575" type="curve" smooth="yes"/>
      <point x="-7" y="575"/>
      <point x="-25" y="574"/>
      <point x="-29" y="569" type="curve"/>
      <point x="-29" y="518" type="line" smooth="yes"/>
      <point x="-29" y="507"/>
      <point x="-34" y="502"/>
      <point x="-44" y="502" type="curve" smooth="yes"/>
      <point x="-55" y="502"/>
      <point x="-61" y="507"/>
      <point x="-61" y="521" type="curve" smooth="yes"/>
      <point x="-61" y="579" type="line"/>
      <point x="-69" y="581"/>
      <point x="-77" y="583"/>
      <point x="-90" y="583" type="curve" smooth="yes"/>
      <point x="-116" y="583"/>
      <point x="-122" y="567"/>
      <point x="-122" y="551" type="curve" smooth="yes"/>
      <point x="-122" y="523" type="line" smooth="yes"/>
      <point x="-122" y="473"/>
      <point x="-97" y="453"/>
      <point x="-51" y="453" type="curve" smooth="yes"/>
      <point x="-27" y="453"/>
      <point x="-10" y="462"/>
    </contour>
    <contour>
      <point x="-100" y="661" type="curve"/>
      <point x="-101" y="654"/>
      <point x="-102" y="647"/>
      <point x="-102" y="640" type="curve" smooth="yes"/>
      <point x="-102" y="628"/>
      <point x="-95" y="615"/>
      <point x="-76" y="615" type="curve" smooth="yes"/>
      <point x="-54" y="615"/>
      <point x="-28" y="619"/>
      <point x="-1" y="624" type="curve" smooth="yes"/>
      <point x="59" y="636"/>
      <point x="95" y="661"/>
      <point x="95" y="710" type="curve" smooth="yes"/>
      <point x="95" y="747"/>
      <point x="73" y="782"/>
      <point x="21" y="782" type="curve" smooth="yes"/>
      <point x="-25" y="782"/>
      <point x="-54" y="753"/>
      <point x="-54" y="708" type="curve" smooth="yes"/>
      <point x="-54" y="689"/>
      <point x="-49" y="675"/>
      <point x="-43" y="665" type="curve"/>
      <point x="-63" y="662"/>
      <point x="-79" y="661"/>
    </contour>
    <contour>
      <point x="9" y="676" type="curve"/>
      <point x="1" y="685"/>
      <point x="-2" y="696"/>
      <point x="-2" y="705" type="curve" smooth="yes"/>
      <point x="-2" y="725"/>
      <point x="10" y="733"/>
      <point x="22" y="733" type="curve" smooth="yes"/>
      <point x="35" y="733"/>
      <point x="42" y="723"/>
      <point x="42" y="709" type="curve"/>
      <point x="41" y="687"/>
      <point x="23" y="679"/>
    </contour>
  </outline>
</glyph>
<glyph name="TashdidWithAlefSuperscript.ur" format="1">
  <advance width="0"/>
  <unicode hex="FC63"/>
  <outline>
    <contour>
      <point x="-1" y="472" type="curve"/>
      <point x="9" y="462"/>
      <point x="26" y="453"/>
      <point x="50" y="453" type="curve" smooth="yes"/>
      <point x="96" y="453"/>
      <point x="122" y="473"/>
      <point x="122" y="523" type="curve" smooth="yes"/>
      <point x="122" y="551" type="line" smooth="yes"/>
      <point x="122" y="567"/>
      <point x="115" y="583"/>
      <point x="89" y="583" type="curve" smooth="yes"/>
      <point x="77" y="583"/>
      <point x="68" y="581"/>
      <point x="61" y="579" type="curve"/>
      <point x="61" y="521" type="line" smooth="yes"/>
      <point x="61" y="507"/>
      <point x="54" y="502"/>
      <point x="43" y="502" type="curve" smooth="yes"/>
      <point x="34" y="502"/>
      <point x="28" y="507"/>
      <point x="28" y="518" type="curve" smooth="yes"/>
      <point x="28" y="569" type="line"/>
      <point x="24" y="574"/>
      <point x="6" y="575"/>
      <point x="-1" y="575" type="curve" smooth="yes"/>
      <point x="-7" y="575"/>
      <point x="-25" y="574"/>
      <point x="-29" y="569" type="curve"/>
      <point x="-29" y="518" type="line" smooth="yes"/>
      <point x="-29" y="507"/>
      <point x="-34" y="502"/>
      <point x="-44" y="502" type="curve" smooth="yes"/>
      <point x="-55" y="502"/>
      <point x="-61" y="507"/>
      <point x="-61" y="521" type="curve" smooth="yes"/>
      <point x="-61" y="579" type="line"/>
      <point x="-69" y="581"/>
      <point x="-77" y="583"/>
      <point x="-90" y="583" type="curve" smooth="yes"/>
      <point x="-116" y="583"/>
      <point x="-122" y="567"/>
      <point x="-122" y="551" type="curve" smooth="yes"/>
      <point x="-122" y="523" type="line" smooth="yes"/>
      <point x="-122" y="473"/>
      <point x="-97" y="453"/>
      <point x="-51" y="453" type="curve" smooth="yes"/>
      <point x="-27" y="453"/>
      <point x="-10" y="462"/>
    </contour>
    <contour>
      <point x="28" y="721" type="line"/>
      <point x="28" y="741"/>
      <point x="14" y="745"/>
      <point x="-2" y="745" type="curve" smooth="yes"/>
      <point x="-13" y="745"/>
      <point x="-23" y="743"/>
      <point x="-29" y="743" type="curve"/>
      <point x="-29" y="634" type="line" smooth="yes"/>
      <point x="-29" y="615"/>
      <point x="-16" y="610"/>
      <point x="1" y="610" type="curve" smooth="yes"/>
      <point x="12" y="610"/>
      <point x="23" y="612"/>
      <point x="28" y="612" type="curve"/>
    </contour>
  </outline>
</glyph>
<glyph name="Beh.fina.comp" format="1">
  <advance width="954"/>
  <outline>
    <contour>
      <point x="440" y="140" type="line" smooth="yes"/>
      <point x="285" y="140"/>
      <point x="222" y="179"/>
      <point x="222" y="306" type="curve" smooth="yes"/>
      <point x="222" y="357"/>
      <point x="224" y="379"/>
      <point x="228" y="419" type="curve"/>
      <point x="203" y="425"/>
      <point x="178" y="429"/>
      <point x="152" y="429" type="curve" smooth="yes"/>
      <point x="79" y="429"/>
      <point x="44" y="409"/>
      <point x="44" y="289" type="curve" smooth="yes"/>
      <point x="44" y="102"/>
      <point x="141" y="0"/>
      <point x="397" y="0" type="curve" smooth="yes"/>
      <point x="566" y="0" type="line" smooth="yes"/>
      <point x="659" y="0"/>
      <point x="740" y="15"/>
      <point x="800" y="53" type="curve"/>
      <point x="835" y="24"/>
      <point x="904" y="0"/>
      <point x="974" y="0" type="curve" smooth="yes"/>
      <point x="991" y="0" type="line"/>
      <point x="1000" y="13"/>
      <point x="1009" y="41"/>
      <point x="1009" y="68" type="curve" smooth="yes"/>
      <point x="1009" y="99"/>
      <point x="1002" y="126"/>
      <point x="990" y="140" type="curve"/>
      <point x="965" y="140" type="line" smooth="yes"/>
      <point x="938" y="140"/>
      <point x="906" y="147"/>
      <point x="890" y="159" type="curve"/>
      <point x="903" y="192"/>
      <point x="910" y="232"/>
      <point x="910" y="279" type="curve" smooth="yes"/>
      <point x="910" y="356"/>
      <point x="881" y="387"/>
      <point x="803" y="387" type="curve" smooth="yes"/>
      <point x="777" y="387"/>
      <point x="749" y="382"/>
      <point x="732" y="377" type="curve"/>
      <point x="732" y="326" type="line" smooth="yes"/>
      <point x="732" y="185"/>
      <point x="691" y="140"/>
      <point x="526" y="140" type="curve" smooth="yes"/>
    </contour>
  </outline>
</glyph>
<glyph name="Beh.fina.ur" format="1">
  <advance width="950"/>
  <outline>
    <contour>
      <point x="436" y="140" type="line"/>
      <point x="281" y="140"/>
      <point x="218" y="179"/>
      <point x="218" y="306" type="curve" smooth="yes"/>
      <point x="218" y="357"/>
      <point x="220" y="379"/>
      <point x="224" y="419" type="curve"/>
      <point x="199" y="425"/>
      <point x="174" y="429"/>
      <point x="148" y="429" type="curve" smooth="yes"/>
      <point x="75" y="429"/>
      <point x="40" y="409"/>
      <point x="40" y="289" type="curve" smooth="yes"/>
      <point x="40" y="102"/>
      <point x="137" y="0"/>
      <point x="393" y="0" type="curve" smooth="yes"/>
      <point x="562" y="0" type="line" smooth="yes"/>
      <point x="655" y="0"/>
      <point x="736" y="15"/>
      <point x="796" y="53" type="curve"/>
      <point x="831" y="24"/>
      <point x="900" y="0"/>
      <point x="970" y="0" type="curve" smooth="yes"/>
      <point x="987" y="0" type="line"/>
      <point x="996" y="13"/>
      <point x="1005" y="41"/>
      <point x="1005" y="68" type="curve" smooth="yes"/>
      <point x="1005" y="99"/>
      <point x="998" y="126"/>
      <point x="986" y="140" type="curve"/>
      <point x="961" y="140" type="line" smooth="yes"/>
      <point x="934" y="140"/>
      <point x="902" y="147"/>
      <point x="886" y="159" type="curve"/>
      <point x="899" y="192"/>
      <point x="906" y="232"/>
      <point x="906" y="279" type="curve" smooth="yes"/>
      <point x="906" y="356"/>
      <point x="877" y="387"/>
      <point x="799" y="387" type="curve" smooth="yes"/>
      <point x="773" y="387"/>
      <point x="745" y="382"/>
      <point x="728" y="377" type="curve"/>
      <point x="728" y="326" type="line" smooth="yes"/>
      <point x="728" y="185"/>
      <point x="687" y="140"/>
      <point x="522" y="140" type="curve" smooth="yes"/>
    </contour>
    <contour>
      <point x="478" y="-211" type="curve"/>
      <point x="529" y="-211"/>
      <point x="560" y="-178"/>
      <point x="560" y="-135" type="curve" smooth="yes"/>
      <point x="560" y="-90"/>
      <point x="525" y="-58"/>
      <point x="478" y="-58" type="curve" smooth="yes"/>
      <point x="432" y="-58"/>
      <point x="396" y="-90"/>
      <point x="396" y="-135" type="curve" smooth="yes"/>
      <point x="396" y="-178"/>
      <point x="429" y="-211"/>
    </contour>
  </outline>
</glyph>
<glyph name="Beh.init.comp" format="1">
  <advance width="372"/>
  <outline>
    <contour>
      <point x="-2" y="140" type="line"/>
      <point x="-7" y="123"/>
      <point x="-9" y="107"/>
      <point x="-9" y="90" type="curve" smooth="yes"/>
      <point x="-9" y="51"/>
      <point x="9" y="17"/>
      <point x="34" y="0" type="curve"/>
      <point x="74" y="0" type="line" smooth="yes"/>
      <point x="240" y="0"/>
      <point x="340" y="103"/>
      <point x="340" y="285" type="curve" smooth="yes"/>
      <point x="340" y="430"/>
      <point x="297" y="449"/>
      <point x="233" y="449" type="curve" smooth="yes"/>
      <point x="210" y="449"/>
      <point x="180" y="446"/>
      <point x="154" y="439" type="curve"/>
      <point x="157" y="407"/>
      <point x="160" y="354"/>
      <point x="160" y="286" type="curve" smooth="yes"/>
      <point x="160" y="196"/>
      <point x="119" y="143"/>
      <point x="52" y="140" type="curve"/>
    </contour>
  </outline>
</glyph>
<glyph name="Dal.fina.ur" format="1">
  <advance width="528"/>
  <outline>
    <contour>
      <point x="58" y="140" type="line"/>
      <point x="49" y="126"/>
      <point x="40" y="99"/>
      <point x="40" y="71" type="curve" smooth="yes"/>
      <point x="40" y="21"/>
      <point x="65" y="0"/>
      <point x="101" y="0" type="curve" smooth="yes"/>
      <point x="257" y="0" type="line" smooth="yes"/>
      <point x="329" y="0"/>
      <point x="377" y="16"/>
      <point x="407" y="46" type="curve"/>
      <point x="437" y="18"/>
      <point x="482" y="0"/>
      <point x="552" y="0" type="curve" smooth="yes"/>
      <point x="565" y="0" type="line"/>
      <point x="574" y="13"/>
      <point x="584" y="41"/>
      <point x="584" y="68" type="curve" smooth="yes"/>
      <point x="584" y="99"/>
      <point x="576" y="126"/>
      <point x="564" y="140" type="curve"/>
      <point x="540" y="140" type="line" smooth="yes"/>
      <point x="500" y="140"/>
      <point x="459" y="155"/>
      <point x="444" y="199" type="curve"/>
      <point x="436" y="260"/>
      <point x="404" y="346"/>
      <point x="341" y="415" type="curve" smooth="yes"/>
      <point x="320" y="438"/>
      <point x="293" y="450"/>
      <point x="266" y="450" type="curve" smooth="yes"/>
      <point x="228" y="450"/>
      <point x="190" y="427"/>
      <point x="165" y="386" type="curve"/>
      <point x="191" y="350"/>
      <point x="269" y="238"/>
      <point x="269" y="178" type="curve" smooth="yes"/>
      <point x="269" y="152"/>
      <point x="252" y="140"/>
      <point x="214" y="140" type="curve" smooth="yes"/>
    </contour>
  </outline>
</glyph>
<glyph name="Dot2.comp" format="1">
  <advance width="0"/>
  <outline>
    <contour>
      <point x="-410" y="285" type="curve"/>
      <point x="-360" y="285"/>
      <point x="-330" y="318"/>
      <point x="-330" y="361" type="curve" smooth="yes"/>
      <point x="-330" y="406"/>
      <point x="-364" y="438"/>
      <point x="-410" y="438" type="curve" smooth="yes"/>
      <point x="-455" y="438"/>
      <point x="-490" y="406"/>
      <point x="-490" y="361" type="curve" smooth="yes"/>
      <point x="-490" y="318"/>
      <point x="-458" y="285"/>
    </contour>
    <contour>
      <point x="-221" y="285" type="curve"/>
      <point x="-171" y="285"/>
      <point x="-141" y="318"/>
      <point x="-141" y="361" type="curve" smooth="yes"/>
      <point x="-141" y="406"/>
      <point x="-175" y="438"/>
      <point x="-221" y="438" type="curve" smooth="yes"/>
      <point x="-266" y="438"/>
      <point x="-301" y="406"/>
      <point x="-301" y="361" type="curve" smooth="yes"/>
      <point x="-301" y="318"/>
      <point x="-269" y="285"/>
    </contour>
  </outline>
</glyph>
<glyph name="HahBari.init.ur" format="1">
  <advance width="518"/>
  <outline>
    <contour>
      <point x="447" y="0" type="line"/>
      <point x="465" y="30"/>
      <point x="478" y="73"/>
      <point x="478" y="123" type="curve" smooth="yes"/>
      <point x="478" y="308"/>
      <point x="319" y="469"/>
      <point x="146" y="469" type="curve" smooth="yes"/>
      <point x="73" y="469"/>
      <point x="33" y="438"/>
      <point x="33" y="386" type="curve" smooth="yes"/>
      <point x="33" y="355"/>
      <point x="42" y="334"/>
      <point x="51" y="319" type="curve"/>
      <point x="73" y="319" type="line" smooth="yes"/>
      <point x="189" y="319"/>
      <point x="291" y="247"/>
      <point x="293" y="140" type="curve"/>
      <point x="-3" y="140" type="line"/>
      <point x="-8" y="123"/>
      <point x="-10" y="107"/>
      <point x="-10" y="90" type="curve" smooth="yes"/>
      <point x="-10" y="51"/>
      <point x="8" y="17"/>
      <point x="33" y="0" type="curve"/>
    </contour>
  </outline>
</glyph>
<glyph name="HehDochashmi.fina.ur" format="1">
  <advance width="888"/>
  <outline>
    <contour>
      <point x="550" y="0" type="line" smooth="yes"/>
      <point x="623" y="0"/>
      <point x="688" y="19"/>
      <point x="735" y="56" type="curve"/>
      <point x="779" y="8"/>
      <point x="852" y="0"/>
      <point x="918" y="0" type="curve" smooth="yes"/>
      <point x="925" y="0" type="line"/>
      <point x="934" y="13"/>
      <point x="944" y="41"/>
      <point x="944" y="68" type="curve" smooth="yes"/>
      <point x="944" y="99"/>
      <point x="936" y="126"/>
      <point x="924" y="140" type="curve"/>
      <point x="900" y="140" type="line" smooth="yes"/>
      <point x="871" y="140"/>
      <point x="834" y="146"/>
      <point x="809" y="177" type="curve"/>
      <point x="814" y="196"/>
      <point x="816" y="217"/>
      <point x="816" y="240" type="curve" smooth="yes"/>
      <point x="816" y="443"/>
      <point x="620" y="584"/>
      <point x="448" y="584" type="curve" smooth="yes"/>
      <point x="388" y="584"/>
      <point x="352" y="549"/>
      <point x="352" y="487" type="curve" smooth="yes"/>
      <point x="352" y="468"/>
      <point x="353" y="462"/>
      <point x="355" y="451" type="curve"/>
      <point x="496" y="440"/>
      <point x="640" y="363"/>
      <point x="640" y="238" type="curve" smooth="yes"/>
      <point x="640" y="178"/>
      <point x="599" y="136"/>
      <point x="553" y="134" type="curve"/>
      <point x="557" y="147"/>
      <point x="564" y="170"/>
      <point x="564" y="197" type="curve" smooth="yes"/>
      <point x="564" y="300"/>
      <point x="473" y="369"/>
      <point x="358" y="369" type="curve" smooth="yes"/>
      <point x="244" y="369"/>
      <point x="173" y="299"/>
      <point x="173" y="208" type="curve" smooth="yes"/>
      <point x="173" y="176"/>
      <point x="181" y="154"/>
      <point x="188" y="140" type="curve"/>
      <point x="58" y="140" type="line"/>
      <point x="50" y="124"/>
      <point x="40" y="99"/>
      <point x="40" y="71" type="curve" smooth="yes"/>
      <point x="40" y="21"/>
      <point x="65" y="0"/>
      <point x="101" y="0" type="curve" smooth="yes"/>
    </contour>
    <contour>
      <point x="394" y="134" type="line" smooth="yes"/>
      <point x="342" y="134"/>
      <point x="321" y="159"/>
      <point x="321" y="190" type="curve" smooth="yes"/>
      <point x="321" y="218"/>
      <point x="339" y="239"/>
      <point x="366" y="239" type="curve" smooth="yes"/>
      <point x="395" y="239"/>
      <point x="417" y="220"/>
      <point x="417" y="182" type="curve" smooth="yes"/>
      <point x="417" y="165"/>
      <point x="412" y="143"/>
      <point x="408" y="134" type="curve"/>
    </contour>
  </outline>
</glyph>
<glyph name="HehGoal.fina.ur" format="1">
  <advance width="626"/>
  <outline>
    <contour>
      <point x="630" y="140" type="line" smooth="yes"/>
      <point x="586" y="140"/>
      <point x="559" y="150"/>
      <point x="529" y="208" type="curve" smooth="yes"/>
      <point x="484" y="296" type="line" smooth="yes"/>
      <point x="444" y="374"/>
      <point x="391" y="415"/>
      <point x="303" y="415" type="curve" smooth="yes"/>
      <point x="223" y="415"/>
      <point x="163" y="382"/>
      <point x="101" y="278" type="curve" smooth="yes"/>
      <point x="54" y="199" type="line" smooth="yes"/>
      <point x="44" y="182"/>
      <point x="40" y="170"/>
      <point x="40" y="155" type="curve" smooth="yes"/>
      <point x="40" y="109"/>
      <point x="123" y="83"/>
      <point x="175" y="78" type="curve"/>
      <point x="260" y="220" type="line" smooth="yes"/>
      <point x="279" y="252"/>
      <point x="291" y="268"/>
      <point x="308" y="268" type="curve" smooth="yes"/>
      <point x="333" y="268"/>
      <point x="340" y="231"/>
      <point x="385" y="145" type="curve" smooth="yes"/>
      <point x="448" y="25"/>
      <point x="510" y="0"/>
      <point x="619" y="0" type="curve" smooth="yes"/>
      <point x="664" y="0" type="line"/>
      <point x="673" y="13"/>
      <point x="683" y="41"/>
      <point x="683" y="68" type="curve" smooth="yes"/>
      <point x="683" y="99"/>
      <point x="675" y="126"/>
      <point x="663" y="140" type="curve"/>
    </contour>
  </outline>
</glyph>
<glyph name="HehGoal.init.ur" format="1">
  <advance width="380"/>
  <outline>
    <contour>
      <point x="-2" y="140" type="line"/>
      <point x="-7" y="123"/>
      <point x="-9" y="107"/>
      <point x="-9" y="90" type="curve" smooth="yes"/>
      <point x="-9" y="51"/>
      <point x="9" y="17"/>
      <point x="34" y="0" type="curve"/>
      <point x="74" y="0" type="line" smooth="yes"/>
      <point x="240" y="0"/>
      <point x="340" y="103"/>
      <point x="340" y="285" type="curve" smooth="yes"/>
      <point x="340" y="430"/>
      <point x="297" y="449"/>
      <point x="233" y="449" type="curve" smooth="yes"/>
      <point x="210" y="449"/>
      <point x="180" y="446"/>
      <point x="154" y="439" type="curve"/>
      <point x="157" y="407"/>
      <point x="160" y="354"/>
      <point x="160" y="286" type="curve" smooth="yes"/>
      <point x="160" y="196"/>
      <point x="119" y="140"/>
      <point x="52" y="140" type="curve" smooth="yes"/>
    </contour>
    <contour>
      <point x="175" y="-215" type="curve"/>
      <point x="167" y="-184"/>
      <point x="153" y="-79"/>
      <point x="150" y="-52" type="curve"/>
      <point x="138" y="-50"/>
      <point x="128" y="-49"/>
      <point x="119" y="-49" type="curve" smooth="yes"/>
      <point x="62" y="-49"/>
      <point x="33" y="-98"/>
      <point x="33" y="-173" type="curve" smooth="yes"/>
      <point x="33" y="-226"/>
      <point x="57" y="-253"/>
      <point x="103" y="-253" type="curve" smooth="yes"/>
      <point x="144" y="-253"/>
      <point x="169" y="-230"/>
    </contour>
  </outline>
</glyph>
<glyph name="Jeh.fina.ur" format="1">
  <advance width="317"/>
  <outline>
    <contour>
      <point x="225" y="488" type="curve"/>
      <point x="274" y="488"/>
      <point x="303" y="520"/>
      <point x="303" y="562" type="curve" smooth="yes"/>
      <point x="303" y="606"/>
      <point x="270" y="637"/>
      <point x="225" y="637" type="curve" smooth="yes"/>
      <point x="181" y="637"/>
      <point x="147" y="606"/>
      <point x="147" y="562" type="curve" smooth="yes"/>
      <point x="147" y="520"/>
      <point x="178" y="488"/>
    </contour>
    <contour>
      <point x="41" y="488" type="curve"/>
      <point x="90" y="488"/>
      <point x="119" y="520"/>
      <point x="119" y="562" type="curve" smooth="yes"/>
      <point x="119" y="606"/>
      <point x="86" y="637"/>
      <point x="41" y="637" type="curve" smooth="yes"/>
      <point x="-3" y="637"/>
      <point x="-37" y="606"/>
      <point x="-37" y="562" type="curve" smooth="yes"/>
      <point x="-37" y="520"/>
      <point x="-6" y="488"/>
    </contour>
    <contour>
      <point x="132" y="639" type="curve"/>
      <point x="179" y="639"/>
      <point x="209" y="670"/>
      <point x="209" y="708" type="curve" smooth="yes"/>
      <point x="209" y="750"/>
      <point x="175" y="778"/>
      <point x="132" y="778" type="curve" smooth="yes"/>
      <point x="90" y="778"/>
      <point x="55" y="750"/>
      <point x="55" y="708" type="curve" smooth="yes"/>
      <point x="55" y="670"/>
      <point x="87" y="639"/>
    </contour>
    <contour>
      <point x="-94" y="-101" type="curve"/>
      <point x="-103" y="-123"/>
      <point x="-107" y="-146"/>
      <point x="-107" y="-165" type="curve" smooth="yes"/>
      <point x="-107" y="-223"/>
      <point x="-72" y="-250"/>
      <point x="-13" y="-250" type="curve" smooth="yes"/>
      <point x="116" y="-250"/>
      <point x="231" y="-184"/>
      <point x="253" y="16" type="curve"/>
      <point x="280" y="7"/>
      <point x="310" y="0"/>
      <point x="349" y="0" type="curve" smooth="yes"/>
      <point x="356" y="0" type="line"/>
      <point x="365" y="13"/>
      <point x="374" y="41"/>
      <point x="374" y="68" type="curve" smooth="yes"/>
      <point x="374" y="99"/>
      <point x="367" y="126"/>
      <point x="355" y="140" type="curve"/>
      <point x="340" y="140" type="line" smooth="yes"/>
      <point x="317" y="140"/>
      <point x="282" y="144"/>
      <point x="257" y="151" type="curve"/>
      <point x="256" y="195"/>
      <point x="254" y="235"/>
      <point x="250" y="279" type="curve" smooth="yes"/>
      <point x="239" y="402"/>
      <point x="209" y="428"/>
      <point x="139" y="428" type="curve" smooth="yes"/>
      <point x="106" y="428"/>
      <point x="75" y="417"/>
      <point x="56" y="407" type="curve"/>
      <point x="66" y="347"/>
      <point x="78" y="212"/>
      <point x="78" y="89" type="curve" smooth="yes"/>
      <point x="78" y="-43"/>
      <point x="24" y="-102"/>
      <point x="-69" y="-102" type="curve" smooth="yes"/>
      <point x="-77" y="-102"/>
      <point x="-84" y="-102"/>
    </contour>
  </outline>
</glyph>
<glyph name="Kaf.fina.ar" format="1">
  <advance width="982"/>
  <outline>
    <contour>
      <point x="420" y="140" type="curve"/>
      <point x="259" y="140"/>
      <point x="218" y="185"/>
      <point x="218" y="326" type="curve" smooth="yes"/>
      <point x="218" y="377" type="line"/>
      <point x="201" y="382"/>
      <point x="173" y="387"/>
      <point x="147" y="387" type="curve" smooth="yes"/>
      <point x="69" y="387"/>
      <point x="40" y="356"/>
      <point x="40" y="279" type="curve" smooth="yes"/>
      <point x="40" y="70"/>
      <point x="183" y="0"/>
      <point x="384" y="0" type="curve" smooth="yes"/>
      <point x="463" y="0" type="line" smooth="yes"/>
      <point x="601" y="0"/>
      <point x="681" y="29"/>
      <point x="725" y="86" type="curve"/>
      <point x="766" y="30"/>
      <point x="829" y="0"/>
      <point x="926" y="0" type="curve" smooth="yes"/>
      <point x="967" y="0" type="line"/>
      <point x="978" y="12"/>
      <point x="989" y="41"/>
      <point x="989" y="68" type="curve" smooth="yes"/>
      <point x="989" y="99"/>
      <point x="981" y="126"/>
      <point x="969" y="140" type="curve"/>
      <point x="928" y="140" type="line" smooth="yes"/>
      <point x="864" y="140"/>
      <point x="817" y="175"/>
      <point x="817" y="259" type="curve" smooth="yes"/>
      <point x="817" y="531" type="line" smooth="yes"/>
      <point x="817" y="596"/>
      <point x="776" y="608"/>
      <point x="721" y="608" type="curve" smooth="yes"/>
      <point x="691" y="608"/>
      <point x="656" y="602"/>
      <point x="641" y="600" type="curve"/>
      <point x="641" y="296" type="line" smooth="yes"/>
      <point x="641" y="177"/>
      <point x="571" y="140"/>
    </contour>
    <contour>
      <point x="432" y="398" type="curve" smooth="yes"/>
      <point x="432" y="425"/>
      <point x="469" y="426"/>
      <point x="491" y="426" type="curve"/>
      <point x="494" y="431"/>
      <point x="495" y="437"/>
      <point x="495" y="443" type="curve" smooth="yes"/>
      <point x="495" y="479"/>
      <point x="465" y="492"/>
      <point x="438" y="492" type="curve" smooth="yes"/>
      <point x="388" y="492"/>
      <point x="326" y="458"/>
      <point x="326" y="400" type="curve" smooth="yes"/>
      <point x="326" y="357"/>
      <point x="357" y="324"/>
      <point x="412" y="318" type="curve"/>
      <point x="358" y="293" type="line" smooth="yes"/>
      <point x="341" y="285"/>
      <point x="334" y="274"/>
      <point x="334" y="255" type="curve" smooth="yes"/>
      <point x="334" y="239"/>
      <point x="348" y="223"/>
      <point x="361" y="215" type="curve"/>
      <point x="503" y="279" type="line" smooth="yes"/>
      <point x="526" y="290"/>
      <point x="542" y="303"/>
      <point x="543" y="321" type="curve"/>
      <point x="543" y="339"/>
      <point x="534" y="351"/>
      <point x="526" y="358" type="curve"/>
      <point x="519" y="358"/>
      <point x="512" y="357"/>
      <point x="506" y="357" type="curve" smooth="yes"/>
      <point x="449" y="357"/>
      <point x="432" y="375"/>
    </contour>
  </outline>
</glyph>
<glyph name="Kaf.medi.ur" format="1">
  <advance width="578"/>
  <outline>
    <contour>
      <point x="-3" y="140" type="line"/>
      <point x="-8" y="123"/>
      <point x="-10" y="107"/>
      <point x="-10" y="90" type="curve" smooth="yes"/>
      <point x="-10" y="51"/>
      <point x="8" y="17"/>
      <point x="33" y="0" type="curve"/>
      <point x="270" y="0" type="line" smooth="yes"/>
      <point x="343" y="0"/>
      <point x="399" y="15"/>
      <point x="439" y="41" type="curve"/>
      <point x="469" y="18"/>
      <point x="512" y="0"/>
      <point x="588" y="0" type="curve" smooth="yes"/>
      <point x="617" y="0" type="line"/>
      <point x="625" y="13"/>
      <point x="635" y="41"/>
      <point x="635" y="68" type="curve" smooth="yes"/>
      <point x="635" y="99"/>
      <point x="627" y="126"/>
      <point x="616" y="140" type="curve"/>
      <point x="591" y="140" type="line" smooth="yes"/>
      <point x="565" y="140"/>
      <point x="533" y="147"/>
      <point x="514" y="158" type="curve"/>
      <point x="516" y="169"/>
      <point x="517" y="180"/>
      <point x="517" y="192" type="curve" smooth="yes"/>
      <point x="517" y="310"/>
      <point x="424" y="358"/>
      <point x="321" y="401" type="curve" smooth="yes"/>
      <point x="247" y="432" type="line"/>
      <point x="445" y="533" type="line" smooth="yes"/>
      <point x="478" y="550"/>
      <point x="487" y="566"/>
      <point x="487" y="593" type="curve" smooth="yes"/>
      <point x="487" y="639"/>
      <point x="449" y="683"/>
      <point x="410" y="700" type="curve"/>
      <point x="57" y="483" type="line"/>
      <point x="53" y="467"/>
      <point x="51" y="446"/>
      <point x="51" y="428" type="curve" smooth="yes"/>
      <point x="51" y="402"/>
      <point x="57" y="363"/>
      <point x="66" y="349" type="curve"/>
      <point x="262" y="262" type="line" smooth="yes"/>
      <point x="315" y="238"/>
      <point x="331" y="225"/>
      <point x="331" y="194" type="curve" smooth="yes"/>
      <point x="331" y="163"/>
      <point x="305" y="140"/>
      <point x="259" y="140" type="curve" smooth="yes"/>
    </contour>
  </outline>
</glyph>
<glyph name="LamAlef.fina.ur" format="1">
  <advance width="608"/>
  <outline>
    <contour>
      <point x="381" y="376" type="line"/>
      <point x="381" y="297"/>
      <point x="378" y="217"/>
      <point x="354" y="185" type="curve"/>
      <point x="230" y="506" type="line" smooth="yes"/>
      <point x="220" y="531"/>
      <point x="196" y="546"/>
      <point x="168" y="546" type="curve" smooth="yes"/>
      <point x="121" y="546"/>
      <point x="84" y="521"/>
      <point x="48" y="490" type="curve"/>
      <point x="199" y="140" type="line"/>
      <point x="58" y="140" type="line"/>
      <point x="49" y="123"/>
      <point x="40" y="97"/>
      <point x="40" y="71" type="curve" smooth="yes"/>
      <point x="40" y="29"/>
      <point x="53" y="0"/>
      <point x="102" y="0" type="curve" smooth="yes"/>
      <point x="259" y="0" type="line" smooth="yes"/>
      <point x="343" y="0"/>
      <point x="406" y="17"/>
      <point x="453" y="54" type="curve"/>
      <point x="498" y="15"/>
      <point x="561" y="0"/>
      <point x="639" y="0" type="curve" smooth="yes"/>
      <point x="646" y="0" type="line"/>
      <point x="655" y="13"/>
      <point x="665" y="41"/>
      <point x="665" y="68" type="curve" smooth="yes"/>
      <point x="665" y="99"/>
      <point x="657" y="126"/>
      <point x="645" y="140" type="curve"/>
      <point x="621" y="140" type="line" smooth="yes"/>
      <point x="594" y="140"/>
      <point x="551" y="149"/>
      <point x="528" y="165" type="curve"/>
      <point x="547" y="221"/>
      <point x="557" y="292"/>
      <point x="557" y="379" type="curve" smooth="yes"/>
      <point x="557" y="531" type="line" smooth="yes"/>
      <point x="557" y="596"/>
      <point x="516" y="608"/>
      <point x="461" y="608" type="curve" smooth="yes"/>
      <point x="431" y="608"/>
      <point x="396" y="602"/>
      <point x="381" y="600" type="curve"/>
    </contour>
  </outline>
</glyph>
<glyph name="LamAlef.ur" format="1">
  <advance width="597"/>
  <outline>
    <contour>
      <point x="259" y="0" type="line"/>
      <point x="475" y="0"/>
      <point x="557" y="115"/>
      <point x="557" y="379" type="curve" smooth="yes"/>
      <point x="557" y="531" type="line" smooth="yes"/>
      <point x="557" y="596"/>
      <point x="516" y="608"/>
      <point x="461" y="608" type="curve" smooth="yes"/>
      <point x="431" y="608"/>
      <point x="396" y="602"/>
      <point x="381" y="600" type="curve"/>
      <point x="381" y="376" type="line" smooth="yes"/>
      <point x="381" y="297"/>
      <point x="378" y="217"/>
      <point x="354" y="185" type="curve"/>
      <point x="230" y="506" type="line" smooth="yes"/>
      <point x="220" y="531"/>
      <point x="196" y="546"/>
      <point x="168" y="546" type="curve" smooth="yes"/>
      <point x="121" y="546"/>
      <point x="84" y="521"/>
      <point x="48" y="490" type="curve"/>
      <point x="199" y="140" type="line"/>
      <point x="58" y="140" type="line"/>
      <point x="49" y="123"/>
      <point x="40" y="97"/>
      <point x="40" y="71" type="curve" smooth="yes"/>
      <point x="40" y="29"/>
      <point x="53" y="0"/>
      <point x="102" y="0" type="curve" smooth="yes"/>
    </contour>
  </outline>
</glyph>
<glyph name="Lam.fina.ur" format="1">
  <advance width="769"/>
  <outline>
    <contour>
      <point x="223" y="135" type="curve" smooth="yes"/>
      <point x="223" y="164"/>
      <point x="224" y="237"/>
      <point x="225" y="263" type="curve"/>
      <point x="206" y="270"/>
      <point x="178" y="274"/>
      <point x="154" y="274" type="curve" smooth="yes"/>
      <point x="85" y="274"/>
      <point x="40" y="252"/>
      <point x="40" y="100" type="curve" smooth="yes"/>
      <point x="40" y="-134"/>
      <point x="158" y="-254"/>
      <point x="369" y="-254" type="curve" smooth="yes"/>
      <point x="568" y="-254"/>
      <point x="676" y="-172"/>
      <point x="693" y="16" type="curve"/>
      <point x="724" y="3"/>
      <point x="762" y="0"/>
      <point x="800" y="0" type="curve" smooth="yes"/>
      <point x="807" y="0" type="line"/>
      <point x="815" y="13"/>
      <point x="825" y="41"/>
      <point x="825" y="68" type="curve" smooth="yes"/>
      <point x="825" y="99"/>
      <point x="817" y="126"/>
      <point x="806" y="140" type="curve"/>
      <point x="781" y="140" type="line" smooth="yes"/>
      <point x="756" y="140"/>
      <point x="719" y="141"/>
      <point x="696" y="159" type="curve"/>
      <point x="696" y="531" type="line" smooth="yes"/>
      <point x="696" y="596"/>
      <point x="655" y="608"/>
      <point x="600" y="608" type="curve" smooth="yes"/>
      <point x="570" y="608"/>
      <point x="535" y="602"/>
      <point x="520" y="600" type="curve"/>
      <point x="520" y="55" type="line" smooth="yes"/>
      <point x="520" y="-56"/>
      <point x="457" y="-102"/>
      <point x="378" y="-102" type="curve" smooth="yes"/>
      <point x="284" y="-102"/>
      <point x="223" y="-52"/>
    </contour>
  </outline>
</glyph>
<glyph name="Lam.init.ur" format="1">
  <advance width="366"/>
  <outline>
    <contour>
      <point x="326" y="262" type="curve"/>
      <point x="326" y="531" type="line" smooth="yes"/>
      <point x="326" y="596"/>
      <point x="285" y="608"/>
      <point x="230" y="608" type="curve" smooth="yes"/>
      <point x="200" y="608"/>
      <point x="165" y="602"/>
      <point x="150" y="600" type="curve"/>
      <point x="150" y="269" type="line" smooth="yes"/>
      <point x="150" y="179"/>
      <point x="119" y="140"/>
      <point x="49" y="140" type="curve" smooth="yes"/>
      <point x="-3" y="140" type="line"/>
      <point x="-8" y="123"/>
      <point x="-10" y="107"/>
      <point x="-10" y="90" type="curve" smooth="yes"/>
      <point x="-10" y="51"/>
      <point x="8" y="17"/>
      <point x="33" y="0" type="curve"/>
      <point x="54" y="0" type="line" smooth="yes"/>
      <point x="231" y="0"/>
      <point x="326" y="70"/>
    </contour>
  </outline>
</glyph>
<glyph name="Lam.medi.ur" format="1">
  <advance width="391"/>
  <outline>
    <contour>
      <point x="422" y="0" type="curve"/>
      <point x="429" y="0" type="line"/>
      <point x="438" y="13"/>
      <point x="448" y="41"/>
      <point x="448" y="68" type="curve" smooth="yes"/>
      <point x="448" y="99"/>
      <point x="440" y="126"/>
      <point x="428" y="140" type="curve"/>
      <point x="404" y="140" type="line" smooth="yes"/>
      <point x="375" y="140"/>
      <point x="335" y="143"/>
      <point x="317" y="169" type="curve"/>
      <point x="323" y="196"/>
      <point x="326" y="227"/>
      <point x="326" y="262" type="curve" smooth="yes"/>
      <point x="326" y="531" type="line" smooth="yes"/>
      <point x="326" y="596"/>
      <point x="285" y="608"/>
      <point x="230" y="608" type="curve" smooth="yes"/>
      <point x="200" y="608"/>
      <point x="165" y="602"/>
      <point x="150" y="600" type="curve"/>
      <point x="150" y="269" type="line" smooth="yes"/>
      <point x="150" y="179"/>
      <point x="119" y="140"/>
      <point x="49" y="140" type="curve" smooth="yes"/>
      <point x="-3" y="140" type="line"/>
      <point x="-8" y="123"/>
      <point x="-10" y="107"/>
      <point x="-10" y="90" type="curve" smooth="yes"/>
      <point x="-10" y="51"/>
      <point x="8" y="17"/>
      <point x="33" y="0" type="curve"/>
      <point x="54" y="0" type="line" smooth="yes"/>
      <point x="134" y="0"/>
      <point x="197" y="14"/>
      <point x="242" y="48" type="curve"/>
      <point x="283" y="7"/>
      <point x="353" y="0"/>
    </contour>
  </outline>
</glyph>
<glyph name="Noon.fina.ur" format="1">
  <advance width="772"/>
  <outline>
    <contour>
      <point x="223" y="135" type="curve"/>
      <point x="223" y="164"/>
      <point x="224" y="237"/>
      <point x="225" y="263" type="curve"/>
      <point x="206" y="270"/>
      <point x="178" y="274"/>
      <point x="154" y="274" type="curve" smooth="yes"/>
      <point x="85" y="274"/>
      <point x="40" y="252"/>
      <point x="40" y="100" type="curve" smooth="yes"/>
      <point x="40" y="-134"/>
      <point x="158" y="-254"/>
      <point x="369" y="-254" type="curve" smooth="yes"/>
      <point x="561" y="-254"/>
      <point x="672" y="-177"/>
      <point x="694" y="20" type="curve"/>
      <point x="711" y="8"/>
      <point x="736" y="0"/>
      <point x="772" y="0" type="curve" smooth="yes"/>
      <point x="809" y="0" type="line"/>
      <point x="818" y="13"/>
      <point x="828" y="41"/>
      <point x="828" y="68" type="curve" smooth="yes"/>
      <point x="828" y="99"/>
      <point x="820" y="126"/>
      <point x="808" y="140" type="curve"/>
      <point x="783" y="140" type="line" smooth="yes"/>
      <point x="742" y="140"/>
      <point x="713" y="155"/>
      <point x="698" y="181" type="curve"/>
      <point x="698" y="216"/>
      <point x="696" y="254"/>
      <point x="694" y="288" type="curve" smooth="yes"/>
      <point x="688" y="378"/>
      <point x="685" y="429"/>
      <point x="585" y="429" type="curve" smooth="yes"/>
      <point x="562" y="429"/>
      <point x="526" y="422"/>
      <point x="508" y="415" type="curve"/>
      <point x="515" y="355"/>
      <point x="520" y="201"/>
      <point x="520" y="85" type="curve" smooth="yes"/>
      <point x="520" y="-62"/>
      <point x="457" y="-102"/>
      <point x="378" y="-102" type="curve" smooth="yes"/>
      <point x="284" y="-102"/>
      <point x="223" y="-52"/>
    </contour>
    <contour>
      <point x="361" y="321" type="curve"/>
      <point x="412" y="321"/>
      <point x="443" y="354"/>
      <point x="443" y="397" type="curve" smooth="yes"/>
      <point x="443" y="442"/>
      <point x="408" y="474"/>
      <point x="361" y="474" type="curve" smooth="yes"/>
      <point x="315" y="474"/>
      <point x="279" y="442"/>
      <point x="279" y="397" type="curve" smooth="yes"/>
      <point x="279" y="354"/>
      <point x="312" y="321"/>
    </contour>
  </outline>
</glyph>
<glyph name="Noon.init.ur" format="1">
  <advance width="380"/>
  <outline>
    <contour>
      <point x="-2" y="140" type="line"/>
      <point x="-7" y="123"/>
      <point x="-9" y="107"/>
      <point x="-9" y="90" type="curve" smooth="yes"/>
      <point x="-9" y="51"/>
      <point x="9" y="17"/>
      <point x="34" y="0" type="curve"/>
      <point x="74" y="0" type="line" smooth="yes"/>
      <point x="240" y="0"/>
      <point x="340" y="103"/>
      <point x="340" y="285" type="curve" smooth="yes"/>
      <point x="340" y="430"/>
      <point x="297" y="449"/>
      <point x="233" y="449" type="curve" smooth="yes"/>
      <point x="210" y="449"/>
      <point x="180" y="446"/>
      <point x="154" y="439" type="curve"/>
      <point x="157" y="407"/>
      <point x="160" y="354"/>
      <point x="160" y="286" type="curve" smooth="yes"/>
      <point x="160" y="196"/>
      <point x="119" y="140"/>
      <point x="52" y="140" type="curve" smooth="yes"/>
    </contour>
    <contour>
      <point x="224" y="506" type="curve"/>
      <point x="275" y="506"/>
      <point x="306" y="539"/>
      <point x="306" y="582" type="curve" smooth="yes"/>
      <point x="306" y="627"/>
      <point x="271" y="659"/>
      <point x="224" y="659" type="curve" smooth="yes"/>
      <point x="178" y="659"/>
      <point x="142" y="627"/>
      <point x="142" y="582" type="curve" smooth="yes"/>
      <point x="142" y="539"/>
      <point x="175" y="506"/>
    </contour>
  </outline>
</glyph>
<glyph name="Noon.medi.ur" format="1">
  <advance width="392"/>
  <outline>
    <contour>
      <point x="80" y="0" type="line"/>
      <point x="146" y="0"/>
      <point x="200" y="18"/>
      <point x="240" y="51" type="curve"/>
      <point x="282" y="17"/>
      <point x="341" y="0"/>
      <point x="422" y="0" type="curve" smooth="yes"/>
      <point x="429" y="0" type="line"/>
      <point x="438" y="13"/>
      <point x="448" y="41"/>
      <point x="448" y="68" type="curve" smooth="yes"/>
      <point x="448" y="99"/>
      <point x="440" y="126"/>
      <point x="428" y="140" type="curve"/>
      <point x="404" y="140" type="line" smooth="yes"/>
      <point x="374" y="140"/>
      <point x="329" y="150"/>
      <point x="312" y="163" type="curve"/>
      <point x="323" y="198"/>
      <point x="329" y="236"/>
      <point x="329" y="279" type="curve" smooth="yes"/>
      <point x="329" y="367"/>
      <point x="297" y="390"/>
      <point x="225" y="390" type="curve" smooth="yes"/>
      <point x="199" y="390"/>
      <point x="176" y="386"/>
      <point x="149" y="379" type="curve"/>
      <point x="151" y="352"/>
      <point x="152" y="307"/>
      <point x="152" y="276" type="curve" smooth="yes"/>
      <point x="152" y="177"/>
      <point x="102" y="141"/>
      <point x="42" y="140" type="curve"/>
      <point x="-2" y="140" type="line"/>
      <point x="-7" y="123"/>
      <point x="-9" y="107"/>
      <point x="-9" y="90" type="curve" smooth="yes"/>
      <point x="-9" y="51"/>
      <point x="9" y="17"/>
      <point x="34" y="0" type="curve"/>
    </contour>
    <contour>
      <point x="226" y="440" type="curve"/>
      <point x="277" y="440"/>
      <point x="308" y="473"/>
      <point x="308" y="516" type="curve" smooth="yes"/>
      <point x="308" y="561"/>
      <point x="273" y="593"/>
      <point x="226" y="593" type="curve" smooth="yes"/>
      <point x="180" y="593"/>
      <point x="144" y="561"/>
      <point x="144" y="516" type="curve" smooth="yes"/>
      <point x="144" y="473"/>
      <point x="177" y="440"/>
    </contour>
  </outline>
</glyph>
<glyph name="Peh.init.ur" format="1">
  <advance width="380"/>
  <outline>
    <contour>
      <point x="-2" y="140" type="line"/>
      <point x="-7" y="123"/>
      <point x="-9" y="107"/>
      <point x="-9" y="90" type="curve" smooth="yes"/>
      <point x="-9" y="51"/>
      <point x="9" y="17"/>
      <point x="34" y="0" type="curve"/>
      <point x="74" y="0" type="line" smooth="yes"/>
      <point x="240" y="0"/>
      <point x="340" y="103"/>
      <point x="340" y="285" type="curve" smooth="yes"/>
      <point x="340" y="430"/>
      <point x="297" y="449"/>
      <point x="233" y="449" type="curve" smooth="yes"/>
      <point x="210" y="449"/>
      <point x="180" y="446"/>
      <point x="154" y="439" type="curve"/>
      <point x="157" y="407"/>
      <point x="160" y="354"/>
      <point x="160" y="286" type="curve" smooth="yes"/>
      <point x="160" y="196"/>
      <point x="119" y="140"/>
      <point x="52" y="140" type="curve" smooth="yes"/>
    </contour>
    <contour>
      <point x="26" y="-57" type="curve"/>
      <point x="-23" y="-57"/>
      <point x="-52" y="-89"/>
      <point x="-52" y="-131" type="curve" smooth="yes"/>
      <point x="-52" y="-175"/>
      <point x="-19" y="-206"/>
      <point x="26" y="-206" type="curve" smooth="yes"/>
      <point x="70" y="-206"/>
      <point x="104" y="-175"/>
      <point x="104" y="-131" type="curve" smooth="yes"/>
      <point x="104" y="-89"/>
      <point x="73" y="-57"/>
    </contour>
    <contour>
      <point x="210" y="-57" type="curve"/>
      <point x="161" y="-57"/>
      <point x="132" y="-89"/>
      <point x="132" y="-131" type="curve" smooth="yes"/>
      <point x="132" y="-175"/>
      <point x="165" y="-206"/>
      <point x="210" y="-206" type="curve" smooth="yes"/>
      <point x="254" y="-206"/>
      <point x="288" y="-175"/>
      <point x="288" y="-131" type="curve" smooth="yes"/>
      <point x="288" y="-89"/>
      <point x="257" y="-57"/>
    </contour>
    <contour>
      <point x="119" y="-208" type="curve"/>
      <point x="72" y="-208"/>
      <point x="42" y="-239"/>
      <point x="42" y="-277" type="curve" smooth="yes"/>
      <point x="42" y="-319"/>
      <point x="76" y="-347"/>
      <point x="119" y="-347" type="curve" smooth="yes"/>
      <point x="161" y="-347"/>
      <point x="196" y="-319"/>
      <point x="196" y="-277" type="curve" smooth="yes"/>
      <point x="196" y="-239"/>
      <point x="164" y="-208"/>
    </contour>
  </outline>
</glyph>
<glyph name="Peh.medi.ur" format="1">
  <advance width="392"/>
  <outline>
    <contour>
      <point x="80" y="0" type="line"/>
      <point x="146" y="0"/>
      <point x="200" y="18"/>
      <point x="240" y="51" type="curve"/>
      <point x="282" y="17"/>
      <point x="341" y="0"/>
      <point x="422" y="0" type="curve" smooth="yes"/>
      <point x="429" y="0" type="line"/>
      <point x="438" y="13"/>
      <point x="448" y="41"/>
      <point x="448" y="68" type="curve" smooth="yes"/>
      <point x="448" y="99"/>
      <point x="440" y="126"/>
      <point x="428" y="140" type="curve"/>
      <point x="404" y="140" type="line" smooth="yes"/>
      <point x="374" y="140"/>
      <point x="329" y="150"/>
      <point x="312" y="163" type="curve"/>
      <point x="323" y="198"/>
      <point x="329" y="236"/>
      <point x="329" y="279" type="curve" smooth="yes"/>
      <point x="329" y="367"/>
      <point x="297" y="390"/>
      <point x="225" y="390" type="curve" smooth="yes"/>
      <point x="199" y="390"/>
      <point x="176" y="386"/>
      <point x="149" y="379" type="curve"/>
      <point x="151" y="352"/>
      <point x="152" y="307"/>
      <point x="152" y="276" type="curve" smooth="yes"/>
      <point x="152" y="177"/>
      <point x="102" y="141"/>
      <point x="42" y="140" type="curve"/>
      <point x="-2" y="140" type="line"/>
      <point x="-7" y="123"/>
      <point x="-9" y="107"/>
      <point x="-9" y="90" type="curve" smooth="yes"/>
      <point x="-9" y="51"/>
      <point x="9" y="17"/>
      <point x="34" y="0" type="curve"/>
    </contour>
    <contour>
      <point x="55" y="-57" type="curve"/>
      <point x="6" y="-57"/>
      <point x="-23" y="-89"/>
      <point x="-23" y="-131" type="curve" smooth="yes"/>
      <point x="-23" y="-175"/>
      <point x="10" y="-206"/>
      <point x="55" y="-206" type="curve" smooth="yes"/>
      <point x="99" y="-206"/>
      <point x="133" y="-175"/>
      <point x="133" y="-131" type="curve" smooth="yes"/>
      <point x="133" y="-89"/>
      <point x="102" y="-57"/>
    </contour>
    <contour>
      <point x="239" y="-57" type="curve"/>
      <point x="190" y="-57"/>
      <point x="161" y="-89"/>
      <point x="161" y="-131" type="curve" smooth="yes"/>
      <point x="161" y="-175"/>
      <point x="194" y="-206"/>
      <point x="239" y="-206" type="curve" smooth="yes"/>
      <point x="283" y="-206"/>
      <point x="317" y="-175"/>
      <point x="317" y="-131" type="curve" smooth="yes"/>
      <point x="317" y="-89"/>
      <point x="286" y="-57"/>
    </contour>
    <contour>
      <point x="148" y="-208" type="curve"/>
      <point x="101" y="-208"/>
      <point x="71" y="-239"/>
      <point x="71" y="-277" type="curve" smooth="yes"/>
      <point x="71" y="-319"/>
      <point x="105" y="-347"/>
      <point x="148" y="-347" type="curve" smooth="yes"/>
      <point x="190" y="-347"/>
      <point x="225" y="-319"/>
      <point x="225" y="-277" type="curve" smooth="yes"/>
      <point x="225" y="-239"/>
      <point x="193" y="-208"/>
    </contour>
  </outline>
</glyph>
<glyph name="Qaf.fina.ur" format="1">
  <advance width="825"/>
  <outline>
    <contour>
      <point x="368" y="-239" type="curve" smooth="yes"/>
      <point x="548" y="-239"/>
      <point x="689" y="-178"/>
      <point x="740" y="0" type="curve"/>
      <point x="863" y="0" type="line"/>
      <point x="872" y="13"/>
      <point x="882" y="41"/>
      <point x="882" y="68" type="curve" smooth="yes"/>
      <point x="882" y="99"/>
      <point x="874" y="126"/>
      <point x="862" y="140" type="curve"/>
      <point x="759" y="140" type="line"/>
      <point x="759" y="147"/>
      <point x="760" y="154"/>
      <point x="760" y="162" type="curve" smooth="yes"/>
      <point x="760" y="356"/>
      <point x="668" y="463"/>
      <point x="513" y="463" type="curve" smooth="yes"/>
      <point x="371" y="463"/>
      <point x="263" y="371"/>
      <point x="263" y="214" type="curve" smooth="yes"/>
      <point x="263" y="64"/>
      <point x="374" y="0"/>
      <point x="523" y="0" type="curve" smooth="yes"/>
      <point x="571" y="0" type="line"/>
      <point x="550" y="-54"/>
      <point x="487" y="-99"/>
      <point x="388" y="-99" type="curve" smooth="yes"/>
      <point x="270" y="-99"/>
      <point x="206" y="-54"/>
      <point x="206" y="87" type="curve" smooth="yes"/>
      <point x="206" y="138" type="line"/>
      <point x="189" y="143"/>
      <point x="161" y="148"/>
      <point x="135" y="148" type="curve" smooth="yes"/>
      <point x="57" y="148"/>
      <point x="28" y="117"/>
      <point x="28" y="40" type="curve" smooth="yes"/>
      <point x="28" y="-148"/>
      <point x="169" y="-239"/>
    </contour>
    <contour>
      <point x="547" y="134" type="line" smooth="yes"/>
      <point x="478" y="134"/>
      <point x="439" y="159"/>
      <point x="439" y="221" type="curve" smooth="yes"/>
      <point x="439" y="287"/>
      <point x="472" y="317"/>
      <point x="516" y="317" type="curve" smooth="yes"/>
      <point x="552" y="317"/>
      <point x="584" y="294"/>
      <point x="584" y="185" type="curve" smooth="yes"/>
      <point x="584" y="168"/>
      <point x="582" y="147"/>
      <point x="580" y="134" type="curve"/>
    </contour>
    <contour>
      <point x="435" y="517" type="curve"/>
      <point x="485" y="517"/>
      <point x="515" y="550"/>
      <point x="515" y="593" type="curve" smooth="yes"/>
      <point x="515" y="638"/>
      <point x="481" y="670"/>
      <point x="435" y="670" type="curve" smooth="yes"/>
      <point x="390" y="670"/>
      <point x="355" y="638"/>
      <point x="355" y="593" type="curve" smooth="yes"/>
      <point x="355" y="550"/>
      <point x="387" y="517"/>
    </contour>
    <contour>
      <point x="624" y="517" type="curve"/>
      <point x="674" y="517"/>
      <point x="704" y="550"/>
      <point x="704" y="593" type="curve" smooth="yes"/>
      <point x="704" y="638"/>
      <point x="670" y="670"/>
      <point x="624" y="670" type="curve" smooth="yes"/>
      <point x="579" y="670"/>
      <point x="544" y="638"/>
      <point x="544" y="593" type="curve" smooth="yes"/>
      <point x="544" y="550"/>
      <point x="576" y="517"/>
    </contour>
  </outline>
</glyph>
<glyph name="Qaf.init.ur" format="1">
  <advance width="576"/>
  <outline>
    <contour>
      <point x="-3" y="140" type="line"/>
      <point x="-8" y="123"/>
      <point x="-10" y="107"/>
      <point x="-10" y="90" type="curve" smooth="yes"/>
      <point x="-10" y="51"/>
      <point x="8" y="17"/>
      <point x="33" y="0" type="curve"/>
      <point x="259" y="0" type="line" smooth="yes"/>
      <point x="432" y="0"/>
      <point x="536" y="76"/>
      <point x="536" y="234" type="curve" smooth="yes"/>
      <point x="536" y="377"/>
      <point x="436" y="463"/>
      <point x="296" y="463" type="curve" smooth="yes"/>
      <point x="164" y="463"/>
      <point x="46" y="394"/>
      <point x="46" y="216" type="curve" smooth="yes"/>
      <point x="46" y="192"/>
      <point x="47" y="167"/>
      <point x="52" y="140" type="curve"/>
    </contour>
    <contour>
      <point x="357" y="236" type="curve"/>
      <point x="357" y="174"/>
      <point x="321" y="139"/>
      <point x="263" y="139" type="curve" smooth="yes"/>
      <point x="226" y="139" type="line"/>
      <point x="223" y="161"/>
      <point x="221" y="182"/>
      <point x="221" y="207" type="curve" smooth="yes"/>
      <point x="221" y="290"/>
      <point x="253" y="317"/>
      <point x="295" y="317" type="curve" smooth="yes"/>
      <point x="327" y="317"/>
      <point x="357" y="298"/>
    </contour>
    <contour>
      <point x="202" y="511" type="curve"/>
      <point x="252" y="511"/>
      <point x="282" y="544"/>
      <point x="282" y="587" type="curve" smooth="yes"/>
      <point x="282" y="632"/>
      <point x="248" y="664"/>
      <point x="202" y="664" type="curve" smooth="yes"/>
      <point x="157" y="664"/>
      <point x="122" y="632"/>
      <point x="122" y="587" type="curve" smooth="yes"/>
      <point x="122" y="544"/>
      <point x="154" y="511"/>
    </contour>
    <contour>
      <point x="391" y="511" type="curve"/>
      <point x="441" y="511"/>
      <point x="471" y="544"/>
      <point x="471" y="587" type="curve" smooth="yes"/>
      <point x="471" y="632"/>
      <point x="437" y="664"/>
      <point x="391" y="664" type="curve" smooth="yes"/>
      <point x="346" y="664"/>
      <point x="311" y="632"/>
      <point x="311" y="587" type="curve" smooth="yes"/>
      <point x="311" y="544"/>
      <point x="343" y="511"/>
    </contour>
  </outline>
</glyph>
<glyph name="Qaf.medi.ur" format="1">
  <advance width="579"/>
  <outline>
    <contour>
      <point x="294" y="132" type="curve"/>
      <point x="255" y="146"/>
      <point x="225" y="188"/>
      <point x="225" y="236" type="curve" smooth="yes"/>
      <point x="225" y="291"/>
      <point x="259" y="317"/>
      <point x="298" y="317" type="curve" smooth="yes"/>
      <point x="337" y="317"/>
      <point x="363" y="287"/>
      <point x="363" y="236" type="curve" smooth="yes"/>
      <point x="363" y="181"/>
      <point x="330" y="148"/>
    </contour>
    <contour>
      <point x="0" y="140" type="line"/>
      <point x="-5" y="123"/>
      <point x="-7" y="107"/>
      <point x="-7" y="90" type="curve" smooth="yes"/>
      <point x="-7" y="51"/>
      <point x="11" y="17"/>
      <point x="36" y="0" type="curve"/>
      <point x="616" y="0" type="line"/>
      <point x="625" y="13"/>
      <point x="635" y="41"/>
      <point x="635" y="68" type="curve" smooth="yes"/>
      <point x="635" y="99"/>
      <point x="627" y="126"/>
      <point x="615" y="140" type="curve"/>
      <point x="505" y="140" type="line"/>
      <point x="523" y="162"/>
      <point x="540" y="210"/>
      <point x="540" y="244" type="curve" smooth="yes"/>
      <point x="540" y="382"/>
      <point x="439" y="463"/>
      <point x="299" y="463" type="curve" smooth="yes"/>
      <point x="159" y="463"/>
      <point x="58" y="382"/>
      <point x="58" y="247" type="curve" smooth="yes"/>
      <point x="58" y="206"/>
      <point x="73" y="161"/>
      <point x="90" y="140" type="curve"/>
    </contour>
    <contour>
      <point x="205" y="511" type="curve"/>
      <point x="255" y="511"/>
      <point x="285" y="544"/>
      <point x="285" y="587" type="curve" smooth="yes"/>
      <point x="285" y="632"/>
      <point x="251" y="664"/>
      <point x="205" y="664" type="curve" smooth="yes"/>
      <point x="160" y="664"/>
      <point x="125" y="632"/>
      <point x="125" y="587" type="curve" smooth="yes"/>
      <point x="125" y="544"/>
      <point x="157" y="511"/>
    </contour>
    <contour>
      <point x="394" y="511" type="curve"/>
      <point x="444" y="511"/>
      <point x="474" y="544"/>
      <point x="474" y="587" type="curve" smooth="yes"/>
      <point x="474" y="632"/>
      <point x="440" y="664"/>
      <point x="394" y="664" type="curve" smooth="yes"/>
      <point x="349" y="664"/>
      <point x="314" y="632"/>
      <point x="314" y="587" type="curve" smooth="yes"/>
      <point x="314" y="544"/>
      <point x="346" y="511"/>
    </contour>
  </outline>
</glyph>
<glyph name="Reh.fina.ur" format="1">
  <advance width="317"/>
  <outline>
    <contour>
      <point x="-94" y="-101" type="curve"/>
      <point x="-103" y="-123"/>
      <point x="-107" y="-146"/>
      <point x="-107" y="-165" type="curve" smooth="yes"/>
      <point x="-107" y="-223"/>
      <point x="-72" y="-250"/>
      <point x="-13" y="-250" type="curve" smooth="yes"/>
      <point x="116" y="-250"/>
      <point x="231" y="-184"/>
      <point x="253" y="16" type="curve"/>
      <point x="280" y="7"/>
      <point x="310" y="0"/>
      <point x="349" y="0" type="curve" smooth="yes"/>
      <point x="356" y="0" type="line"/>
      <point x="365" y="13"/>
      <point x="374" y="41"/>
      <point x="374" y="68" type="curve" smooth="yes"/>
      <point x="374" y="99"/>
      <point x="367" y="126"/>
      <point x="355" y="140" type="curve"/>
      <point x="340" y="140" type="line" smooth="yes"/>
      <point x="317" y="140"/>
      <point x="282" y="144"/>
      <point x="257" y="151" type="curve"/>
      <point x="256" y="195"/>
      <point x="254" y="235"/>
      <point x="250" y="279" type="curve" smooth="yes"/>
      <point x="239" y="402"/>
      <point x="209" y="428"/>
      <point x="139" y="428" type="curve" smooth="yes"/>
      <point x="106" y="428"/>
      <point x="75" y="417"/>
      <point x="56" y="407" type="curve"/>
      <point x="66" y="347"/>
      <point x="78" y="212"/>
      <point x="78" y="89" type="curve" smooth="yes"/>
      <point x="78" y="-43"/>
      <point x="24" y="-102"/>
      <point x="-69" y="-102" type="curve" smooth="yes"/>
      <point x="-77" y="-102"/>
      <point x="-84" y="-102"/>
    </contour>
  </outline>
</glyph>
<glyph name="Rreh.fina.ur" format="1">
  <advance width="317"/>
  <outline>
    <contour>
      <point x="37" y="577" type="curve"/>
      <point x="20" y="579"/>
      <point x="4" y="582"/>
      <point x="-5" y="584" type="curve"/>
      <point x="-12" y="574"/>
      <point x="-18" y="556"/>
      <point x="-18" y="542" type="curve" smooth="yes"/>
      <point x="-18" y="510"/>
      <point x="-3" y="504"/>
      <point x="16" y="497" type="curve" smooth="yes"/>
      <point x="46" y="486"/>
      <point x="111" y="478"/>
      <point x="143" y="478" type="curve" smooth="yes"/>
      <point x="254" y="478"/>
      <point x="313" y="517"/>
      <point x="313" y="585" type="curve" smooth="yes"/>
      <point x="313" y="637"/>
      <point x="273" y="676"/>
      <point x="216" y="676" type="curve" smooth="yes"/>
      <point x="185" y="676"/>
      <point x="161" y="671"/>
      <point x="135" y="656" type="curve"/>
      <point x="135" y="698" type="line" smooth="yes"/>
      <point x="135" y="735"/>
      <point x="103" y="741"/>
      <point x="77" y="741" type="curve" smooth="yes"/>
      <point x="63" y="741"/>
      <point x="53" y="740"/>
      <point x="38" y="737" type="curve"/>
      <point x="38" y="730"/>
    </contour>
    <contour>
      <point x="214" y="583" type="curve"/>
      <point x="214" y="565"/>
      <point x="187" y="557"/>
      <point x="147" y="557" type="curve" smooth="yes"/>
      <point x="139" y="557"/>
      <point x="126" y="558"/>
      <point x="120" y="558" type="curve"/>
      <point x="135" y="581"/>
      <point x="165" y="600"/>
      <point x="191" y="600" type="curve" smooth="yes"/>
      <point x="205" y="600"/>
      <point x="214" y="595"/>
    </contour>
    <contour>
      <point x="-94" y="-101" type="curve"/>
      <point x="-103" y="-123"/>
      <point x="-107" y="-146"/>
      <point x="-107" y="-165" type="curve" smooth="yes"/>
      <point x="-107" y="-223"/>
      <point x="-72" y="-250"/>
      <point x="-13" y="-250" type="curve" smooth="yes"/>
      <point x="116" y="-250"/>
      <point x="231" y="-184"/>
      <point x="253" y="16" type="curve"/>
      <point x="280" y="7"/>
      <point x="310" y="0"/>
      <point x="349" y="0" type="curve" smooth="yes"/>
      <point x="356" y="0" type="line"/>
      <point x="365" y="13"/>
      <point x="374" y="41"/>
      <point x="374" y="68" type="curve" smooth="yes"/>
      <point x="374" y="99"/>
      <point x="367" y="126"/>
      <point x="355" y="140" type="curve"/>
      <point x="340" y="140" type="line" smooth="yes"/>
      <point x="317" y="140"/>
      <point x="282" y="144"/>
      <point x="257" y="151" type="curve"/>
      <point x="256" y="195"/>
      <point x="254" y="235"/>
      <point x="250" y="279" type="curve" smooth="yes"/>
      <point x="239" y="402"/>
      <point x="209" y="428"/>
      <point x="139" y="428" type="curve" smooth="yes"/>
      <point x="106" y="428"/>
      <point x="75" y="417"/>
      <point x="56" y="407" type="curve"/>
      <point x="66" y="347"/>
      <point x="78" y="212"/>
      <point x="78" y="89" type="curve" smooth="yes"/>
      <point x="78" y="-43"/>
      <point x="24" y="-102"/>
      <point x="-69" y="-102" type="curve" smooth="yes"/>
      <point x="-77" y="-102"/>
      <point x="-84" y="-102"/>
    </contour>
  </outline>
</glyph>
<glyph name="Seen.init.ur" format="1">
  <advance width="1001"/>
  <outline>
    <contour>
      <point x="398" y="0" type="curve" smooth="yes"/>
      <point x="467" y="0"/>
      <point x="520" y="18"/>
      <point x="554" y="57" type="curve"/>
      <point x="582" y="27"/>
      <point x="641" y="0"/>
      <point x="714" y="0" type="curve" smooth="yes"/>
      <point x="880" y="0"/>
      <point x="961" y="103"/>
      <point x="961" y="285" type="curve" smooth="yes"/>
      <point x="961" y="430"/>
      <point x="918" y="449"/>
      <point x="854" y="449" type="curve" smooth="yes"/>
      <point x="831" y="449"/>
      <point x="801" y="446"/>
      <point x="775" y="439" type="curve"/>
      <point x="778" y="407"/>
      <point x="781" y="354"/>
      <point x="781" y="286" type="curve" smooth="yes"/>
      <point x="781" y="194"/>
      <point x="753" y="141"/>
      <point x="693" y="141" type="curve" smooth="yes"/>
      <point x="669" y="141"/>
      <point x="643" y="149"/>
      <point x="632" y="164" type="curve"/>
      <point x="641" y="199"/>
      <point x="647" y="232"/>
      <point x="647" y="279" type="curve" smooth="yes"/>
      <point x="647" y="367"/>
      <point x="615" y="390"/>
      <point x="543" y="390" type="curve" smooth="yes"/>
      <point x="517" y="390"/>
      <point x="494" y="386"/>
      <point x="467" y="379" type="curve"/>
      <point x="469" y="352"/>
      <point x="470" y="307"/>
      <point x="470" y="276" type="curve" smooth="yes"/>
      <point x="470" y="175"/>
      <point x="435" y="140"/>
      <point x="378" y="140" type="curve" smooth="yes"/>
      <point x="354" y="140"/>
      <point x="328" y="148"/>
      <point x="317" y="163" type="curve"/>
      <point x="326" y="198"/>
      <point x="332" y="231"/>
      <point x="332" y="278" type="curve" smooth="yes"/>
      <point x="332" y="366"/>
      <point x="300" y="389"/>
      <point x="228" y="389" type="curve" smooth="yes"/>
      <point x="202" y="389"/>
      <point x="179" y="385"/>
      <point x="152" y="378" type="curve"/>
      <point x="154" y="351"/>
      <point x="155" y="306"/>
      <point x="155" y="275" type="curve" smooth="yes"/>
      <point x="155" y="176"/>
      <point x="103" y="141"/>
      <point x="47" y="140" type="curve"/>
      <point x="-2" y="140" type="line"/>
      <point x="-7" y="123"/>
      <point x="-9" y="107"/>
      <point x="-9" y="90" type="curve" smooth="yes"/>
      <point x="-9" y="51"/>
      <point x="9" y="17"/>
      <point x="34" y="0" type="curve"/>
      <point x="63" y="0" type="line" smooth="yes"/>
      <point x="140" y="0"/>
      <point x="208" y="27"/>
      <point x="239" y="56" type="curve"/>
      <point x="267" y="26"/>
      <point x="325" y="0"/>
    </contour>
  </outline>
</glyph>
<glyph name="Seh.medi.ur" format="1">
  <advance width="392"/>
  <outline>
    <contour>
      <point x="80" y="0" type="line" smooth="yes"/>
      <point x="146" y="0"/>
      <point x="200" y="18"/>
      <point x="240" y="51" type="curve"/>
      <point x="282" y="17"/>
      <point x="341" y="0"/>
      <point x="422" y="0" type="curve" smooth="yes"/>
      <point x="429" y="0" type="line"/>
      <point x="438" y="13"/>
      <point x="448" y="41"/>
      <point x="448" y="68" type="curve" smooth="yes"/>
      <point x="448" y="99"/>
      <point x="440" y="126"/>
      <point x="428" y="140" type="curve"/>
      <point x="404" y="140" type="line" smooth="yes"/>
      <point x="374" y="140"/>
      <point x="329" y="150"/>
      <point x="312" y="163" type="curve"/>
      <point x="323" y="198"/>
      <point x="329" y="236"/>
      <point x="329" y="279" type="curve" smooth="yes"/>
      <point x="329" y="367"/>
      <point x="297" y="390"/>
      <point x="225" y="390" type="curve" smooth="yes"/>
      <point x="199" y="390"/>
      <point x="176" y="386"/>
      <point x="149" y="379" type="curve"/>
      <point x="151" y="352"/>
      <point x="152" y="307"/>
      <point x="152" y="276" type="curve" smooth="yes"/>
      <point x="152" y="177"/>
      <point x="102" y="141"/>
      <point x="42" y="140" type="curve"/>
      <point x="-2" y="140" type="line"/>
      <point x="-7" y="123"/>
      <point x="-9" y="107"/>
      <point x="-9" y="90" type="curve" smooth="yes"/>
      <point x="-9" y="51"/>
      <point x="9" y="17"/>
      <point x="34" y="0" type="curve"/>
    </contour>
    <contour>
      <point x="287" y="440" type="curve" smooth="yes"/>
      <point x="336" y="440"/>
      <point x="365" y="472"/>
      <point x="365" y="514" type="curve" smooth="yes"/>
      <point x="365" y="558"/>
      <point x="332" y="589"/>
      <point x="287" y="589" type="curve" smooth="yes"/>
      <point x="243" y="589"/>
      <point x="209" y="558"/>
      <point x="209" y="514" type="curve" smooth="yes"/>
      <point x="209" y="472"/>
      <point x="240" y="440"/>
    </contour>
    <contour>
      <point x="103" y="440" type="curve" smooth="yes"/>
      <point x="152" y="440"/>
      <point x="181" y="472"/>
      <point x="181" y="514" type="curve" smooth="yes"/>
      <point x="181" y="558"/>
      <point x="148" y="589"/>
      <point x="103" y="589" type="curve" smooth="yes"/>
      <point x="59" y="589"/>
      <point x="25" y="558"/>
      <point x="25" y="514" type="curve" smooth="yes"/>
      <point x="25" y="472"/>
      <point x="56" y="440"/>
    </contour>
    <contour>
      <point x="194" y="591" type="curve" smooth="yes"/>
      <point x="241" y="591"/>
      <point x="271" y="622"/>
      <point x="271" y="660" type="curve" smooth="yes"/>
      <point x="271" y="702"/>
      <point x="237" y="730"/>
      <point x="194" y="730" type="curve" smooth="yes"/>
      <point x="152" y="730"/>
      <point x="117" y="702"/>
      <point x="117" y="660" type="curve" smooth="yes"/>
      <point x="117" y="622"/>
      <point x="149" y="591"/>
    </contour>
  </outline>
</glyph>
<glyph name="Sheen.init.ur" format="1">
  <advance width="1001"/>
  <outline>
    <contour>
      <point x="398" y="0" type="curve"/>
      <point x="467" y="0"/>
      <point x="520" y="18"/>
      <point x="554" y="57" type="curve"/>
      <point x="582" y="27"/>
      <point x="641" y="0"/>
      <point x="714" y="0" type="curve" smooth="yes"/>
      <point x="880" y="0"/>
      <point x="961" y="103"/>
      <point x="961" y="285" type="curve" smooth="yes"/>
      <point x="961" y="430"/>
      <point x="918" y="449"/>
      <point x="854" y="449" type="curve" smooth="yes"/>
      <point x="831" y="449"/>
      <point x="801" y="446"/>
      <point x="775" y="439" type="curve"/>
      <point x="778" y="407"/>
      <point x="781" y="354"/>
      <point x="781" y="286" type="curve" smooth="yes"/>
      <point x="781" y="194"/>
      <point x="753" y="141"/>
      <point x="693" y="141" type="curve" smooth="yes"/>
      <point x="669" y="141"/>
      <point x="643" y="149"/>
      <point x="632" y="164" type="curve"/>
      <point x="641" y="199"/>
      <point x="647" y="232"/>
      <point x="647" y="279" type="curve" smooth="yes"/>
      <point x="647" y="367"/>
      <point x="615" y="390"/>
      <point x="543" y="390" type="curve" smooth="yes"/>
      <point x="517" y="390"/>
      <point x="494" y="386"/>
      <point x="467" y="379" type="curve"/>
      <point x="469" y="352"/>
      <point x="470" y="307"/>
      <point x="470" y="276" type="curve" smooth="yes"/>
      <point x="470" y="175"/>
      <point x="435" y="140"/>
      <point x="378" y="140" type="curve" smooth="yes"/>
      <point x="354" y="140"/>
      <point x="328" y="148"/>
      <point x="317" y="163" type="curve"/>
      <point x="326" y="198"/>
      <point x="332" y="231"/>
      <point x="332" y="278" type="curve" smooth="yes"/>
      <point x="332" y="366"/>
      <point x="300" y="389"/>
      <point x="228" y="389" type="curve" smooth="yes"/>
      <point x="202" y="389"/>
      <point x="179" y="385"/>
      <point x="152" y="378" type="curve"/>
      <point x="154" y="351"/>
      <point x="155" y="306"/>
      <point x="155" y="275" type="curve" smooth="yes"/>
      <point x="155" y="176"/>
      <point x="103" y="141"/>
      <point x="47" y="140" type="curve"/>
      <point x="-2" y="140" type="line"/>
      <point x="-7" y="123"/>
      <point x="-9" y="107"/>
      <point x="-9" y="90" type="curve" smooth="yes"/>
      <point x="-9" y="51"/>
      <point x="9" y="17"/>
      <point x="34" y="0" type="curve"/>
      <point x="63" y="0" type="line" smooth="yes"/>
      <point x="140" y="0"/>
      <point x="208" y="27"/>
      <point x="239" y="56" type="curve"/>
      <point x="267" y="26"/>
      <point x="325" y="0"/>
    </contour>
    <contour>
      <point x="630" y="449" type="curve"/>
      <point x="679" y="449"/>
      <point x="708" y="481"/>
      <point x="708" y="523" type="curve" smooth="yes"/>
      <point x="708" y="567"/>
      <point x="675" y="598"/>
      <point x="630" y="598" type="curve" smooth="yes"/>
      <point x="586" y="598"/>
      <point x="552" y="567"/>
      <point x="552" y="523" type="curve" smooth="yes"/>
      <point x="552" y="481"/>
      <point x="583" y="449"/>
    </contour>
    <contour>
      <point x="446" y="449" type="curve"/>
      <point x="495" y="449"/>
      <point x="524" y="481"/>
      <point x="524" y="523" type="curve" smooth="yes"/>
      <point x="524" y="567"/>
      <point x="491" y="598"/>
      <point x="446" y="598" type="curve" smooth="yes"/>
      <point x="402" y="598"/>
      <point x="368" y="567"/>
      <point x="368" y="523" type="curve" smooth="yes"/>
      <point x="368" y="481"/>
      <point x="399" y="449"/>
    </contour>
    <contour>
      <point x="537" y="600" type="curve"/>
      <point x="584" y="600"/>
      <point x="614" y="631"/>
      <point x="614" y="669" type="curve" smooth="yes"/>
      <point x="614" y="711"/>
      <point x="580" y="739"/>
      <point x="537" y="739" type="curve" smooth="yes"/>
      <point x="495" y="739"/>
      <point x="460" y="711"/>
      <point x="460" y="669" type="curve" smooth="yes"/>
      <point x="460" y="631"/>
      <point x="492" y="600"/>
    </contour>
  </outline>
</glyph>
<glyph name="Tcheh.init.ur" format="1">
  <advance width="519"/>
  <outline>
    <contour>
      <point x="-2" y="140" type="line"/>
      <point x="-7" y="123"/>
      <point x="-9" y="107"/>
      <point x="-9" y="90" type="curve" smooth="yes"/>
      <point x="-9" y="51"/>
      <point x="9" y="17"/>
      <point x="34" y="0" type="curve"/>
      <point x="448" y="0" type="line"/>
      <point x="466" y="30"/>
      <point x="479" y="73"/>
      <point x="479" y="123" type="curve" smooth="yes"/>
      <point x="479" y="308"/>
      <point x="320" y="469"/>
      <point x="147" y="469" type="curve" smooth="yes"/>
      <point x="74" y="469"/>
      <point x="34" y="438"/>
      <point x="34" y="386" type="curve" smooth="yes"/>
      <point x="34" y="355"/>
      <point x="43" y="334"/>
      <point x="52" y="319" type="curve"/>
      <point x="74" y="319" type="line" smooth="yes"/>
      <point x="190" y="319"/>
      <point x="292" y="247"/>
      <point x="294" y="140" type="curve"/>
    </contour>
    <contour>
      <point x="90" y="-57" type="curve"/>
      <point x="41" y="-57"/>
      <point x="12" y="-89"/>
      <point x="12" y="-131" type="curve" smooth="yes"/>
      <point x="12" y="-175"/>
      <point x="45" y="-206"/>
      <point x="90" y="-206" type="curve" smooth="yes"/>
      <point x="134" y="-206"/>
      <point x="168" y="-175"/>
      <point x="168" y="-131" type="curve" smooth="yes"/>
      <point x="168" y="-89"/>
      <point x="137" y="-57"/>
    </contour>
    <contour>
      <point x="274" y="-57" type="curve"/>
      <point x="225" y="-57"/>
      <point x="196" y="-89"/>
      <point x="196" y="-131" type="curve" smooth="yes"/>
      <point x="196" y="-175"/>
      <point x="229" y="-206"/>
      <point x="274" y="-206" type="curve" smooth="yes"/>
      <point x="318" y="-206"/>
      <point x="352" y="-175"/>
      <point x="352" y="-131" type="curve" smooth="yes"/>
      <point x="352" y="-89"/>
      <point x="321" y="-57"/>
    </contour>
    <contour>
      <point x="183" y="-208" type="curve"/>
      <point x="136" y="-208"/>
      <point x="106" y="-239"/>
      <point x="106" y="-277" type="curve" smooth="yes"/>
      <point x="106" y="-319"/>
      <point x="140" y="-347"/>
      <point x="183" y="-347" type="curve" smooth="yes"/>
      <point x="225" y="-347"/>
      <point x="260" y="-319"/>
      <point x="260" y="-277" type="curve" smooth="yes"/>
      <point x="260" y="-239"/>
      <point x="228" y="-208"/>
    </contour>
  </outline>
</glyph>
<glyph name="Tcheh.medi.ur" format="1">
  <advance width="514"/>
  <outline>
    <contour>
      <point x="-3" y="140" type="line"/>
      <point x="-8" y="123"/>
      <point x="-10" y="107"/>
      <point x="-10" y="90" type="curve" smooth="yes"/>
      <point x="-10" y="51"/>
      <point x="8" y="17"/>
      <point x="33" y="0" type="curve"/>
      <point x="551" y="0" type="line"/>
      <point x="560" y="13"/>
      <point x="569" y="41"/>
      <point x="569" y="68" type="curve" smooth="yes"/>
      <point x="569" y="99"/>
      <point x="562" y="126"/>
      <point x="550" y="140" type="curve"/>
      <point x="477" y="140" type="line"/>
      <point x="468" y="318"/>
      <point x="313" y="469"/>
      <point x="146" y="469" type="curve" smooth="yes"/>
      <point x="73" y="469"/>
      <point x="33" y="438"/>
      <point x="33" y="386" type="curve" smooth="yes"/>
      <point x="33" y="355"/>
      <point x="42" y="334"/>
      <point x="51" y="319" type="curve"/>
      <point x="73" y="319" type="line" smooth="yes"/>
      <point x="189" y="319"/>
      <point x="291" y="247"/>
      <point x="293" y="140" type="curve"/>
    </contour>
    <contour>
      <point x="273" y="-58" type="curve"/>
      <point x="224" y="-58"/>
      <point x="195" y="-90"/>
      <point x="195" y="-132" type="curve" smooth="yes"/>
      <point x="195" y="-176"/>
      <point x="228" y="-207"/>
      <point x="273" y="-207" type="curve" smooth="yes"/>
      <point x="317" y="-207"/>
      <point x="351" y="-176"/>
      <point x="351" y="-132" type="curve" smooth="yes"/>
      <point x="351" y="-90"/>
      <point x="320" y="-58"/>
    </contour>
    <contour>
      <point x="89" y="-58" type="curve"/>
      <point x="40" y="-58"/>
      <point x="11" y="-90"/>
      <point x="11" y="-132" type="curve" smooth="yes"/>
      <point x="11" y="-176"/>
      <point x="44" y="-207"/>
      <point x="89" y="-207" type="curve" smooth="yes"/>
      <point x="133" y="-207"/>
      <point x="167" y="-176"/>
      <point x="167" y="-132" type="curve" smooth="yes"/>
      <point x="167" y="-90"/>
      <point x="136" y="-58"/>
    </contour>
    <contour>
      <point x="182" y="-209" type="curve"/>
      <point x="135" y="-209"/>
      <point x="105" y="-240"/>
      <point x="105" y="-278" type="curve" smooth="yes"/>
      <point x="105" y="-320"/>
      <point x="139" y="-348"/>
      <point x="182" y="-348" type="curve" smooth="yes"/>
      <point x="224" y="-348"/>
      <point x="259" y="-320"/>
      <point x="259" y="-278" type="curve" smooth="yes"/>
      <point x="259" y="-240"/>
      <point x="227" y="-209"/>
    </contour>
  </outline>
</glyph>
<glyph name="Teh.init.ur" format="1">
  <advance width="380"/>
  <outline>
    <contour>
      <point x="-2" y="140" type="line"/>
      <point x="-7" y="123"/>
      <point x="-9" y="107"/>
      <point x="-9" y="90" type="curve" smooth="yes"/>
      <point x="-9" y="51"/>
      <point x="9" y="17"/>
      <point x="34" y="0" type="curve"/>
      <point x="74" y="0" type="line" smooth="yes"/>
      <point x="240" y="0"/>
      <point x="340" y="103"/>
      <point x="340" y="285" type="curve" smooth="yes"/>
      <point x="340" y="430"/>
      <point x="297" y="449"/>
      <point x="233" y="449" type="curve" smooth="yes"/>
      <point x="210" y="449"/>
      <point x="180" y="446"/>
      <point x="154" y="439" type="curve"/>
      <point x="157" y="407"/>
      <point x="160" y="354"/>
      <point x="160" y="286" type="curve" smooth="yes"/>
      <point x="160" y="196"/>
      <point x="119" y="140"/>
      <point x="52" y="140" type="curve" smooth="yes"/>
    </contour>
    <contour>
      <point x="272" y="510" type="curve"/>
      <point x="322" y="510"/>
      <point x="352" y="543"/>
      <point x="352" y="586" type="curve" smooth="yes"/>
      <point x="352" y="631"/>
      <point x="318" y="663"/>
      <point x="272" y="663" type="curve" smooth="yes"/>
      <point x="227" y="663"/>
      <point x="192" y="631"/>
      <point x="192" y="586" type="curve" smooth="yes"/>
      <point x="192" y="543"/>
      <point x="224" y="510"/>
    </contour>
    <contour>
      <point x="83" y="510" type="curve"/>
      <point x="133" y="510"/>
      <point x="163" y="543"/>
      <point x="163" y="586" type="curve" smooth="yes"/>
      <point x="163" y="631"/>
      <point x="129" y="663"/>
      <point x="83" y="663" type="curve" smooth="yes"/>
      <point x="38" y="663"/>
      <point x="3" y="631"/>
      <point x="3" y="586" type="curve" smooth="yes"/>
      <point x="3" y="543"/>
      <point x="35" y="510"/>
    </contour>
  </outline>
</glyph>
<glyph name="Veh.init.ar" format="1">
  <advance width="576"/>
  <outline>
    <contour>
      <point x="-10" y="90" type="curve"/>
      <point x="-10" y="51"/>
      <point x="8" y="17"/>
      <point x="33" y="0" type="curve"/>
      <point x="259" y="0" type="line" smooth="yes"/>
      <point x="432" y="0"/>
      <point x="536" y="76"/>
      <point x="536" y="234" type="curve" smooth="yes"/>
      <point x="536" y="377"/>
      <point x="436" y="463"/>
      <point x="296" y="463" type="curve" smooth="yes"/>
      <point x="164" y="463"/>
      <point x="46" y="394"/>
      <point x="46" y="216" type="curve" smooth="yes"/>
      <point x="46" y="192"/>
      <point x="47" y="167"/>
      <point x="52" y="140" type="curve"/>
      <point x="-3" y="140" type="line"/>
      <point x="-8" y="123"/>
      <point x="-10" y="107"/>
    </contour>
    <contour>
      <point x="357" y="236" type="curve"/>
      <point x="357" y="174"/>
      <point x="321" y="139"/>
      <point x="263" y="139" type="curve" smooth="yes"/>
      <point x="226" y="139" type="line"/>
      <point x="223" y="161"/>
      <point x="221" y="182"/>
      <point x="221" y="207" type="curve" smooth="yes"/>
      <point x="221" y="290"/>
      <point x="253" y="317"/>
      <point x="295" y="317" type="curve" smooth="yes"/>
      <point x="327" y="317"/>
      <point x="357" y="298"/>
    </contour>
    <contour>
      <point x="385" y="513" type="curve"/>
      <point x="434" y="513"/>
      <point x="463" y="545"/>
      <point x="463" y="587" type="curve" smooth="yes"/>
      <point x="463" y="631"/>
      <point x="430" y="662"/>
      <point x="385" y="662" type="curve" smooth="yes"/>
      <point x="341" y="662"/>
      <point x="307" y="631"/>
      <point x="307" y="587" type="curve" smooth="yes"/>
      <point x="307" y="545"/>
      <point x="338" y="513"/>
    </contour>
    <contour>
      <point x="201" y="513" type="curve"/>
      <point x="250" y="513"/>
      <point x="279" y="545"/>
      <point x="279" y="587" type="curve" smooth="yes"/>
      <point x="279" y="631"/>
      <point x="246" y="662"/>
      <point x="201" y="662" type="curve" smooth="yes"/>
      <point x="157" y="662"/>
      <point x="123" y="631"/>
      <point x="123" y="587" type="curve" smooth="yes"/>
      <point x="123" y="545"/>
      <point x="154" y="513"/>
    </contour>
    <contour>
      <point x="292" y="664" type="curve"/>
      <point x="339" y="664"/>
      <point x="369" y="695"/>
      <point x="369" y="733" type="curve" smooth="yes"/>
      <point x="369" y="775"/>
      <point x="335" y="803"/>
      <point x="292" y="803" type="curve" smooth="yes"/>
      <point x="250" y="803"/>
      <point x="215" y="775"/>
      <point x="215" y="733" type="curve" smooth="yes"/>
      <point x="215" y="695"/>
      <point x="247" y="664"/>
    </contour>
  </outline>
</glyph>
<glyph name="Veh.medi.ar" format="1">
  <advance width="578"/>
  <outline>
    <contour>
      <point x="294" y="132" type="curve"/>
      <point x="255" y="146"/>
      <point x="225" y="188"/>
      <point x="225" y="236" type="curve" smooth="yes"/>
      <point x="225" y="291"/>
      <point x="259" y="317"/>
      <point x="298" y="317" type="curve" smooth="yes"/>
      <point x="337" y="317"/>
      <point x="363" y="287"/>
      <point x="363" y="236" type="curve" smooth="yes"/>
      <point x="363" y="181"/>
      <point x="330" y="148"/>
    </contour>
    <contour>
      <point x="0" y="140" type="line"/>
      <point x="-5" y="123"/>
      <point x="-7" y="107"/>
      <point x="-7" y="90" type="curve" smooth="yes"/>
      <point x="-7" y="51"/>
      <point x="11" y="17"/>
      <point x="36" y="0" type="curve"/>
      <point x="616" y="0" type="line"/>
      <point x="625" y="13"/>
      <point x="635" y="41"/>
      <point x="635" y="68" type="curve" smooth="yes"/>
      <point x="635" y="99"/>
      <point x="627" y="126"/>
      <point x="615" y="140" type="curve"/>
      <point x="505" y="140" type="line"/>
      <point x="523" y="162"/>
      <point x="540" y="210"/>
      <point x="540" y="244" type="curve" smooth="yes"/>
      <point x="540" y="382"/>
      <point x="439" y="463"/>
      <point x="299" y="463" type="curve" smooth="yes"/>
      <point x="159" y="463"/>
      <point x="58" y="382"/>
      <point x="58" y="247" type="curve" smooth="yes"/>
      <point x="58" y="206"/>
      <point x="73" y="161"/>
      <point x="90" y="140" type="curve"/>
    </contour>
    <contour>
      <point x="201" y="513" type="curve"/>
      <point x="250" y="513"/>
      <point x="279" y="545"/>
      <point x="279" y="587" type="curve" smooth="yes"/>
      <point x="279" y="631"/>
      <point x="246" y="662"/>
      <point x="201" y="662" type="curve" smooth="yes"/>
      <point x="157" y="662"/>
      <point x="123" y="631"/>
      <point x="123" y="587" type="curve" smooth="yes"/>
      <point x="123" y="545"/>
      <point x="154" y="513"/>
    </contour>
    <contour>
      <point x="385" y="513" type="curve"/>
      <point x="434" y="513"/>
      <point x="463" y="545"/>
      <point x="463" y="587" type="curve" smooth="yes"/>
      <point x="463" y="631"/>
      <point x="430" y="662"/>
      <point x="385" y="662" type="curve" smooth="yes"/>
      <point x="341" y="662"/>
      <point x="307" y="631"/>
      <point x="307" y="587" type="curve" smooth="yes"/>
      <point x="307" y="545"/>
      <point x="338" y="513"/>
    </contour>
    <contour>
      <point x="292" y="664" type="curve"/>
      <point x="339" y="664"/>
      <point x="369" y="695"/>
      <point x="369" y="733" type="curve" smooth="yes"/>
      <point x="369" y="775"/>
      <point x="335" y="803"/>
      <point x="292" y="803" type="curve" smooth="yes"/>
      <point x="250" y="803"/>
      <point x="215" y="775"/>
      <point x="215" y="733" type="curve" smooth="yes"/>
      <point x="215" y="695"/>
      <point x="247" y="664"/>
    </contour>
  </outline>
</glyph>
<glyph name="YeBariHamzaAbove.fina.ur" format="1">
  <advance width="608"/>
  <outline>
    <contour>
      <point x="468" y="-245" type="line"/>
      <point x="504" y="-245"/>
      <point x="529" y="-224"/>
      <point x="529" y="-174" type="curve" smooth="yes"/>
      <point x="529" y="-146"/>
      <point x="520" y="-119"/>
      <point x="511" y="-105" type="curve"/>
      <point x="304" y="-105" type="line" smooth="yes"/>
      <point x="256" y="-105"/>
      <point x="224" y="-89"/>
      <point x="224" y="-55" type="curve" smooth="yes"/>
      <point x="224" y="-17"/>
      <point x="249" y="0"/>
      <point x="301" y="0" type="curve" smooth="yes"/>
      <point x="646" y="0" type="line"/>
      <point x="655" y="13"/>
      <point x="665" y="41"/>
      <point x="665" y="68" type="curve" smooth="yes"/>
      <point x="665" y="99"/>
      <point x="657" y="126"/>
      <point x="645" y="140" type="curve"/>
      <point x="271" y="140" type="line" smooth="yes"/>
      <point x="127" y="140"/>
      <point x="40" y="69"/>
      <point x="40" y="-48" type="curve" smooth="yes"/>
      <point x="40" y="-164"/>
      <point x="114" y="-245"/>
      <point x="294" y="-245" type="curve" smooth="yes"/>
    </contour>
    <contour>
      <point x="336" y="267" type="line" smooth="yes"/>
      <point x="308" y="267"/>
      <point x="296" y="279"/>
      <point x="296" y="298" type="curve" smooth="yes"/>
      <point x="296" y="320"/>
      <point x="316" y="330"/>
      <point x="335" y="330" type="curve" smooth="yes"/>
      <point x="346" y="330"/>
      <point x="356" y="328"/>
      <point x="364" y="325" type="curve"/>
      <point x="372" y="333"/>
      <point x="375" y="346"/>
      <point x="375" y="356" type="curve" smooth="yes"/>
      <point x="375" y="384"/>
      <point x="353" y="406"/>
      <point x="302" y="406" type="curve" smooth="yes"/>
      <point x="237" y="406"/>
      <point x="192" y="373"/>
      <point x="192" y="323" type="curve" smooth="yes"/>
      <point x="192" y="292"/>
      <point x="210" y="275"/>
      <point x="222" y="267" type="curve"/>
      <point x="188" y="267" type="line" smooth="yes"/>
      <point x="164" y="267"/>
      <point x="153" y="248"/>
      <point x="153" y="224" type="curve" smooth="yes"/>
      <point x="153" y="210"/>
      <point x="158" y="196"/>
      <point x="163" y="190" type="curve"/>
      <point x="338" y="190" type="line" smooth="yes"/>
      <point x="376" y="190"/>
      <point x="390" y="204"/>
      <point x="390" y="232" type="curve" smooth="yes"/>
      <point x="390" y="245"/>
      <point x="385" y="259"/>
      <point x="379" y="267" type="curve"/>
    </contour>
  </outline>
</glyph>
<glyph name="YeBari.fina.ur" format="1">
  <advance width="608"/>
  <outline>
    <contour>
      <point x="468" y="-245" type="line"/>
      <point x="504" y="-245"/>
      <point x="529" y="-224"/>
      <point x="529" y="-174" type="curve" smooth="yes"/>
      <point x="529" y="-146"/>
      <point x="520" y="-119"/>
      <point x="511" y="-105" type="curve"/>
      <point x="304" y="-105" type="line" smooth="yes"/>
      <point x="256" y="-105"/>
      <point x="224" y="-89"/>
      <point x="224" y="-55" type="curve" smooth="yes"/>
      <point x="224" y="-17"/>
      <point x="249" y="0"/>
      <point x="301" y="0" type="curve" smooth="yes"/>
      <point x="646" y="0" type="line"/>
      <point x="655" y="13"/>
      <point x="665" y="41"/>
      <point x="665" y="68" type="curve" smooth="yes"/>
      <point x="665" y="99"/>
      <point x="657" y="126"/>
      <point x="645" y="140" type="curve"/>
      <point x="271" y="140" type="line" smooth="yes"/>
      <point x="127" y="140"/>
      <point x="40" y="69"/>
      <point x="40" y="-48" type="curve" smooth="yes"/>
      <point x="40" y="-164"/>
      <point x="114" y="-245"/>
      <point x="294" y="-245" type="curve" smooth="yes"/>
    </contour>
  </outline>
</glyph>
<glyph name="YeChoti.init.ur" format="1">
  <advance width="380"/>
  <outline>
    <contour>
      <point x="-2" y="140" type="line"/>
      <point x="-7" y="123"/>
      <point x="-9" y="107"/>
      <point x="-9" y="90" type="curve" smooth="yes"/>
      <point x="-9" y="51"/>
      <point x="9" y="17"/>
      <point x="34" y="0" type="curve"/>
      <point x="74" y="0" type="line" smooth="yes"/>
      <point x="240" y="0"/>
      <point x="340" y="103"/>
      <point x="340" y="285" type="curve" smooth="yes"/>
      <point x="340" y="430"/>
      <point x="297" y="449"/>
      <point x="233" y="449" type="curve" smooth="yes"/>
      <point x="210" y="449"/>
      <point x="180" y="446"/>
      <point x="154" y="439" type="curve"/>
      <point x="157" y="407"/>
      <point x="160" y="354"/>
      <point x="160" y="286" type="curve" smooth="yes"/>
      <point x="160" y="196"/>
      <point x="119" y="140"/>
      <point x="52" y="140" type="curve" smooth="yes"/>
    </contour>
    <contour>
      <point x="220" y="-215" type="curve"/>
      <point x="270" y="-215"/>
      <point x="300" y="-182"/>
      <point x="300" y="-139" type="curve" smooth="yes"/>
      <point x="300" y="-94"/>
      <point x="266" y="-62"/>
      <point x="220" y="-62" type="curve" smooth="yes"/>
      <point x="175" y="-62"/>
      <point x="140" y="-94"/>
      <point x="140" y="-139" type="curve" smooth="yes"/>
      <point x="140" y="-182"/>
      <point x="172" y="-215"/>
    </contour>
    <contour>
      <point x="31" y="-215" type="curve"/>
      <point x="81" y="-215"/>
      <point x="111" y="-182"/>
      <point x="111" y="-139" type="curve" smooth="yes"/>
      <point x="111" y="-94"/>
      <point x="77" y="-62"/>
      <point x="31" y="-62" type="curve" smooth="yes"/>
      <point x="-14" y="-62"/>
      <point x="-49" y="-94"/>
      <point x="-49" y="-139" type="curve" smooth="yes"/>
      <point x="-49" y="-182"/>
      <point x="-17" y="-215"/>
    </contour>
  </outline>
</glyph>
<glyph name="Zoe.medi.ur" format="1">
  <advance width="834"/>
  <outline>
    <contour>
      <point x="844" y="140" type="line"/>
      <point x="815" y="140"/>
      <point x="768" y="150"/>
      <point x="752" y="171" type="curve"/>
      <point x="764" y="198"/>
      <point x="770" y="229"/>
      <point x="770" y="262" type="curve" smooth="yes"/>
      <point x="770" y="393"/>
      <point x="671" y="471"/>
      <point x="532" y="471" type="curve" smooth="yes"/>
      <point x="423" y="471"/>
      <point x="330" y="435"/>
      <point x="234" y="356" type="curve"/>
      <point x="236" y="393"/>
      <point x="238" y="427"/>
      <point x="238" y="451" type="curve" smooth="yes"/>
      <point x="238" y="531" type="line" smooth="yes"/>
      <point x="238" y="596"/>
      <point x="197" y="608"/>
      <point x="142" y="608" type="curve" smooth="yes"/>
      <point x="112" y="608"/>
      <point x="77" y="602"/>
      <point x="62" y="600" type="curve"/>
      <point x="62" y="140" type="line"/>
      <point x="-3" y="140" type="line"/>
      <point x="-8" y="123"/>
      <point x="-10" y="107"/>
      <point x="-10" y="90" type="curve" smooth="yes"/>
      <point x="-10" y="51"/>
      <point x="8" y="17"/>
      <point x="33" y="0" type="curve"/>
      <point x="317" y="0" type="line" smooth="yes"/>
      <point x="469" y="0"/>
      <point x="581" y="24"/>
      <point x="655" y="67" type="curve"/>
      <point x="706" y="16"/>
      <point x="782" y="0"/>
      <point x="862" y="0" type="curve" smooth="yes"/>
      <point x="869" y="0" type="line"/>
      <point x="878" y="13"/>
      <point x="888" y="41"/>
      <point x="888" y="68" type="curve" smooth="yes"/>
      <point x="888" y="99"/>
      <point x="880" y="126"/>
      <point x="868" y="140" type="curve"/>
    </contour>
    <contour>
      <point x="587" y="258" type="curve"/>
      <point x="587" y="183"/>
      <point x="468" y="146"/>
      <point x="343" y="146" type="curve" smooth="yes"/>
      <point x="221" y="146" type="line"/>
      <point x="297" y="251"/>
      <point x="411" y="324"/>
      <point x="499" y="324" type="curve" smooth="yes"/>
      <point x="547" y="324"/>
      <point x="587" y="306"/>
    </contour>
    <contour>
      <point x="498" y="527" type="curve"/>
      <point x="549" y="527"/>
      <point x="580" y="560"/>
      <point x="580" y="603" type="curve" smooth="yes"/>
      <point x="580" y="648"/>
      <point x="545" y="680"/>
      <point x="498" y="680" type="curve" smooth="yes"/>
      <point x="452" y="680"/>
      <point x="416" y="648"/>
      <point x="416" y="603" type="curve" smooth="yes"/>
      <point x="416" y="560"/>
      <point x="449" y="527"/>
    </contour>
  </outline>
</glyph>
<glyph name="Zwad.fina.ur" format="1">
  <advance width="1311"/>
  <outline>
    <contour>
      <point x="223" y="135" type="curve"/>
      <point x="223" y="164"/>
      <point x="224" y="237"/>
      <point x="225" y="263" type="curve"/>
      <point x="206" y="270"/>
      <point x="178" y="274"/>
      <point x="154" y="274" type="curve" smooth="yes"/>
      <point x="85" y="274"/>
      <point x="40" y="252"/>
      <point x="40" y="100" type="curve" smooth="yes"/>
      <point x="40" y="-134"/>
      <point x="158" y="-254"/>
      <point x="369" y="-254" type="curve" smooth="yes"/>
      <point x="559" y="-254"/>
      <point x="669" y="-179"/>
      <point x="693" y="12" type="curve"/>
      <point x="735" y="4"/>
      <point x="780" y="0"/>
      <point x="826" y="0" type="curve" smooth="yes"/>
      <point x="947" y="0"/>
      <point x="1049" y="23"/>
      <point x="1121" y="67" type="curve"/>
      <point x="1192" y="0"/>
      <point x="1271" y="0"/>
      <point x="1342" y="0" type="curve" smooth="yes"/>
      <point x="1349" y="0" type="line"/>
      <point x="1357" y="13"/>
      <point x="1367" y="41"/>
      <point x="1367" y="68" type="curve" smooth="yes"/>
      <point x="1367" y="99"/>
      <point x="1359" y="126"/>
      <point x="1348" y="140" type="curve"/>
      <point x="1323" y="140" type="line" smooth="yes"/>
      <point x="1297" y="140"/>
      <point x="1253" y="140"/>
      <point x="1216" y="167" type="curve"/>
      <point x="1229" y="195"/>
      <point x="1236" y="227"/>
      <point x="1236" y="262" type="curve" smooth="yes"/>
      <point x="1236" y="398"/>
      <point x="1131" y="471"/>
      <point x="998" y="471" type="curve" smooth="yes"/>
      <point x="867" y="471"/>
      <point x="771" y="420"/>
      <point x="685" y="343" type="curve"/>
      <point x="679" y="398"/>
      <point x="662" y="429"/>
      <point x="585" y="429" type="curve" smooth="yes"/>
      <point x="562" y="429"/>
      <point x="526" y="422"/>
      <point x="508" y="415" type="curve"/>
      <point x="515" y="355"/>
      <point x="520" y="201"/>
      <point x="520" y="85" type="curve" smooth="yes"/>
      <point x="520" y="-62"/>
      <point x="457" y="-102"/>
      <point x="378" y="-102" type="curve" smooth="yes"/>
      <point x="284" y="-102"/>
      <point x="223" y="-52"/>
    </contour>
    <contour>
      <point x="1053" y="258" type="curve"/>
      <point x="1053" y="183"/>
      <point x="940" y="146"/>
      <point x="819" y="146" type="curve" smooth="yes"/>
      <point x="767" y="146"/>
      <point x="738" y="146"/>
      <point x="694" y="155" type="curve"/>
      <point x="766" y="251"/>
      <point x="877" y="324"/>
      <point x="965" y="324" type="curve" smooth="yes"/>
      <point x="1013" y="324"/>
      <point x="1053" y="306"/>
    </contour>
    <contour>
      <point x="970" y="521" type="curve"/>
      <point x="1021" y="521"/>
      <point x="1052" y="554"/>
      <point x="1052" y="597" type="curve" smooth="yes"/>
      <point x="1052" y="642"/>
      <point x="1017" y="674"/>
      <point x="970" y="674" type="curve" smooth="yes"/>
      <point x="924" y="674"/>
      <point x="888" y="642"/>
      <point x="888" y="597" type="curve" smooth="yes"/>
      <point x="888" y="554"/>
      <point x="921" y="521"/>
    </contour>
  </outline>
</glyph>
<glyph name="Zwad.medi.ur" format="1">
  <advance width="909"/>
  <outline>
    <contour>
      <point x="-2" y="140" type="line"/>
      <point x="-7" y="123"/>
      <point x="-9" y="107"/>
      <point x="-9" y="90" type="curve" smooth="yes"/>
      <point x="-9" y="51"/>
      <point x="9" y="17"/>
      <point x="34" y="0" type="curve"/>
      <point x="74" y="0" type="line" smooth="yes"/>
      <point x="143" y="0"/>
      <point x="201" y="17"/>
      <point x="244" y="52" type="curve"/>
      <point x="309" y="22"/>
      <point x="395" y="0"/>
      <point x="500" y="0" type="curve" smooth="yes"/>
      <point x="602" y="0"/>
      <point x="685" y="21"/>
      <point x="746" y="59" type="curve"/>
      <point x="779" y="26"/>
      <point x="867" y="0"/>
      <point x="940" y="0" type="curve" smooth="yes"/>
      <point x="947" y="0" type="line"/>
      <point x="956" y="13"/>
      <point x="965" y="41"/>
      <point x="965" y="68" type="curve" smooth="yes"/>
      <point x="965" y="99"/>
      <point x="957" y="126"/>
      <point x="946" y="140" type="curve"/>
      <point x="921" y="140" type="line" smooth="yes"/>
      <point x="892" y="140"/>
      <point x="856" y="149"/>
      <point x="839" y="162" type="curve"/>
      <point x="853" y="192"/>
      <point x="860" y="225"/>
      <point x="860" y="262" type="curve" smooth="yes"/>
      <point x="860" y="398"/>
      <point x="755" y="471"/>
      <point x="622" y="471" type="curve" smooth="yes"/>
      <point x="502" y="471"/>
      <point x="411" y="428"/>
      <point x="331" y="362" type="curve"/>
      <point x="318" y="437"/>
      <point x="283" y="449"/>
      <point x="233" y="449" type="curve" smooth="yes"/>
      <point x="210" y="449"/>
      <point x="180" y="446"/>
      <point x="154" y="439" type="curve"/>
      <point x="157" y="407"/>
      <point x="160" y="354"/>
      <point x="160" y="286" type="curve" smooth="yes"/>
      <point x="160" y="196"/>
      <point x="119" y="143"/>
      <point x="52" y="140" type="curve"/>
    </contour>
    <contour>
      <point x="677" y="258" type="curve"/>
      <point x="677" y="183"/>
      <point x="569" y="146"/>
      <point x="473" y="146" type="curve" smooth="yes"/>
      <point x="406" y="146"/>
      <point x="349" y="159"/>
      <point x="318" y="172" type="curve"/>
      <point x="390" y="261"/>
      <point x="505" y="324"/>
      <point x="589" y="324" type="curve" smooth="yes"/>
      <point x="637" y="324"/>
      <point x="677" y="306"/>
    </contour>
    <contour>
      <point x="599" y="521" type="curve"/>
      <point x="650" y="521"/>
      <point x="681" y="554"/>
      <point x="681" y="597" type="curve" smooth="yes"/>
      <point x="681" y="642"/>
      <point x="646" y="674"/>
      <point x="599" y="674" type="curve" smooth="yes"/>
      <point x="553" y="674"/>
      <point x="517" y="642"/>
      <point x="517" y="597" type="curve" smooth="yes"/>
      <point x="517" y="554"/>
      <point x="550" y="521"/>
    </contour>
  </outline>
</glyph>
<glyph name="gafline.ur" format="1">
  <advance width="672"/>
  <outline>
    <contour>
      <point x="162" y="450" type="line" smooth="yes"/>
      <point x="137" y="436"/>
      <point x="125" y="419"/>
      <point x="125" y="397" type="curve"/>
      <point x="125" y="372"/>
      <point x="140" y="343"/>
      <point x="174" y="325" type="curve"/>
      <point x="383" y="449" type="line" smooth="yes"/>
      <point x="412" y="466"/>
      <point x="426" y="479"/>
      <point x="426" y="501" type="curve"/>
      <point x="426" y="531"/>
      <point x="398" y="558"/>
      <point x="371" y="572" type="curve"/>
    </contour>
  </outline>
</glyph>
